SplineFontDB: 3.0
FontName: Gudea-Bold
FullName: Gudea Bold
FamilyName: Gudea
Weight: Bold
Copyright: Copyright (c) 2012, Agustina Mingote (agustinamingote@gmail.com), with Reserved Font Names "Gudea"
Version: 1.002
ItalicAngle: 0
UnderlinePosition: -50
UnderlineWidth: 50
Ascent: 800
Descent: 200
sfntRevision: 0x000100c5
LayerCount: 2
Layer: 0 1 "Back"  1
Layer: 1 1 "Fore"  0
XUID: [1021 574 2109649652 797552]
FSType: 0
OS2Version: 2
OS2_WeightWidthSlopeOnly: 0
OS2_UseTypoMetrics: 1
CreationTime: 1325880153
ModificationTime: 1326311204
PfmFamily: 17
TTFWeight: 700
TTFWidth: 5
LineGap: 0
VLineGap: 0
Panose: 2 0 0 0 0 0 0 0 0 0
OS2TypoAscent: 172
OS2TypoAOffset: 1
OS2TypoDescent: -64
OS2TypoDOffset: 1
OS2TypoLinegap: 0
OS2WinAscent: 0
OS2WinAOffset: 1
OS2WinDescent: 0
OS2WinDOffset: 1
HheadAscent: 0
HheadAOffset: 1
HheadDescent: 0
HheadDOffset: 1
OS2SubXSize: 700
OS2SubYSize: 650
OS2SubXOff: 0
OS2SubYOff: 140
OS2SupXSize: 700
OS2SupYSize: 650
OS2SupXOff: 0
OS2SupYOff: 477
OS2StrikeYSize: 50
OS2StrikeYPos: 250
OS2Vendor: 'pyrs'
OS2CodePages: 20000111.40000000
OS2UnicodeRanges: 800000af.4000206a.00000000.00000000
Lookup: 258 0 0 "'kern' Horizontal Kerning in Latin lookup 0"  {"'kern' Horizontal Kerning in Latin lookup 0 subtable"  } ['kern' ('DFLT' <'dflt' > 'latn' <'dflt' > ) ]
MarkAttachClasses: 1
DEI: 91125
TtTable: prep
PUSHW_1
 511
SCANCTRL
PUSHB_1
 4
SCANTYPE
EndTTInstrs
ShortTable: maxp 16
  1
  0
  278
  58
  7
  45
  4
  2
  0
  1
  1
  0
  64
  0
  2
  1
EndShort
LangName: 1033 "" "" "" "FONTLAB:OTFEXPORT" "" "Version 1.002" "" "Gudea is a trademark of Agustina Mingote." "Agustina Mingote" "Agustina Mingote" "" "" "" "This Font Software is licensed under the SIL Open Font License, Version 1.1. This license is available with a FAQ at: http://scripts.sil.org/OFL" "http://scripts.sil.org/OFL" 
GaspTable: 1 65535 15 1
Encoding: UnicodeBmp
UnicodeInterp: none
NameList: Adobe Glyph List
DisplaySize: -24
AntiAlias: 1
FitToEm: 1
BeginChars: 65547 278

StartChar: flecha0
Encoding: 12 12 3
Width: 464
GlyphClass: 2
Flags: W
LayerCount: 2
Fore
SplineSet
384 -79 m 1,0,-1
 20 287 l 1,1,-1
 384 653 l 1,2,-1
 384 -79 l 1,0,-1
EndSplineSet
EndChar

StartChar: exclam
Encoding: 33 33 5
Width: 266
GlyphClass: 2
Flags: W
LayerCount: 2
Fore
SplineSet
68 125 m 1,0,-1
 198 125 l 1,1,-1
 198 0 l 1,2,-1
 68 0 l 1,3,-1
 68 125 l 1,0,-1
68 700 m 1,4,-1
 198 700 l 1,5,-1
 198 190 l 1,6,-1
 68 190 l 1,7,-1
 68 700 l 1,4,-1
EndSplineSet
EndChar

StartChar: quotedbl
Encoding: 34 34 6
Width: 378
GlyphClass: 2
Flags: W
LayerCount: 2
Fore
SplineSet
54 700 m 1,0,-1
 165 700 l 1,1,-1
 165 441 l 1,2,-1
 54 441 l 1,3,-1
 54 700 l 1,0,-1
213 700 m 1,4,-1
 324 700 l 1,5,-1
 324 441 l 1,6,-1
 213 441 l 1,7,-1
 213 700 l 1,4,-1
EndSplineSet
EndChar

StartChar: numbersign
Encoding: 35 35 7
Width: 619
GlyphClass: 2
Flags: W
LayerCount: 2
Fore
SplineSet
139 281 m 1,0,-1
 156 442 l 1,1,-1
 46 442 l 1,2,-1
 46 541 l 1,3,-1
 165 541 l 1,4,-1
 182 701 l 1,5,-1
 293 701 l 1,6,-1
 276 541 l 1,7,-1
 388 541 l 1,8,-1
 405 701 l 1,9,-1
 514 701 l 1,10,-1
 499 541 l 1,11,-1
 588 541 l 1,12,-1
 588 442 l 1,13,-1
 488 442 l 1,14,-1
 472 281 l 1,15,-1
 562 281 l 1,16,-1
 562 181 l 1,17,-1
 462 181 l 1,18,-1
 443 0 l 1,19,-1
 333 0 l 1,20,-1
 352 181 l 1,21,-1
 240 181 l 1,22,-1
 220 0 l 1,23,-1
 110 0 l 1,24,-1
 129 181 l 1,25,-1
 21 181 l 1,26,-1
 21 281 l 1,27,-1
 139 281 l 1,0,-1
380 442 m 1,28,-1
 267 442 l 1,29,30
 254 339 254 339 249 281 c 1,31,-1
 361 281 l 1,32,33
 376 400 376 400 380 442 c 1,28,-1
EndSplineSet
EndChar

StartChar: dollar
Encoding: 36 36 8
Width: 508
GlyphClass: 2
Flags: W
LayerCount: 2
Fore
SplineSet
299 660 m 1,0,1
 357 651 357 651 407 630 c 1,2,-1
 425 623 l 1,3,-1
 401 523 l 1,4,-1
 355 541 l 1,5,6
 291 562 291 562 244 562 c 0,7,8
 181 562 181 562 181 498 c 0,9,10
 181 465 181 465 211 443.5 c 128,-1,11
 241 422 241 422 283.5 408 c 128,-1,12
 326 394 326 394 368 375.5 c 128,-1,13
 410 357 410 357 440 317 c 128,-1,14
 470 277 470 277 470 207.5 c 128,-1,15
 470 138 470 138 425.5 90 c 128,-1,16
 381 42 381 42 299 32 c 1,17,-1
 299 -60 l 1,18,-1
 194 -60 l 1,19,-1
 194 30 l 1,20,21
 113 35 113 35 42 79 c 1,22,-1
 74 169 l 1,23,24
 159 132 159 132 243 132 c 0,25,26
 290 132 290 132 317 154 c 128,-1,27
 344 176 344 176 344 212 c 128,-1,28
 344 248 344 248 314 269.5 c 128,-1,29
 284 291 284 291 241.5 305.5 c 128,-1,30
 199 320 199 320 156.5 339 c 128,-1,31
 114 358 114 358 84 397.5 c 128,-1,32
 54 437 54 437 54 503 c 128,-1,33
 54 569 54 569 92.5 611 c 128,-1,34
 131 653 131 653 194 660 c 1,35,-1
 194 747 l 1,36,-1
 299 747 l 1,37,-1
 299 660 l 1,0,1
EndSplineSet
EndChar

StartChar: percent
Encoding: 37 37 9
Width: 737
GlyphClass: 2
Flags: W
LayerCount: 2
Fore
SplineSet
577.5 223 m 128,-1,1
 567 246 567 246 547 246 c 128,-1,2
 527 246 527 246 516 222.5 c 128,-1,3
 505 199 505 199 505 164 c 0,4,5
 505 84 505 84 545 84 c 0,6,7
 588 84 588 84 588 164 c 0,8,0
 588 200 588 200 577.5 223 c 128,-1,1
545 336 m 0,9,10
 693 336 693 336 693 165 c 128,-1,11
 693 -6 693 -6 543 -6 c 0,12,13
 470 -6 470 -6 435 39.5 c 128,-1,14
 400 85 400 85 400 160.5 c 128,-1,15
 400 236 400 236 435.5 286 c 128,-1,16
 471 336 471 336 545 336 c 0,9,10
207.5 583 m 128,-1,18
 197 606 197 606 177 606 c 128,-1,19
 157 606 157 606 146 582.5 c 128,-1,20
 135 559 135 559 135 524 c 0,21,22
 135 444 135 444 175 444 c 0,23,24
 218 444 218 444 218 524 c 0,25,17
 218 560 218 560 207.5 583 c 128,-1,18
175 696 m 0,26,27
 323 696 323 696 323 525 c 128,-1,28
 323 354 323 354 173 354 c 0,29,30
 100 354 100 354 65 399.5 c 128,-1,31
 30 445 30 445 30 520.5 c 128,-1,32
 30 596 30 596 65.5 646 c 128,-1,33
 101 696 101 696 175 696 c 0,26,27
616 688 m 1,34,-1
 228 0 l 1,35,-1
 90 0 l 1,36,-1
 478 688 l 1,37,-1
 616 688 l 1,34,-1
EndSplineSet
EndChar

StartChar: ampersand
Encoding: 38 38 10
Width: 756
GlyphClass: 2
Flags: W
LayerCount: 2
Fore
SplineSet
517 361 m 1,0,-1
 629 361 l 1,1,2
 621 245 621 245 603 195 c 0,3,4
 596 176 596 176 582 147 c 1,5,-1
 725 1 l 1,6,-1
 555 1 l 1,7,-1
 503 50 l 1,8,9
 470 26 470 26 412 9.5 c 128,-1,10
 354 -7 354 -7 294 -7 c 0,11,12
 175 -7 175 -7 112 47 c 128,-1,13
 49 101 49 101 49 193 c 0,14,15
 49 279 49 279 104 327 c 0,16,17
 128 348 128 348 171 374 c 1,18,19
 127 426 127 426 106.5 463.5 c 128,-1,20
 86 501 86 501 86 539 c 0,21,22
 86 614 86 614 143 662 c 128,-1,23
 200 710 200 710 289 710 c 128,-1,24
 378 710 378 710 431.5 665.5 c 128,-1,25
 485 621 485 621 485 557 c 128,-1,26
 485 493 485 493 454.5 450 c 128,-1,27
 424 407 424 407 356 365 c 1,28,-1
 495 231 l 1,29,30
 517 278 517 278 517 361 c 1,0,-1
416 138 m 1,31,-1
 261 294 l 1,32,33
 174 249 174 249 174 187 c 0,34,35
 174 147 174 147 206.5 122.5 c 128,-1,36
 239 98 239 98 285 98 c 128,-1,37
 331 98 331 98 366 110.5 c 128,-1,38
 401 123 401 123 416 138 c 1,31,-1
217 522 m 2,39,-1
 226 504 l 2,40,41
 229 498 229 498 237 488 c 2,42,-1
 249 473 l 2,43,44
 253 468 253 468 263 456 c 128,-1,45
 273 444 273 444 277 439 c 1,46,47
 363 489 363 489 363 555 c 0,48,49
 363 580 363 580 341 592.5 c 128,-1,50
 319 605 319 605 286 605 c 128,-1,51
 253 605 253 605 232 591.5 c 128,-1,52
 211 578 211 578 211 556 c 128,-1,53
 211 534 211 534 217 522 c 2,39,-1
EndSplineSet
EndChar

StartChar: quotesingle
Encoding: 39 39 11
Width: 185
GlyphClass: 2
Flags: W
LayerCount: 2
Fore
SplineSet
37 700 m 1,0,-1
 148 700 l 1,1,-1
 148 441 l 1,2,-1
 37 441 l 1,3,-1
 37 700 l 1,0,-1
EndSplineSet
EndChar

StartChar: parenleft
Encoding: 40 40 12
Width: 299
GlyphClass: 2
Flags: W
LayerCount: 2
Fore
SplineSet
173 -130 m 1,0,1
 40 78 40 78 40 316.5 c 128,-1,2
 40 555 40 555 178 764 c 1,3,-1
 284 751 l 1,4,5
 185 539 185 539 185 317 c 128,-1,6
 185 95 185 95 282 -118 c 1,7,-1
 173 -130 l 1,0,1
EndSplineSet
EndChar

StartChar: parenright
Encoding: 41 41 13
Width: 299
GlyphClass: 2
Flags: W
LayerCount: 2
Fore
SplineSet
121 764 m 1,0,1
 259 555 259 555 259 316.5 c 128,-1,2
 259 78 259 78 126 -130 c 1,3,-1
 17 -118 l 1,4,5
 114 95 114 95 114 317 c 128,-1,6
 114 539 114 539 15 751 c 1,7,-1
 121 764 l 1,0,1
EndSplineSet
EndChar

StartChar: asterisk
Encoding: 42 42 14
Width: 430
GlyphClass: 2
Flags: W
LayerCount: 2
Fore
SplineSet
164 596 m 1,0,1
 162 638 162 638 156 710 c 1,2,-1
 256 710 l 1,3,-1
 245 596 l 1,4,-1
 341 661 l 1,5,-1
 388 572 l 1,6,-1
 287 527 l 1,7,-1
 388 481 l 1,8,-1
 341 392 l 1,9,-1
 245 456 l 1,10,-1
 256 343 l 1,11,-1
 156 343 l 1,12,-1
 164 457 l 1,13,-1
 69 393 l 1,14,-1
 20 476 l 1,15,-1
 124 526 l 1,16,-1
 21 576 l 1,17,-1
 74 661 l 1,18,-1
 164 596 l 1,0,1
EndSplineSet
EndChar

StartChar: plus
Encoding: 43 43 15
Width: 469
GlyphClass: 2
Flags: W
LayerCount: 2
Fore
SplineSet
440 242 m 1,0,-1
 287 242 l 1,1,-1
 287 69 l 1,2,-1
 172 69 l 1,3,-1
 172 242 l 1,4,-1
 28 242 l 1,5,-1
 28 347 l 1,6,-1
 172 347 l 1,7,-1
 172 527 l 1,8,-1
 287 527 l 1,9,-1
 287 347 l 1,10,-1
 440 347 l 1,11,-1
 440 242 l 1,0,-1
EndSplineSet
EndChar

StartChar: comma
Encoding: 44 44 16
Width: 244
GlyphClass: 2
Flags: W
LayerCount: 2
Fore
SplineSet
212 70 m 1,0,-1
 99 -178 l 1,1,-1
 0 -146 l 1,2,-1
 87 111 l 1,3,-1
 212 70 l 1,0,-1
EndSplineSet
EndChar

StartChar: hyphen
Encoding: 45 45 17
Width: 287
GlyphClass: 2
Flags: W
LayerCount: 2
Fore
SplineSet
259 234 m 1,0,-1
 28 234 l 1,1,-1
 28 349 l 1,2,-1
 259 349 l 1,3,-1
 259 234 l 1,0,-1
EndSplineSet
EndChar

StartChar: period
Encoding: 46 46 18
Width: 183
GlyphClass: 2
Flags: W
LayerCount: 2
Fore
SplineSet
149 0 m 1,0,-1
 34 0 l 1,1,-1
 34 136 l 1,2,-1
 149 136 l 1,3,-1
 149 0 l 1,0,-1
EndSplineSet
EndChar

StartChar: slash
Encoding: 47 47 19
Width: 491
GlyphClass: 2
Flags: W
LayerCount: 2
Fore
SplineSet
461 800 m 1,0,-1
 167 -145 l 1,1,-1
 37 -145 l 1,2,-1
 332 800 l 1,3,-1
 461 800 l 1,0,-1
EndSplineSet
EndChar

StartChar: zero
Encoding: 48 48 20
Width: 580
GlyphClass: 2
Flags: W
LayerCount: 2
Fore
SplineSet
536 352 m 0,0,1
 536 82 536 82 387 14 c 0,2,3
 342 -6 342 -6 284 -6 c 0,4,5
 45 -6 45 -6 45 352 c 0,6,7
 45 497 45 497 96 597 c 0,8,9
 123 650 123 650 174 680 c 128,-1,10
 225 710 225 710 296 710 c 0,11,12
 536 710 536 710 536 352 c 0,0,1
411 350 m 2,13,-1
 411 354 l 2,14,15
 411 600 411 600 291 600 c 0,16,17
 227 600 227 600 198.5 531 c 128,-1,18
 170 462 170 462 170 352 c 128,-1,19
 170 242 170 242 198.5 173 c 128,-1,20
 227 104 227 104 291 104 c 0,21,22
 411 104 411 104 411 350 c 2,13,-1
EndSplineSet
EndChar

StartChar: one
Encoding: 49 49 21
Width: 519
GlyphClass: 2
Flags: W
LayerCount: 2
Fore
SplineSet
32 0 m 1,0,-1
 32 100 l 1,1,-1
 212 100 l 1,2,-1
 212 571 l 1,3,-1
 65 475 l 1,4,-1
 18 571 l 1,5,-1
 212 700 l 1,6,-1
 337 700 l 1,7,-1
 337 100 l 1,8,-1
 475 100 l 1,9,-1
 475 0 l 1,10,-1
 32 0 l 1,0,-1
EndSplineSet
EndChar

StartChar: two
Encoding: 50 50 22
Width: 524
GlyphClass: 2
Flags: W
LayerCount: 2
Fore
SplineSet
480 110 m 1,0,-1
 479 0 l 1,1,-1
 47 0 l 1,2,-1
 47 102 l 1,3,4
 207 261 207 261 280 358 c 128,-1,5
 353 455 353 455 353 527.5 c 128,-1,6
 353 600 353 600 247 600 c 0,7,8
 171 600 171 600 102 580 c 1,9,-1
 79 574 l 1,10,-1
 60 677 l 1,11,12
 140 710 140 710 250 710 c 128,-1,13
 360 710 360 710 419.5 664.5 c 128,-1,14
 479 619 479 619 479 536 c 128,-1,15
 479 453 479 453 415.5 353 c 128,-1,16
 352 253 352 253 221 110 c 1,17,-1
 480 110 l 1,0,-1
EndSplineSet
EndChar

StartChar: three
Encoding: 51 51 23
Width: 528
GlyphClass: 2
Flags: W
LayerCount: 2
Fore
SplineSet
126 411 m 1,0,-1
 231 411 l 2,1,2
 282 411 282 411 311.5 440.5 c 128,-1,3
 341 470 341 470 341 514 c 0,4,5
 341 600 341 600 242 600 c 0,6,7
 208 600 208 600 168 590 c 128,-1,8
 128 580 128 580 104 570 c 1,9,-1
 81 559 l 1,10,-1
 57 662 l 1,11,12
 90 681 90 681 142.5 695.5 c 128,-1,13
 195 710 195 710 239 710 c 0,14,15
 351 710 351 710 406 659.5 c 128,-1,16
 461 609 461 609 461 522 c 0,17,18
 461 461 461 461 432 415.5 c 128,-1,19
 403 370 403 370 357 359 c 1,20,21
 412 350 412 350 448 309.5 c 128,-1,22
 484 269 484 269 484 207 c 0,23,24
 484 107 484 107 417.5 50.5 c 128,-1,25
 351 -6 351 -6 231 -6 c 0,26,27
 180 -6 180 -6 132 6 c 128,-1,28
 84 18 84 18 62 30 c 1,29,-1
 39 41 l 1,30,-1
 79 142 l 1,31,32
 159 104 159 104 229.5 104 c 128,-1,33
 300 104 300 104 331.5 129 c 128,-1,34
 363 154 363 154 363 199 c 128,-1,35
 363 244 363 244 328.5 272.5 c 128,-1,36
 294 301 294 301 231 301 c 2,37,-1
 126 301 l 1,38,-1
 126 411 l 1,0,-1
EndSplineSet
EndChar

StartChar: four
Encoding: 52 52 24
Width: 540
GlyphClass: 2
Flags: W
LayerCount: 2
Fore
SplineSet
311 0 m 1,0,-1
 311 111 l 1,1,-1
 5 111 l 1,2,-1
 5 205 l 1,3,-1
 224 700 l 1,4,-1
 349 700 l 1,5,-1
 137 221 l 1,6,-1
 311 221 l 1,7,-1
 311 382 l 1,8,-1
 428 382 l 1,9,-1
 428 221 l 1,10,-1
 496 221 l 1,11,-1
 496 111 l 1,12,-1
 428 111 l 1,13,-1
 428 0 l 1,14,-1
 311 0 l 1,0,-1
EndSplineSet
EndChar

StartChar: five
Encoding: 53 53 25
Width: 558
GlyphClass: 2
Flags: W
LayerCount: 2
Fore
SplineSet
394 220 m 128,-1,1
 394 340 394 340 252 340 c 2,2,-1
 90 341 l 1,3,-1
 114 700 l 1,4,-1
 491 700 l 1,5,-1
 486 595 l 1,6,-1
 228 595 l 1,7,-1
 217 449 l 1,8,9
 239 450 239 450 260 450 c 0,10,11
 375 450 375 450 444.5 391.5 c 128,-1,12
 514 333 514 333 514 227 c 128,-1,13
 514 121 514 121 448 57.5 c 128,-1,14
 382 -6 382 -6 257 -6 c 0,15,16
 205 -6 205 -6 154 7 c 128,-1,17
 103 20 103 20 78 34 c 2,18,-1
 53 47 l 1,19,-1
 91 140 l 1,20,21
 179 100 179 100 252 100 c 0,22,0
 394 100 394 100 394 220 c 128,-1,1
EndSplineSet
EndChar

StartChar: six
Encoding: 54 54 26
Width: 576
GlyphClass: 2
Flags: W
LayerCount: 2
Fore
SplineSet
304 443 m 0,0,1
 413 443 413 443 472.5 386 c 128,-1,2
 532 329 532 329 532 224 c 128,-1,3
 532 119 532 119 470.5 56.5 c 128,-1,4
 409 -6 409 -6 304 -6 c 0,5,6
 62 -6 62 -6 62 310 c 0,7,8
 62 602 62 602 202 679 c 0,9,10
 258 710 258 710 338 710 c 0,11,12
 380 710 380 710 420 702 c 128,-1,13
 460 694 460 694 480 686 c 1,14,-1
 499 677 l 1,15,-1
 471 577 l 1,16,17
 401 604 401 604 329 604 c 0,18,19
 192 604 192 604 179 416 c 1,20,21
 243 443 243 443 304 443 c 0,0,1
309 99 m 0,22,23
 358 99 358 99 387.5 131.5 c 128,-1,24
 417 164 417 164 417 213 c 0,25,26
 417 338 417 338 300 338 c 0,27,28
 239 338 239 338 177 301 c 1,29,30
 177 200 177 200 207.5 149.5 c 128,-1,31
 238 99 238 99 309 99 c 0,22,23
EndSplineSet
EndChar

StartChar: seven
Encoding: 55 55 27
Width: 507
GlyphClass: 2
Flags: W
LayerCount: 2
Fore
SplineSet
16 585 m 1,0,-1
 16 700 l 1,1,-1
 487 700 l 1,2,-1
 487 585 l 1,3,-1
 187 0 l 1,4,-1
 54 0 l 1,5,-1
 348 585 l 1,6,-1
 16 585 l 1,0,-1
EndSplineSet
EndChar

StartChar: eight
Encoding: 56 56 28
Width: 575
GlyphClass: 2
Flags: W
LayerCount: 2
Fore
SplineSet
455.5 661.5 m 128,-1,1
 513 613 513 613 513 543 c 128,-1,2
 513 473 513 473 484.5 422.5 c 128,-1,3
 456 372 456 372 424 344 c 1,4,5
 475 316 475 316 503 281 c 128,-1,6
 531 246 531 246 531 194 c 0,7,8
 531 99 531 99 466 46.5 c 128,-1,9
 401 -6 401 -6 284.5 -6 c 128,-1,10
 168 -6 168 -6 110 49 c 128,-1,11
 52 104 52 104 52 185 c 0,12,13
 52 277 52 277 136 342 c 0,14,15
 152 355 152 355 168 364 c 1,16,17
 75 421 75 421 75 515.5 c 128,-1,18
 75 610 75 610 135.5 660 c 128,-1,19
 196 710 196 710 297 710 c 128,-1,0
 398 710 398 710 455.5 661.5 c 128,-1,1
268 312 m 1,20,21
 167 258 167 258 167 189 c 0,22,23
 167 148 167 148 197.5 122.5 c 128,-1,24
 228 97 228 97 286.5 97 c 128,-1,25
 345 97 345 97 380.5 121 c 128,-1,26
 416 145 416 145 416 185 c 0,27,28
 416 232 416 232 372 262 c 0,29,30
 338 284 338 284 268 312 c 1,20,21
400 530 m 0,31,32
 400 562 400 562 372 583.5 c 128,-1,33
 344 605 344 605 297.5 605 c 128,-1,34
 251 605 251 605 219.5 584 c 128,-1,35
 188 563 188 563 188 533 c 128,-1,36
 188 503 188 503 198 483 c 128,-1,37
 208 463 208 463 233 445.5 c 128,-1,38
 258 428 258 428 274.5 419.5 c 128,-1,39
 291 411 291 411 329 394 c 1,40,41
 400 455 400 455 400 530 c 0,31,32
EndSplineSet
EndChar

StartChar: nine
Encoding: 57 57 29
Width: 557
GlyphClass: 2
Flags: W
LayerCount: 2
Fore
SplineSet
271 261 m 0,0,1
 162 261 162 261 102.5 318 c 128,-1,2
 43 375 43 375 43 480 c 128,-1,3
 43 585 43 585 104.5 647.5 c 128,-1,4
 166 710 166 710 271 710 c 0,5,6
 513 710 513 710 513 394 c 0,7,8
 513 102 513 102 373 25 c 0,9,10
 317 -6 317 -6 237 -6 c 0,11,12
 195 -6 195 -6 155 2 c 128,-1,13
 115 10 115 10 96 18 c 2,14,-1
 76 27 l 1,15,-1
 104 127 l 1,16,17
 174 100 174 100 246 100 c 0,18,19
 382 100 382 100 395 288 c 1,20,21
 338 261 338 261 271 261 c 0,0,1
266 605 m 0,22,23
 217 605 217 605 187.5 572.5 c 128,-1,24
 158 540 158 540 158 491 c 0,25,26
 158 366 158 366 275 366 c 0,27,28
 334 366 334 366 398 402 c 1,29,-1
 398 406 l 2,30,31
 398 505 398 505 367.5 555 c 128,-1,32
 337 605 337 605 266 605 c 0,22,23
EndSplineSet
EndChar

StartChar: colon
Encoding: 58 58 30
Width: 217
GlyphClass: 2
Flags: W
LayerCount: 2
Fore
SplineSet
171 0 m 1,0,-1
 46 0 l 1,1,-1
 46 146 l 1,2,-1
 171 146 l 1,3,-1
 171 0 l 1,0,-1
171 354 m 1,4,-1
 46 354 l 1,5,-1
 46 500 l 1,6,-1
 171 500 l 1,7,-1
 171 354 l 1,4,-1
EndSplineSet
EndChar

StartChar: semicolon
Encoding: 59 59 31
Width: 276
GlyphClass: 2
Flags: W
LayerCount: 2
Fore
SplineSet
205 129 m 1,0,-1
 92 -170 l 1,1,-1
 -7 -139 l 1,2,-1
 83 168 l 1,3,-1
 205 129 l 1,0,-1
204 354 m 1,4,-1
 79 354 l 1,5,-1
 79 500 l 1,6,-1
 204 500 l 1,7,-1
 204 354 l 1,4,-1
EndSplineSet
EndChar

StartChar: less
Encoding: 60 60 32
Width: 528
GlyphClass: 2
Flags: W
LayerCount: 2
Fore
SplineSet
463 45 m 1,0,-1
 51 249 l 1,1,-1
 51 346 l 1,2,-1
 463 551 l 1,3,-1
 463 431 l 1,4,-1
 184 298 l 1,5,-1
 463 163 l 1,6,-1
 463 45 l 1,0,-1
EndSplineSet
EndChar

StartChar: equal
Encoding: 61 61 33
Width: 580
GlyphClass: 2
Flags: W
LayerCount: 2
Fore
SplineSet
515 331 m 1,0,-1
 65 331 l 1,1,-1
 65 436 l 1,2,-1
 515 436 l 1,3,-1
 515 331 l 1,0,-1
515 153 m 1,4,-1
 65 153 l 1,5,-1
 65 258 l 1,6,-1
 515 258 l 1,7,-1
 515 153 l 1,4,-1
EndSplineSet
EndChar

StartChar: greater
Encoding: 62 62 34
Width: 528
GlyphClass: 2
Flags: W
LayerCount: 2
Fore
SplineSet
64 551 m 1,0,-1
 476 347 l 1,1,-1
 476 250 l 1,2,-1
 64 45 l 1,3,-1
 64 165 l 1,4,-1
 343 298 l 1,5,-1
 64 433 l 1,6,-1
 64 551 l 1,0,-1
EndSplineSet
EndChar

StartChar: question
Encoding: 63 63 35
Width: 463
GlyphClass: 2
Flags: W
LayerCount: 2
Fore
SplineSet
356 408 m 0,0,1
 335 386 335 386 314 366 c 0,2,3
 262 316 262 316 262 257 c 2,4,-1
 262 194 l 1,5,-1
 138 194 l 1,6,-1
 138 252 l 2,7,8
 138 337 138 337 189 393 c 0,9,10
 210 416 210 416 232 436 c 1,11,12
 283 486 283 486 283 541 c 0,13,14
 283 594 283 594 215 594 c 128,-1,15
 147 594 147 594 91 575 c 1,16,-1
 70 683 l 1,17,18
 156 710 156 710 233 710 c 128,-1,19
 310 710 310 710 359 666.5 c 128,-1,20
 408 623 408 623 408 542.5 c 128,-1,21
 408 462 408 462 356 408 c 0,0,1
261 0 m 1,22,-1
 136 0 l 1,23,-1
 136 138 l 1,24,-1
 261 138 l 1,25,-1
 261 0 l 1,22,-1
EndSplineSet
EndChar

StartChar: at
Encoding: 64 64 36
Width: 907
GlyphClass: 2
Flags: W
LayerCount: 2
Fore
SplineSet
500 216 m 1,0,-1
 533 394 l 2,1,2
 532 394 532 394 516 402.5 c 128,-1,3
 500 411 500 411 480 411 c 0,4,5
 422 411 422 411 387 353.5 c 128,-1,6
 352 296 352 296 352 225 c 0,7,8
 352 175 352 175 400 175 c 0,9,10
 426 175 426 175 445.5 184 c 128,-1,11
 465 193 465 193 500 216 c 1,0,-1
505 81 m 1,12,-1
 497 117 l 1,13,14
 438 76 438 76 379 76 c 128,-1,15
 320 76 320 76 285 115 c 128,-1,16
 250 154 250 154 250 222.5 c 128,-1,17
 250 291 250 291 272 351 c 128,-1,18
 294 411 294 411 328 445 c 0,19,20
 400 515 400 515 474 515 c 0,21,22
 510 515 510 515 528 506 c 128,-1,23
 546 497 546 497 558.5 488 c 128,-1,24
 571 479 571 479 572 479 c 2,25,-1
 588 504 l 1,26,-1
 659 504 l 1,27,-1
 596 175 l 1,28,29
 735 175 735 175 735 398 c 0,30,31
 735 605 735 605 476 605 c 0,32,33
 320 605 320 605 248 512 c 128,-1,34
 176 419 176 419 176 232 c 0,35,36
 176 102 176 102 229.5 42.5 c 128,-1,37
 283 -17 283 -17 402 -17 c 2,38,-1
 573 -17 l 1,39,-1
 577 -111 l 1,40,41
 492 -119 492 -119 398 -119 c 0,42,43
 66 -119 66 -119 66 209 c 0,44,45
 66 710 66 710 477 710 c 0,46,47
 840 710 840 710 840 394 c 0,48,49
 840 220 840 220 755 150.5 c 128,-1,50
 670 81 670 81 505 81 c 1,12,-1
EndSplineSet
EndChar

StartChar: A
Encoding: 65 65 37
Width: 579
GlyphClass: 2
Flags: W
LayerCount: 2
Fore
SplineSet
586 0 m 1,0,-1
 442 0 l 1,1,-1
 392 171 l 1,2,-1
 181 171 l 1,3,-1
 132 0 l 1,4,-1
 -7 0 l 1,5,-1
 203 700 l 1,6,-1
 374 700 l 1,7,-1
 586 0 l 1,0,-1
365 286 m 1,8,-1
 288 574 l 1,9,-1
 210 286 l 1,10,-1
 365 286 l 1,8,-1
EndSplineSet
EndChar

StartChar: B
Encoding: 66 66 38
Width: 587
GlyphClass: 2
Flags: W
LayerCount: 2
Fore
SplineSet
71 0 m 1,0,-1
 71 700 l 1,1,-1
 291 700 l 2,2,3
 408 700 408 700 466 653.5 c 128,-1,4
 524 607 524 607 524 521 c 0,5,6
 524 463 524 463 491.5 425 c 128,-1,7
 459 387 459 387 403 379 c 1,8,9
 474 367 474 367 513 322 c 128,-1,10
 552 277 552 277 552 210 c 0,11,12
 552 115 552 115 481 57.5 c 128,-1,13
 410 0 410 0 284 0 c 2,14,-1
 71 0 l 1,0,-1
209 115 m 1,15,-1
 308 115 l 2,16,17
 356 115 356 115 385 140.5 c 128,-1,18
 414 166 414 166 414 209.5 c 128,-1,19
 414 253 414 253 381.5 285.5 c 128,-1,20
 349 318 349 318 287 318 c 2,21,-1
 209 318 l 1,22,-1
 209 115 l 1,15,-1
296 585 m 1,23,-1
 209 585 l 1,24,-1
 209 432 l 1,25,-1
 286 432 l 2,26,27
 325 432 325 432 355.5 456 c 128,-1,28
 386 480 386 480 386 518 c 0,29,30
 386 580 386 580 296 585 c 1,23,-1
EndSplineSet
EndChar

StartChar: C
Encoding: 67 67 39
Width: 584
GlyphClass: 2
Flags: W
LayerCount: 2
Fore
SplineSet
346 -6 m 0,0,1
 193 -6 193 -6 111.5 90.5 c 128,-1,2
 30 187 30 187 30 352 c 128,-1,3
 30 517 30 517 116.5 613 c 128,-1,4
 203 709 203 709 357 709 c 0,5,6
 441 709 441 709 524 680 c 1,7,-1
 496 568 l 1,8,9
 435 594 435 594 352 594 c 128,-1,10
 269 594 269 594 222 531 c 128,-1,11
 175 468 175 468 175 357 c 128,-1,12
 175 246 175 246 219 177.5 c 128,-1,13
 263 109 263 109 343 109 c 0,14,15
 403 109 403 109 514 148 c 1,16,-1
 544 46 l 1,17,18
 453 -6 453 -6 346 -6 c 0,0,1
EndSplineSet
EndChar

StartChar: D
Encoding: 68 68 40
Width: 647
GlyphClass: 2
Flags: W
LayerCount: 2
Fore
SplineSet
617 375 m 0,0,1
 617 206 617 206 519 103 c 128,-1,2
 421 0 421 0 257 0 c 2,3,-1
 71 0 l 1,4,-1
 71 700 l 1,5,-1
 288 700 l 2,6,7
 437 700 437 700 527 609 c 128,-1,8
 617 518 617 518 617 375 c 0,0,1
466 383 m 0,9,10
 466 477 466 477 415 531 c 128,-1,11
 364 585 364 585 292 585 c 2,12,-1
 212 585 l 1,13,-1
 212 115 l 1,14,-1
 266 115 l 2,15,16
 350 115 350 115 408 186.5 c 128,-1,17
 466 258 466 258 466 383 c 0,9,10
EndSplineSet
EndChar

StartChar: E
Encoding: 69 69 41
Width: 542
GlyphClass: 2
Flags: W
LayerCount: 2
Fore
SplineSet
488 0 m 1,0,-1
 71 0 l 1,1,-1
 71 700 l 1,2,-1
 488 700 l 1,3,-1
 488 585 l 1,4,-1
 216 585 l 1,5,-1
 216 438 l 1,6,-1
 463 438 l 1,7,-1
 463 321 l 1,8,-1
 216 321 l 1,9,-1
 216 115 l 1,10,-1
 488 115 l 1,11,-1
 488 0 l 1,0,-1
EndSplineSet
EndChar

StartChar: F
Encoding: 70 70 42
Width: 510
GlyphClass: 2
Flags: W
LayerCount: 2
Fore
SplineSet
489 700 m 1,0,-1
 489 585 l 1,1,-1
 216 585 l 1,2,-1
 216 438 l 1,3,-1
 465 438 l 1,4,-1
 465 321 l 1,5,-1
 216 321 l 1,6,-1
 216 0 l 1,7,-1
 71 0 l 1,8,-1
 71 700 l 1,9,-1
 489 700 l 1,0,-1
EndSplineSet
EndChar

StartChar: G
Encoding: 71 71 43
Width: 646
GlyphClass: 2
Flags: W
LayerCount: 2
Fore
SplineSet
362 -6 m 0,0,1
 208 -6 208 -6 117 92 c 128,-1,2
 26 190 26 190 26 353.5 c 128,-1,3
 26 517 26 517 112.5 613.5 c 128,-1,4
 199 710 199 710 353 710 c 0,5,6
 455 710 455 710 560 674 c 1,7,-1
 542 562 l 1,8,9
 504 576 504 576 443 585.5 c 128,-1,10
 382 595 382 595 348 595 c 0,11,12
 265 595 265 595 218 531.5 c 128,-1,13
 171 468 171 468 171 360 c 128,-1,14
 171 252 171 252 221.5 180.5 c 128,-1,15
 272 109 272 109 351 109 c 0,16,17
 397 109 397 109 435 129 c 1,18,-1
 435 265 l 1,19,-1
 319 265 l 1,20,-1
 319 380 l 1,21,-1
 580 380 l 1,22,-1
 580 48 l 1,23,24
 475 -6 475 -6 362 -6 c 0,0,1
EndSplineSet
EndChar

StartChar: H
Encoding: 72 72 44
Width: 664
GlyphClass: 2
Flags: W
LayerCount: 2
Fore
SplineSet
593 0 m 1,0,-1
 448 0 l 1,1,-1
 448 306 l 1,2,-1
 216 306 l 1,3,-1
 216 0 l 1,4,-1
 71 0 l 1,5,-1
 71 700 l 1,6,-1
 216 700 l 1,7,-1
 216 421 l 1,8,-1
 448 421 l 1,9,-1
 448 700 l 1,10,-1
 593 700 l 1,11,-1
 593 0 l 1,0,-1
EndSplineSet
EndChar

StartChar: I
Encoding: 73 73 45
Width: 257
GlyphClass: 2
Flags: W
LayerCount: 2
Fore
SplineSet
201 0 m 1,0,-1
 56 0 l 1,1,-1
 56 700 l 1,2,-1
 201 700 l 1,3,-1
 201 0 l 1,0,-1
EndSplineSet
EndChar

StartChar: J
Encoding: 74 74 46
Width: 343
GlyphClass: 2
Flags: W
LayerCount: 2
Fore
SplineSet
272 211 m 2,0,1
 272 -7 272 -7 101 -7 c 0,2,3
 38 -7 38 -7 -19 4 c 1,4,-1
 -19 117 l 1,5,6
 -14 117 -14 117 14.5 112.5 c 128,-1,7
 43 108 43 108 70 108 c 0,8,9
 127 108 127 108 127 228 c 2,10,-1
 127 591 l 1,11,-1
 12 591 l 1,12,-1
 12 700 l 1,13,-1
 272 700 l 1,14,-1
 272 211 l 2,0,1
EndSplineSet
EndChar

StartChar: K
Encoding: 75 75 47
Width: 573
GlyphClass: 2
Flags: W
LayerCount: 2
Fore
SplineSet
575 0 m 1,0,-1
 411 0 l 1,1,-1
 256 323 l 1,2,-1
 216 278 l 1,3,-1
 216 0 l 1,4,-1
 71 0 l 1,5,-1
 71 700 l 1,6,-1
 215 700 l 1,7,-1
 215 444 l 1,8,-1
 407 700 l 1,9,-1
 579 700 l 1,10,-1
 357 434 l 1,11,-1
 575 0 l 1,0,-1
EndSplineSet
EndChar

StartChar: L
Encoding: 76 76 48
Width: 473
GlyphClass: 2
Flags: W
LayerCount: 2
Fore
SplineSet
486 0 m 1,0,-1
 71 0 l 1,1,-1
 71 700 l 1,2,-1
 216 700 l 1,3,-1
 216 115 l 1,4,-1
 486 115 l 1,5,-1
 486 0 l 1,0,-1
EndSplineSet
EndChar

StartChar: M
Encoding: 77 77 49
Width: 737
GlyphClass: 2
Flags: W
LayerCount: 2
Fore
SplineSet
701 0 m 1,0,-1
 556 0 l 1,1,-1
 556 434 l 1,2,-1
 431 164 l 1,3,-1
 305 164 l 1,4,-1
 180 433 l 1,5,-1
 180 0 l 1,6,-1
 36 0 l 1,7,-1
 36 700 l 1,8,-1
 190 700 l 1,9,-1
 369 325 l 1,10,-1
 556 700 l 1,11,-1
 701 700 l 1,12,-1
 701 0 l 1,0,-1
EndSplineSet
EndChar

StartChar: N
Encoding: 78 78 50
Width: 679
GlyphClass: 2
Flags: W
LayerCount: 2
Fore
SplineSet
608 -1 m 1,0,-1
 456 -1 l 1,1,-1
 219 430 l 1,2,-1
 219 0 l 1,3,-1
 71 0 l 1,4,-1
 71 700 l 1,5,-1
 219 700 l 1,6,-1
 463 248 l 1,7,-1
 463 700 l 1,8,-1
 608 700 l 1,9,-1
 608 -1 l 1,0,-1
EndSplineSet
EndChar

StartChar: O
Encoding: 79 79 51
Width: 648
GlyphClass: 2
Flags: W
LayerCount: 2
Fore
SplineSet
323 -5 m 0,0,1
 176 -5 176 -5 101 96.5 c 128,-1,2
 26 198 26 198 26 355 c 128,-1,3
 26 512 26 512 101.5 611 c 128,-1,4
 177 710 177 710 323.5 710 c 128,-1,5
 470 710 470 710 546 611 c 128,-1,6
 622 512 622 512 622 355 c 0,7,8
 622 140 622 140 491 45 c 0,9,10
 422 -5 422 -5 323 -5 c 0,0,1
325 595 m 0,11,12
 272 595 272 595 236 558 c 0,13,14
 172 494 172 494 172 355 c 0,15,16
 172 250 172 250 211 180.5 c 128,-1,17
 250 111 250 111 325.5 111 c 128,-1,18
 401 111 401 111 439 181.5 c 128,-1,19
 477 252 477 252 477 353.5 c 128,-1,20
 477 455 477 455 436.5 525 c 128,-1,21
 396 595 396 595 325 595 c 0,11,12
EndSplineSet
EndChar

StartChar: P
Encoding: 80 80 52
Width: 541
GlyphClass: 2
Flags: W
LayerCount: 2
Fore
SplineSet
268 269 m 2,0,-1
 216 269 l 1,1,-1
 216 0 l 1,2,-1
 71 0 l 1,3,-1
 71 700 l 1,4,-1
 291 700 l 2,5,6
 414 700 414 700 469 647.5 c 128,-1,7
 524 595 524 595 524 485.5 c 128,-1,8
 524 376 524 376 456.5 322.5 c 128,-1,9
 389 269 389 269 268 269 c 2,0,-1
257 586 m 2,10,-1
 216 586 l 1,11,-1
 216 383 l 1,12,-1
 232 383 l 2,13,14
 308 383 308 383 343.5 406 c 128,-1,15
 379 429 379 429 379 483.5 c 128,-1,16
 379 538 379 538 350 562 c 128,-1,17
 321 586 321 586 257 586 c 2,10,-1
EndSplineSet
EndChar

StartChar: Q
Encoding: 81 81 53
Width: 651
GlyphClass: 2
Flags: W
LayerCount: 2
Fore
SplineSet
558 111 m 1,0,-1
 651 15 l 1,1,-1
 572 -64 l 1,2,-1
 477 37 l 1,3,4
 416 -7 416 -7 320 -7 c 128,-1,5
 224 -7 224 -7 156 44 c 1,6,7
 26 139 26 139 26 355 c 0,8,9
 26 512 26 512 101.5 611 c 128,-1,10
 177 710 177 710 323.5 710 c 128,-1,11
 470 710 470 710 546 611 c 128,-1,12
 622 512 622 512 622 358.5 c 128,-1,13
 622 205 622 205 558 111 c 1,0,-1
419 258 m 1,14,-1
 451 219 l 1,15,16
 477 270 477 270 477 362.5 c 128,-1,17
 477 455 477 455 436.5 525.5 c 128,-1,18
 396 596 396 596 321 596 c 128,-1,19
 246 596 246 596 209 526 c 128,-1,20
 172 456 172 456 172 353 c 128,-1,21
 172 250 172 250 211 179.5 c 128,-1,22
 250 109 250 109 324 109 c 0,23,24
 363 109 363 109 387 127 c 1,25,-1
 339 179 l 1,26,-1
 419 258 l 1,14,-1
EndSplineSet
EndChar

StartChar: R
Encoding: 82 82 54
Width: 603
GlyphClass: 2
Flags: W
LayerCount: 2
Fore
SplineSet
228 304 m 2,0,-1
 216 304 l 1,1,-1
 216 1 l 1,2,-1
 71 1 l 1,3,-1
 71 701 l 1,4,-1
 293 701 l 2,5,6
 406 701 406 701 462 651.5 c 128,-1,7
 518 602 518 602 518 510 c 0,8,9
 518 454 518 454 479 407.5 c 128,-1,10
 440 361 440 361 384 354 c 1,11,12
 424 343 424 343 446 317.5 c 128,-1,13
 468 292 468 292 492 235 c 2,14,-1
 591 1 l 1,15,-1
 442 1 l 1,16,-1
 345 225 l 2,17,18
 324 273 324 273 300.5 288.5 c 128,-1,19
 277 304 277 304 228 304 c 2,0,-1
289 587 m 2,20,-1
 216 587 l 1,21,-1
 216 418 l 1,22,-1
 279 418 l 2,23,24
 319 418 319 418 341.5 444 c 128,-1,25
 364 470 364 470 364 508 c 0,26,27
 364 587 364 587 289 587 c 2,20,-1
EndSplineSet
EndChar

StartChar: S
Encoding: 83 83 55
Width: 551
GlyphClass: 2
Flags: W
LayerCount: 2
Fore
SplineSet
463 675 m 1,0,-1
 439 558 l 1,1,-1
 377 575 l 1,2,3
 311 590 311 590 262 590 c 0,4,5
 194 590 194 590 194 525 c 0,6,7
 194 500 194 500 217.5 479.5 c 128,-1,8
 241 459 241 459 277 445.5 c 128,-1,9
 313 432 313 432 354 412 c 128,-1,10
 395 392 395 392 431 369 c 128,-1,11
 467 346 467 346 490.5 306 c 128,-1,12
 514 266 514 266 514 214 c 0,13,14
 514 111 514 111 447.5 52.5 c 128,-1,15
 381 -6 381 -6 260 -6 c 0,16,17
 198 -6 198 -6 136.5 10.5 c 128,-1,18
 75 27 75 27 35 49 c 1,19,-1
 78 156 l 1,20,21
 170 114 170 114 260 114 c 0,22,23
 311 114 311 114 340 137.5 c 128,-1,24
 369 161 369 161 369 198 c 128,-1,25
 369 235 369 235 336 259.5 c 128,-1,26
 303 284 303 284 256 303.5 c 128,-1,27
 209 323 209 323 162 347.5 c 128,-1,28
 115 372 115 372 82 416.5 c 128,-1,29
 49 461 49 461 49 522 c 0,30,31
 49 613 49 613 106 661.5 c 128,-1,32
 163 710 163 710 259.5 710 c 128,-1,33
 356 710 356 710 463 675 c 1,0,-1
EndSplineSet
EndChar

StartChar: T
Encoding: 84 84 56
Width: 504
GlyphClass: 2
Flags: W
LayerCount: 2
Fore
SplineSet
181 0 m 1,0,-1
 181 583 l 1,1,-1
 20 583 l 1,2,-1
 20 700 l 1,3,-1
 484 700 l 1,4,-1
 484 583 l 1,5,-1
 325 583 l 1,6,-1
 325 0 l 1,7,-1
 181 0 l 1,0,-1
EndSplineSet
EndChar

StartChar: U
Encoding: 85 85 57
Width: 664
GlyphClass: 2
Flags: W
LayerCount: 2
Fore
SplineSet
332 -6 m 128,-1,1
 205 -6 205 -6 138 60.5 c 128,-1,2
 71 127 71 127 71 258 c 2,3,-1
 71 700 l 1,4,-1
 217 700 l 1,5,-1
 217 246 l 2,6,7
 217 180 217 180 246.5 144.5 c 128,-1,8
 276 109 276 109 331 109 c 128,-1,9
 386 109 386 109 416.5 144.5 c 128,-1,10
 447 180 447 180 447 246 c 2,11,-1
 447 700 l 1,12,-1
 593 700 l 1,13,-1
 593 258 l 2,14,15
 593 127 593 127 526 60.5 c 128,-1,0
 459 -6 459 -6 332 -6 c 128,-1,1
EndSplineSet
EndChar

StartChar: V
Encoding: 86 86 58
Width: 546
GlyphClass: 2
Flags: W
LayerCount: 2
Fore
SplineSet
553 700 m 1,0,-1
 347 0 l 1,1,-1
 182 0 l 1,2,-1
 -7 700 l 1,3,-1
 147 700 l 1,4,-1
 268 185 l 1,5,-1
 401 700 l 1,6,-1
 553 700 l 1,0,-1
EndSplineSet
EndChar

StartChar: W
Encoding: 87 87 59
Width: 751
GlyphClass: 2
Flags: W
LayerCount: 2
Fore
SplineSet
758 700 m 1,0,-1
 592 0 l 1,1,-1
 445 0 l 1,2,-1
 383 306 l 1,3,-1
 298 0 l 1,4,-1
 156 0 l 1,5,-1
 -7 700 l 1,6,-1
 149 700 l 1,7,-1
 231 185 l 1,8,-1
 314 510 l 1,9,-1
 450 510 l 1,10,-1
 523 185 l 1,11,-1
 609 700 l 1,12,-1
 758 700 l 1,0,-1
EndSplineSet
EndChar

StartChar: X
Encoding: 88 88 60
Width: 584
GlyphClass: 2
Flags: W
LayerCount: 2
Fore
SplineSet
584 0 m 1,0,-1
 422 0 l 1,1,-1
 294 245 l 1,2,-1
 161 0 l 1,3,-1
 0 0 l 1,4,-1
 222 368 l 1,5,-1
 21 700 l 1,6,-1
 186 700 l 1,7,-1
 297 494 l 1,8,-1
 413 700 l 1,9,-1
 573 700 l 1,10,-1
 369 368 l 1,11,-1
 584 0 l 1,0,-1
EndSplineSet
EndChar

StartChar: Y
Encoding: 89 89 61
Width: 552
GlyphClass: 2
Flags: W
LayerCount: 2
Fore
SplineSet
559 700 m 1,0,-1
 344 295 l 1,1,-1
 344 0 l 1,2,-1
 199 0 l 1,3,-1
 199 295 l 1,4,-1
 -7 700 l 1,5,-1
 146 700 l 1,6,-1
 273 426 l 1,7,-1
 408 700 l 1,8,-1
 559 700 l 1,0,-1
EndSplineSet
EndChar

StartChar: Z
Encoding: 90 90 62
Width: 508
GlyphClass: 2
Flags: W
LayerCount: 2
Fore
SplineSet
499 0 m 1,0,-1
 20 0 l 1,1,-1
 20 112 l 1,2,-1
 310 585 l 1,3,-1
 19 585 l 1,4,-1
 19 700 l 1,5,-1
 468 700 l 1,6,-1
 468 593 l 1,7,-1
 181 116 l 1,8,-1
 499 116 l 1,9,-1
 499 0 l 1,0,-1
EndSplineSet
EndChar

StartChar: bracketleft
Encoding: 91 91 63
Width: 340
GlyphClass: 2
Flags: W
LayerCount: 2
Fore
SplineSet
311 -200 m 1,0,-1
 81 -200 l 1,1,-1
 81 800 l 1,2,-1
 308 800 l 1,3,-1
 308 695 l 1,4,-1
 206 695 l 1,5,-1
 206 -96 l 1,6,-1
 311 -96 l 1,7,-1
 311 -200 l 1,0,-1
EndSplineSet
EndChar

StartChar: backslash
Encoding: 92 92 64
Width: 484
GlyphClass: 2
Flags: W
LayerCount: 2
Fore
SplineSet
323 -145 m 1,0,-1
 29 800 l 1,1,-1
 158 800 l 1,2,-1
 453 -145 l 1,3,-1
 323 -145 l 1,0,-1
EndSplineSet
EndChar

StartChar: bracketright
Encoding: 93 93 65
Width: 340
GlyphClass: 2
Flags: W
LayerCount: 2
Fore
SplineSet
259 -200 m 1,0,-1
 29 -200 l 1,1,-1
 29 -96 l 1,2,-1
 134 -96 l 1,3,-1
 134 695 l 1,4,-1
 32 695 l 1,5,-1
 32 800 l 1,6,-1
 259 800 l 1,7,-1
 259 -200 l 1,0,-1
EndSplineSet
EndChar

StartChar: asciicircum
Encoding: 94 94 66
Width: 639
GlyphClass: 2
Flags: W
LayerCount: 2
Fore
SplineSet
377 667 m 1,0,-1
 581 275 l 1,1,-1
 444 275 l 1,2,-1
 319 524 l 1,3,-1
 196 275 l 1,4,-1
 56 275 l 1,5,-1
 261 667 l 1,6,-1
 377 667 l 1,0,-1
EndSplineSet
EndChar

StartChar: underscore
Encoding: 95 95 67
Width: 430
GlyphClass: 2
Flags: W
LayerCount: 2
Fore
SplineSet
430 -236 m 1,0,-1
 0 -236 l 1,1,-1
 0 -131 l 1,2,-1
 430 -131 l 1,3,-1
 430 -236 l 1,0,-1
EndSplineSet
EndChar

StartChar: grave
Encoding: 96 96 68
Width: 391
GlyphClass: 2
Flags: W
LayerCount: 2
Fore
SplineSet
274 599 m 1,0,-1
 186 567 l 1,1,-1
 56 690 l 1,2,-1
 171 736 l 1,3,-1
 274 599 l 1,0,-1
EndSplineSet
EndChar

StartChar: a
Encoding: 97 97 69
Width: 503
GlyphClass: 2
Flags: W
LayerCount: 2
Fore
SplineSet
346 0 m 1,0,-1
 326 50 l 1,1,2
 291 18 291 18 264 5.5 c 128,-1,3
 237 -7 237 -7 199 -7 c 0,4,5
 135 -7 135 -7 87.5 37.5 c 128,-1,6
 40 82 40 82 40 156 c 128,-1,7
 40 230 40 230 98 272.5 c 128,-1,8
 156 315 156 315 273 315 c 2,9,-1
 314 315 l 1,10,11
 314 358 314 358 293.5 384 c 128,-1,12
 273 410 273 410 231 410 c 0,13,14
 158 410 158 410 83 390 c 1,15,-1
 61 478 l 1,16,17
 160 510 160 510 260 510 c 0,18,19
 442 510 442 510 442 340 c 2,20,-1
 442 0 l 1,21,-1
 346 0 l 1,0,-1
312 219 m 1,22,-1
 269 219 l 2,23,24
 213 219 213 219 193 204 c 128,-1,25
 173 189 173 189 173 160.5 c 128,-1,26
 173 132 173 132 188 114 c 128,-1,27
 203 96 203 96 227 96 c 0,28,29
 261 96 261 96 312 150 c 1,30,-1
 312 219 l 1,22,-1
EndSplineSet
EndChar

StartChar: b
Encoding: 98 98 70
Width: 540
GlyphClass: 2
Flags: W
LayerCount: 2
Fore
SplineSet
467.5 444.5 m 128,-1,1
 514 379 514 379 514 255.5 c 128,-1,2
 514 132 514 132 461 66 c 128,-1,3
 408 0 408 0 325 0 c 0,4,5
 261 0 261 0 199 56 c 1,6,-1
 180 0 l 1,7,-1
 81 0 l 1,8,-1
 81 700 l 1,9,-1
 211 700 l 1,10,-1
 211 454 l 1,11,12
 288 510 288 510 344 510 c 0,13,0
 421 510 421 510 467.5 444.5 c 128,-1,1
386 255 m 0,14,15
 386 394 386 394 302 394 c 0,16,17
 264 394 264 394 211 349 c 1,18,-1
 211 156 l 1,19,20
 264 111 264 111 301.5 111 c 128,-1,21
 339 111 339 111 362.5 147 c 128,-1,22
 386 183 386 183 386 255 c 0,14,15
EndSplineSet
EndChar

StartChar: c
Encoding: 99 99 71
Width: 430
GlyphClass: 2
Flags: W
LayerCount: 2
Fore
SplineSet
391 109 m 1,0,-1
 407 19 l 1,1,2
 320 -6 320 -6 269 -6 c 0,3,4
 145 -6 145 -6 90 59 c 128,-1,5
 35 124 35 124 35 248.5 c 128,-1,6
 35 373 35 373 92 441.5 c 128,-1,7
 149 510 149 510 258 510 c 0,8,9
 322 510 322 510 404 486 c 1,10,-1
 357 395 l 1,11,12
 302 412 302 412 266 412 c 128,-1,13
 230 412 230 412 209.5 398 c 128,-1,14
 189 384 189 384 180 358 c 0,15,16
 165 315 165 315 165 240.5 c 128,-1,17
 165 166 165 166 196 131 c 128,-1,18
 227 96 227 96 286 96 c 128,-1,19
 345 96 345 96 391 109 c 1,0,-1
EndSplineSet
EndChar

StartChar: d
Encoding: 100 100 72
Width: 542
GlyphClass: 2
Flags: W
LayerCount: 2
Fore
SplineSet
460 0 m 1,0,-1
 362 0 l 1,1,-1
 342 57 l 1,2,3
 258 -6 258 -6 189.5 -6 c 128,-1,4
 121 -6 121 -6 76.5 58.5 c 128,-1,5
 32 123 32 123 32 249.5 c 128,-1,6
 32 376 32 376 82.5 443 c 128,-1,7
 133 510 133 510 215 510 c 0,8,9
 269 510 269 510 331 460 c 1,10,-1
 331 700 l 1,11,-1
 460 700 l 1,12,-1
 460 0 l 1,0,-1
330 154 m 1,13,-1
 330 353 l 1,14,15
 277 397 277 397 241 397 c 128,-1,16
 205 397 205 397 183.5 360 c 128,-1,17
 162 323 162 323 162 250 c 0,18,19
 162 110 162 110 238 110 c 0,20,21
 277 110 277 110 330 154 c 1,13,-1
EndSplineSet
EndChar

StartChar: e
Encoding: 101 101 73
Width: 495
GlyphClass: 2
Flags: W
LayerCount: 2
Fore
SplineSet
445 31 m 1,0,1
 350 -6 350 -6 269 -6 c 0,2,3
 34 -6 34 -6 34 248 c 0,4,5
 34 377 34 377 91 443.5 c 128,-1,6
 148 510 148 510 257 510 c 0,7,8
 347 510 347 510 401 454 c 128,-1,9
 455 398 455 398 455 288 c 0,10,11
 455 244 455 244 451 211 c 1,12,-1
 162 211 l 1,13,14
 162 152 162 152 194 124 c 128,-1,15
 226 96 226 96 280 96 c 128,-1,16
 334 96 334 96 423 120 c 1,17,-1
 445 31 l 1,0,1
330 303 m 1,18,-1
 330 310 l 2,19,20
 330 356 330 356 310 384 c 128,-1,21
 290 412 290 412 247 412 c 128,-1,22
 204 412 204 412 183 381 c 128,-1,23
 162 350 162 350 161 303 c 1,24,-1
 330 303 l 1,18,-1
EndSplineSet
EndChar

StartChar: f
Encoding: 102 102 74
Width: 325
GlyphClass: 2
Flags: W
LayerCount: 2
Fore
SplineSet
330 701 m 1,0,-1
 313 608 l 1,1,2
 288 613 288 613 266.5 613 c 128,-1,3
 245 613 245 613 233 600 c 128,-1,4
 221 587 221 587 221 552 c 2,5,-1
 221 500 l 1,6,-1
 303 500 l 1,7,-1
 303 393 l 1,8,-1
 221 393 l 1,9,-1
 221 0 l 1,10,-1
 92 0 l 1,11,-1
 92 393 l 1,12,-1
 35 393 l 1,13,-1
 35 500 l 1,14,-1
 93 500 l 1,15,-1
 93 576 l 2,16,17
 93 640 93 640 129.5 675 c 128,-1,18
 166 710 166 710 230 710 c 128,-1,19
 294 710 294 710 330 701 c 1,0,-1
EndSplineSet
EndChar

StartChar: g
Encoding: 103 103 75
Width: 545
GlyphClass: 2
Flags: W
LayerCount: 2
Fore
SplineSet
344 -39 m 2,0,-1
 344 58 l 1,1,2
 259 -6 259 -6 190 -6 c 128,-1,3
 121 -6 121 -6 76.5 58.5 c 128,-1,4
 32 123 32 123 32 249.5 c 128,-1,5
 32 376 32 376 82.5 443 c 128,-1,6
 133 510 133 510 215 510 c 0,7,8
 272 510 272 510 335 459 c 1,9,-1
 354 500 l 1,10,-1
 465 500 l 1,11,-1
 465 -33 l 2,12,13
 465 -83 465 -83 448.5 -121.5 c 128,-1,14
 432 -160 432 -160 408.5 -181 c 128,-1,15
 385 -202 385 -202 354 -215 c 0,16,17
 305 -235 305 -235 249 -235 c 0,18,19
 136 -235 136 -235 52 -200 c 1,20,-1
 71 -108 l 1,21,22
 148 -132 148 -132 221 -132 c 0,23,24
 308 -132 308 -132 332 -90 c 0,25,26
 344 -70 344 -70 344 -39 c 2,0,-1
335 154 m 1,27,-1
 335 353 l 1,28,29
 282 397 282 397 243.5 397 c 128,-1,30
 205 397 205 397 183.5 360 c 128,-1,31
 162 323 162 323 162 250 c 0,32,33
 162 110 162 110 238 110 c 0,34,35
 282 110 282 110 335 154 c 1,27,-1
EndSplineSet
EndChar

StartChar: h
Encoding: 104 104 76
Width: 585
GlyphClass: 2
Flags: W
LayerCount: 2
Fore
SplineSet
504 0 m 1,0,-1
 374 0 l 1,1,-1
 374 299 l 2,2,3
 374 340 374 340 358 365.5 c 128,-1,4
 342 391 342 391 304 391 c 128,-1,5
 266 391 266 391 211 345 c 1,6,-1
 211 0 l 1,7,-1
 81 0 l 1,8,-1
 81 700 l 1,9,-1
 211 700 l 1,10,-1
 211 455 l 1,11,12
 254 487 254 487 285.5 498.5 c 128,-1,13
 317 510 317 510 359 510 c 0,14,15
 426 510 426 510 465 465.5 c 128,-1,16
 504 421 504 421 504 334 c 2,17,-1
 504 0 l 1,0,-1
EndSplineSet
EndChar

StartChar: i
Encoding: 105 105 77
Width: 284
GlyphClass: 2
Flags: W
LayerCount: 2
Fore
SplineSet
207 575 m 1,0,-1
 77 575 l 1,1,-1
 77 700 l 1,2,-1
 207 700 l 1,3,-1
 207 575 l 1,0,-1
207 0 m 1,4,-1
 77 0 l 1,5,-1
 77 500 l 1,6,-1
 207 500 l 1,7,-1
 207 0 l 1,4,-1
EndSplineSet
EndChar

StartChar: j
Encoding: 106 106 78
Width: 276
GlyphClass: 2
Flags: W
LayerCount: 2
Fore
SplineSet
30 -176 m 1,0,1
 71 -123 71 -123 71 -6 c 2,2,-1
 71 500 l 1,3,-1
 199 500 l 1,4,-1
 199 18 l 2,5,6
 199 -138 199 -138 107 -236 c 1,7,-1
 30 -176 l 1,0,1
200 575 m 1,8,-1
 70 575 l 1,9,-1
 70 700 l 1,10,-1
 200 700 l 1,11,-1
 200 575 l 1,8,-1
EndSplineSet
EndChar

StartChar: k
Encoding: 107 107 79
Width: 543
GlyphClass: 2
Flags: W
LayerCount: 2
Fore
SplineSet
81 700 m 1,0,-1
 211 700 l 1,1,-1
 211 319 l 1,2,-1
 367 500 l 1,3,-1
 514 500 l 1,4,-1
 331 296 l 1,5,-1
 530 0 l 1,6,-1
 389 0 l 1,7,-1
 254 216 l 1,8,-1
 211 166 l 1,9,-1
 211 0 l 1,10,-1
 81 0 l 1,11,-1
 81 700 l 1,0,-1
EndSplineSet
EndChar

StartChar: l
Encoding: 108 108 80
Width: 302
GlyphClass: 2
Flags: W
LayerCount: 2
Fore
SplineSet
211 0 m 1,0,-1
 81 0 l 1,1,-1
 81 700 l 1,2,-1
 211 700 l 1,3,-1
 211 0 l 1,0,-1
EndSplineSet
EndChar

StartChar: m
Encoding: 109 109 81
Width: 848
GlyphClass: 2
Flags: W
LayerCount: 2
Fore
SplineSet
212 0 m 1,0,-1
 81 0 l 1,1,-1
 81 500 l 1,2,-1
 191 500 l 1,3,-1
 208 455 l 1,4,5
 251 487 251 487 282.5 498.5 c 128,-1,6
 314 510 314 510 356 510 c 0,7,8
 432 510 432 510 467 441 c 1,9,10
 523 482 523 482 557.5 496 c 128,-1,11
 592 510 592 510 633 510 c 0,12,13
 695 510 695 510 731 464.5 c 128,-1,14
 767 419 767 419 767 331 c 2,15,-1
 767 0 l 1,16,-1
 636 0 l 1,17,-1
 636 296 l 2,18,19
 636 388 636 388 581 388 c 0,20,21
 540 388 540 388 487 342 c 1,22,-1
 487 0 l 1,23,-1
 357 0 l 1,24,-1
 357 296 l 2,25,26
 357 388 357 388 303 388 c 0,27,28
 263 388 263 388 212 345 c 1,29,-1
 212 0 l 1,0,-1
EndSplineSet
EndChar

StartChar: n
Encoding: 110 110 82
Width: 586
GlyphClass: 2
Flags: W
LayerCount: 2
Fore
SplineSet
505 0 m 1,0,-1
 373 0 l 1,1,-1
 373 299 l 2,2,3
 373 340 373 340 357 365.5 c 128,-1,4
 341 391 341 391 304 391 c 128,-1,5
 267 391 267 391 212 345 c 1,6,-1
 212 0 l 1,7,-1
 81 0 l 1,8,-1
 81 500 l 1,9,-1
 191 500 l 1,10,-1
 212 455 l 1,11,12
 255 487 255 487 286.5 498.5 c 128,-1,13
 318 510 318 510 360 510 c 0,14,15
 427 510 427 510 466 465.5 c 128,-1,16
 505 421 505 421 505 334 c 2,17,-1
 505 0 l 1,0,-1
EndSplineSet
EndChar

StartChar: o
Encoding: 111 111 83
Width: 527
GlyphClass: 2
Flags: W
LayerCount: 2
Fore
SplineSet
433 61 m 128,-1,1
 372 -7 372 -7 260 -7 c 128,-1,2
 148 -7 148 -7 90 61 c 128,-1,3
 32 129 32 129 32 250 c 128,-1,4
 32 371 32 371 90 440.5 c 128,-1,5
 148 510 148 510 257 510 c 128,-1,6
 366 510 366 510 430 439.5 c 128,-1,7
 494 369 494 369 494 249 c 128,-1,0
 494 129 494 129 433 61 c 128,-1,1
361 251 m 0,8,9
 361 404 361 404 263 404 c 0,10,11
 163 404 163 404 163 252 c 128,-1,12
 163 100 163 100 264 100 c 0,13,14
 318 100 318 100 339.5 138.5 c 128,-1,15
 361 177 361 177 361 251 c 0,8,9
EndSplineSet
EndChar

StartChar: p
Encoding: 112 112 84
Width: 546
GlyphClass: 2
Flags: W
LayerCount: 2
Fore
SplineSet
211 -237 m 1,0,-1
 81 -237 l 1,1,-1
 81 500 l 1,2,-1
 180 500 l 1,3,-1
 204 447 l 1,4,5
 241 478 241 478 271.5 494 c 128,-1,6
 302 510 302 510 340 510 c 0,7,8
 423 510 423 510 466.5 441 c 128,-1,9
 510 372 510 372 510 248 c 128,-1,10
 510 124 510 124 454 58.5 c 128,-1,11
 398 -7 398 -7 322 -7 c 0,12,13
 267 -7 267 -7 211 41 c 1,14,-1
 211 -237 l 1,0,-1
211 346 m 1,15,-1
 211 163 l 1,16,17
 243 111 243 111 290.5 111 c 128,-1,18
 338 111 338 111 356.5 145 c 128,-1,19
 375 179 375 179 375 249 c 128,-1,20
 375 319 375 319 355 357 c 128,-1,21
 335 395 335 395 305 395 c 0,22,23
 262 395 262 395 211 346 c 1,15,-1
EndSplineSet
EndChar

StartChar: q
Encoding: 113 113 85
Width: 542
GlyphClass: 2
Flags: W
LayerCount: 2
Fore
SplineSet
331 158 m 1,0,-1
 331 349 l 1,1,2
 317 367 317 367 287.5 381 c 128,-1,3
 258 395 258 395 226 395 c 0,4,5
 162 395 162 395 162 255 c 0,6,7
 162 147 162 147 203 120 c 0,8,9
 221 108 221 108 246.5 108 c 128,-1,10
 272 108 272 108 295 121.5 c 128,-1,11
 318 135 318 135 331 158 c 1,0,-1
331 46 m 1,12,13
 278 -7 278 -7 205 -7 c 128,-1,14
 132 -7 132 -7 82 52 c 128,-1,15
 32 111 32 111 32 236 c 128,-1,16
 32 361 32 361 78.5 435.5 c 128,-1,17
 125 510 125 510 225 510 c 0,18,19
 281 510 281 510 336 453 c 1,20,-1
 362 500 l 1,21,-1
 461 500 l 1,22,-1
 461 -236 l 1,23,-1
 331 -236 l 1,24,-1
 331 46 l 1,12,13
EndSplineSet
EndChar

StartChar: r
Encoding: 114 114 86
Width: 391
GlyphClass: 2
Flags: W
LayerCount: 2
Fore
SplineSet
212 332 m 1,0,-1
 212 0 l 1,1,-1
 81 0 l 1,2,-1
 81 500 l 1,3,-1
 185 500 l 1,4,-1
 197 451 l 1,5,6
 237 483 237 483 264 496.5 c 128,-1,7
 291 510 291 510 311.5 510 c 128,-1,8
 332 510 332 510 339 509.5 c 128,-1,9
 346 509 346 509 351 508 c 128,-1,10
 356 507 356 507 368 504 c 1,11,-1
 356 385 l 1,12,13
 338 391 338 391 307 391 c 0,14,15
 265 391 265 391 212 332 c 1,0,-1
EndSplineSet
EndChar

StartChar: s
Encoding: 115 115 87
Width: 444
GlyphClass: 2
Flags: W
LayerCount: 2
Fore
SplineSet
72 133 m 1,0,1
 139 99 139 99 209.5 99 c 128,-1,2
 280 99 280 99 280 151 c 0,3,4
 280 199 280 199 200 222 c 0,5,6
 166 231 166 231 132.5 243.5 c 128,-1,7
 99 256 99 256 75.5 284.5 c 128,-1,8
 52 313 52 313 52 358 c 0,9,10
 52 431 52 431 97 470.5 c 128,-1,11
 142 510 142 510 222.5 510 c 128,-1,12
 303 510 303 510 375 482 c 1,13,-1
 354 378 l 1,14,15
 288 405 288 405 225 405 c 0,16,17
 181 405 181 405 181 375 c 0,18,19
 181 344 181 344 240 328 c 0,20,21
 302 312 302 312 350 282 c 0,22,23
 375 267 375 267 392 237 c 128,-1,24
 409 207 409 207 409 165 c 0,25,26
 409 86 409 86 356 40 c 128,-1,27
 303 -6 303 -6 210 -6 c 128,-1,28
 117 -6 117 -6 44 37 c 1,29,-1
 72 133 l 1,0,1
EndSplineSet
EndChar

StartChar: t
Encoding: 116 116 88
Width: 346
GlyphClass: 2
Flags: W
LayerCount: 2
Fore
SplineSet
76 108 m 2,0,-1
 76 390 l 1,1,-1
 25 390 l 1,2,-1
 25 500 l 1,3,-1
 77 500 l 1,4,-1
 77 643 l 1,5,-1
 206 643 l 1,6,-1
 206 500 l 1,7,-1
 311 500 l 1,8,-1
 311 390 l 1,9,-1
 205 390 l 1,10,-1
 205 172 l 2,11,12
 205 105 205 105 246 105 c 0,13,14
 269 105 269 105 295 111 c 1,15,-1
 316 7 l 1,16,17
 270 -6 270 -6 218.5 -6 c 128,-1,18
 167 -6 167 -6 121.5 20.5 c 128,-1,19
 76 47 76 47 76 108 c 2,0,-1
EndSplineSet
EndChar

StartChar: u
Encoding: 117 117 89
Width: 576
GlyphClass: 2
Flags: W
LayerCount: 2
Fore
SplineSet
71 500 m 1,0,-1
 203 500 l 1,1,-1
 203 194 l 2,2,3
 203 153 203 153 219 127.5 c 128,-1,4
 235 102 235 102 272 102 c 128,-1,5
 309 102 309 102 364 148 c 1,6,-1
 364 500 l 1,7,-1
 495 500 l 1,8,-1
 495 0 l 1,9,-1
 385 0 l 1,10,-1
 364 48 l 1,11,12
 321 16 321 16 289.5 5 c 128,-1,13
 258 -6 258 -6 216 -6 c 0,14,15
 149 -6 149 -6 110 38 c 128,-1,16
 71 82 71 82 71 169 c 2,17,-1
 71 500 l 1,0,-1
EndSplineSet
EndChar

StartChar: v
Encoding: 118 118 90
Width: 465
GlyphClass: 2
Flags: W
LayerCount: 2
Fore
SplineSet
464 500 m 1,0,-1
 305 0 l 1,1,-1
 159 0 l 1,2,-1
 1 500 l 1,3,-1
 136 500 l 1,4,-1
 233 130 l 1,5,-1
 331 500 l 1,6,-1
 464 500 l 1,0,-1
EndSplineSet
EndChar

StartChar: w
Encoding: 119 119 91
Width: 689
GlyphClass: 2
Flags: W
LayerCount: 2
Fore
SplineSet
127 0 m 1,0,-1
 1 500 l 1,1,-1
 129 500 l 1,2,-1
 200 129 l 1,3,-1
 283 500 l 1,4,-1
 407 500 l 1,5,-1
 491 125 l 1,6,-1
 560 500 l 1,7,-1
 688 500 l 1,8,-1
 564 0 l 1,9,-1
 421 0 l 1,10,-1
 345 335 l 1,11,-1
 268 0 l 1,12,-1
 127 0 l 1,0,-1
EndSplineSet
EndChar

StartChar: x
Encoding: 120 120 92
Width: 456
GlyphClass: 2
Flags: W
LayerCount: 2
Fore
SplineSet
153 500 m 1,0,-1
 228 364 l 1,1,-1
 303 500 l 1,2,-1
 436 500 l 1,3,-1
 296 255 l 1,4,-1
 442 0 l 1,5,-1
 309 0 l 1,6,-1
 228 158 l 1,7,-1
 147 0 l 1,8,-1
 14 0 l 1,9,-1
 160 255 l 1,10,-1
 20 500 l 1,11,-1
 153 500 l 1,0,-1
EndSplineSet
EndChar

StartChar: y
Encoding: 121 121 93
Width: 455
GlyphClass: 2
Flags: W
LayerCount: 2
Fore
SplineSet
165 -10 m 1,0,-1
 1 500 l 1,1,-1
 131 500 l 1,2,-1
 228 155 l 1,3,-1
 326 500 l 1,4,-1
 454 500 l 1,5,-1
 287 0 l 2,6,7
 256 -92 256 -92 209 -147 c 128,-1,8
 162 -202 162 -202 91 -236 c 1,9,-1
 43 -144 l 1,10,11
 83 -127 83 -127 118 -92.5 c 128,-1,12
 153 -58 153 -58 165 -10 c 1,0,-1
EndSplineSet
EndChar

StartChar: z
Encoding: 122 122 94
Width: 421
GlyphClass: 2
Flags: W
LayerCount: 2
Fore
SplineSet
39 500 m 1,0,-1
 366 500 l 1,1,-1
 366 400 l 1,2,-1
 173 105 l 1,3,-1
 378 105 l 1,4,-1
 378 0 l 1,5,-1
 39 0 l 1,6,-1
 39 100 l 1,7,-1
 231 395 l 1,8,-1
 39 395 l 1,9,-1
 39 500 l 1,0,-1
EndSplineSet
EndChar

StartChar: braceleft
Encoding: 123 123 95
Width: 356
GlyphClass: 2
Flags: W
LayerCount: 2
Fore
SplineSet
97 145 m 2,0,1
 97 248 97 248 20 248 c 1,2,-1
 20 354 l 1,3,4
 64 354 64 354 80.5 377.5 c 128,-1,5
 97 401 97 401 97 451 c 2,6,-1
 97 601 l 2,7,8
 97 801 97 801 305 801 c 2,9,-1
 336 801 l 1,10,-1
 336 697 l 1,11,-1
 306 697 l 2,12,13
 259 697 259 697 242.5 674 c 128,-1,14
 226 651 226 651 226 591 c 2,15,-1
 226 438 l 2,16,17
 226 369 226 369 212 343 c 128,-1,18
 198 317 198 317 150 304 c 1,19,20
 194 295 194 295 210 265 c 128,-1,21
 226 235 226 235 226 172 c 2,22,-1
 226 21 l 2,23,24
 226 -49 226 -49 244 -73 c 128,-1,25
 262 -97 262 -97 309 -97 c 2,26,-1
 336 -97 l 1,27,-1
 336 -201 l 1,28,-1
 303 -201 l 2,29,30
 204 -201 204 -201 150.5 -156 c 128,-1,31
 97 -111 97 -111 97 -5 c 2,32,-1
 97 145 l 2,0,1
EndSplineSet
EndChar

StartChar: bar
Encoding: 124 124 96
Width: 291
GlyphClass: 2
Flags: W
LayerCount: 2
Fore
SplineSet
203 -203 m 1,0,-1
 88 -203 l 1,1,-1
 88 800 l 1,2,-1
 203 800 l 1,3,-1
 203 -203 l 1,0,-1
EndSplineSet
EndChar

StartChar: braceright
Encoding: 125 125 97
Width: 356
GlyphClass: 2
Flags: W
LayerCount: 2
Fore
SplineSet
259 455 m 2,0,1
 259 352 259 352 336 352 c 1,2,-1
 336 246 l 1,3,4
 292 246 292 246 275.5 222.5 c 128,-1,5
 259 199 259 199 259 149 c 2,6,-1
 259 -1 l 2,7,8
 259 -201 259 -201 51 -201 c 2,9,-1
 20 -201 l 1,10,-1
 20 -97 l 1,11,-1
 50 -97 l 2,12,13
 97 -97 97 -97 113.5 -74 c 128,-1,14
 130 -51 130 -51 130 9 c 2,15,-1
 130 162 l 2,16,17
 130 231 130 231 144 257 c 128,-1,18
 158 283 158 283 206 296 c 1,19,20
 162 305 162 305 146 335 c 128,-1,21
 130 365 130 365 130 428 c 2,22,-1
 130 579 l 2,23,24
 130 649 130 649 112 673 c 128,-1,25
 94 697 94 697 47 697 c 2,26,-1
 20 697 l 1,27,-1
 20 801 l 1,28,-1
 53 801 l 2,29,30
 152 801 152 801 205.5 756 c 128,-1,31
 259 711 259 711 259 605 c 2,32,-1
 259 455 l 2,0,1
EndSplineSet
EndChar

StartChar: asciitilde
Encoding: 126 126 98
Width: 527
GlyphClass: 2
Flags: W
LayerCount: 2
Fore
SplineSet
493 283 m 1,0,1
 472 244 472 244 435.5 222.5 c 128,-1,2
 399 201 399 201 354.5 201 c 128,-1,3
 310 201 310 201 256 230.5 c 128,-1,4
 202 260 202 260 166 260 c 128,-1,5
 130 260 130 260 89 221 c 1,6,-1
 44 303 l 1,7,8
 65 334 65 334 99 355 c 128,-1,9
 133 376 133 376 175 376 c 128,-1,10
 217 376 217 376 271 346 c 128,-1,11
 325 316 325 316 361 316 c 128,-1,12
 397 316 397 316 438 352 c 1,13,-1
 493 283 l 1,0,1
EndSplineSet
EndChar

StartChar: exclamdown
Encoding: 161 161 100
Width: 266
GlyphClass: 2
Flags: W
LayerCount: 2
Fore
SplineSet
203 469 m 1,0,-1
 73 469 l 1,1,-1
 73 594 l 1,2,-1
 203 594 l 1,3,-1
 203 469 l 1,0,-1
203 -106 m 1,4,-1
 73 -106 l 1,5,-1
 73 404 l 1,6,-1
 203 404 l 1,7,-1
 203 -106 l 1,4,-1
EndSplineSet
EndChar

StartChar: cent
Encoding: 162 162 101
Width: 381
GlyphClass: 2
Flags: W
LayerCount: 2
Fore
SplineSet
325 213 m 1,0,-1
 348 110 l 1,1,2
 292 92 292 92 243 92 c 1,3,-1
 243 0 l 1,4,-1
 138 0 l 1,5,-1
 138 94 l 1,6,7
 24 130 24 130 24 303 c 128,-1,8
 24 476 24 476 138 509 c 1,9,-1
 138 606 l 1,10,-1
 243 606 l 1,11,-1
 243 510 l 1,12,13
 290 510 290 510 349 491 c 1,14,-1
 318 391 l 1,15,16
 279 404 279 404 230.5 404 c 128,-1,17
 182 404 182 404 160.5 382 c 128,-1,18
 139 360 139 360 139 304.5 c 128,-1,19
 139 249 139 249 158.5 223.5 c 128,-1,20
 178 198 178 198 223 198 c 128,-1,21
 268 198 268 198 325 213 c 1,0,-1
EndSplineSet
EndChar

StartChar: sterling
Encoding: 163 163 102
Width: 540
GlyphClass: 2
Flags: W
LayerCount: 2
Fore
SplineSet
233 415 m 1,0,-1
 390 415 l 1,1,-1
 390 305 l 1,2,-1
 233 305 l 1,3,-1
 233 115 l 1,4,-1
 495 115 l 1,5,-1
 495 0 l 1,6,-1
 108 0 l 1,7,-1
 108 305 l 1,8,-1
 40 305 l 1,9,-1
 40 415 l 1,10,-1
 108 415 l 1,11,-1
 108 596 l 2,12,13
 108 657 108 657 152.5 684 c 128,-1,14
 197 711 197 711 251 711 c 128,-1,15
 305 711 305 711 365 692 c 1,16,-1
 344 583 l 1,17,18
 314 594 314 594 275 594 c 0,19,20
 256 594 256 594 244.5 576 c 128,-1,21
 233 558 233 558 233 524 c 2,22,-1
 233 415 l 1,0,-1
EndSplineSet
EndChar

StartChar: currency
Encoding: 164 164 103
Width: 608
GlyphClass: 2
Flags: W
LayerCount: 2
Fore
SplineSet
420 81 m 1,0,1
 374 61 374 61 300 61 c 128,-1,2
 226 61 226 61 181 85 c 1,3,-1
 126 30 l 1,4,-1
 41 116 l 1,5,-1
 99 174 l 1,6,7
 76 225 76 225 76 291.5 c 128,-1,8
 76 358 76 358 94 409 c 1,9,-1
 35 469 l 1,10,-1
 128 562 l 1,11,-1
 182 508 l 1,12,13
 225 529 225 529 300.5 529 c 128,-1,14
 376 529 376 529 426 501 c 1,15,-1
 489 564 l 1,16,-1
 575 478 l 1,17,-1
 509 412 l 1,18,19
 534 366 534 366 534 297 c 128,-1,20
 534 228 534 228 511 177 c 1,21,-1
 573 115 l 1,22,-1
 480 22 l 1,23,-1
 420 81 l 1,0,1
384 387 m 128,-1,25
 354 424 354 424 301.5 424 c 128,-1,26
 249 424 249 424 222.5 386.5 c 128,-1,27
 196 349 196 349 196 293 c 128,-1,28
 196 237 196 237 225 201.5 c 128,-1,29
 254 166 254 166 304.5 166 c 128,-1,30
 355 166 355 166 384.5 199 c 128,-1,31
 414 232 414 232 414 291 c 128,-1,24
 414 350 414 350 384 387 c 128,-1,25
EndSplineSet
EndChar

StartChar: yen
Encoding: 165 165 104
Width: 610
GlyphClass: 2
Flags: W
LayerCount: 2
Fore
SplineSet
546 216 m 1,0,-1
 373 216 l 1,1,-1
 373 169 l 1,2,-1
 546 169 l 1,3,-1
 546 64 l 1,4,-1
 373 64 l 1,5,-1
 373 0 l 1,6,-1
 228 0 l 1,7,-1
 228 64 l 1,8,-1
 77 64 l 1,9,-1
 77 169 l 1,10,-1
 228 169 l 1,11,-1
 228 216 l 1,12,-1
 77 216 l 1,13,-1
 77 321 l 1,14,-1
 215 321 l 1,15,-1
 22 700 l 1,16,-1
 175 700 l 1,17,-1
 302 426 l 1,18,-1
 437 700 l 1,19,-1
 588 700 l 1,20,-1
 387 321 l 1,21,-1
 546 321 l 1,22,-1
 546 216 l 1,0,-1
EndSplineSet
EndChar

StartChar: brokenbar
Encoding: 166 166 105
Width: 291
GlyphClass: 2
Flags: W
LayerCount: 2
Fore
SplineSet
203 413 m 1,0,-1
 88 413 l 1,1,-1
 88 800 l 1,2,-1
 203 800 l 1,3,-1
 203 413 l 1,0,-1
88 201 m 1,4,-1
 203 201 l 1,5,-1
 203 -203 l 1,6,-1
 88 -203 l 1,7,-1
 88 201 l 1,4,-1
EndSplineSet
EndChar

StartChar: section
Encoding: 167 167 106
Width: 604
GlyphClass: 2
Flags: W
LayerCount: 2
Fore
SplineSet
246 386 m 1,0,1
 201 348 201 348 201 317 c 128,-1,2
 201 286 201 286 227.5 268.5 c 128,-1,3
 254 251 254 251 303 234 c 128,-1,4
 352 217 352 217 373 205 c 1,5,6
 375 207 375 207 378.5 211 c 128,-1,7
 382 215 382 215 383.5 216.5 c 128,-1,8
 385 218 385 218 388 222 c 128,-1,9
 391 226 391 226 392 228.5 c 128,-1,10
 393 231 393 231 394.5 235 c 128,-1,11
 396 239 396 239 397 243 c 0,12,13
 399 251 399 251 399 264 c 0,14,15
 399 294 399 294 378.5 313.5 c 128,-1,16
 358 333 358 333 310 354.5 c 128,-1,17
 262 376 262 376 246 386 c 1,0,1
137 -9 m 1,18,19
 211 -52 211 -52 288 -52 c 128,-1,20
 365 -52 365 -52 365 2 c 0,21,22
 365 42 365 42 333.5 71.5 c 128,-1,23
 302 101 302 101 256.5 120.5 c 128,-1,24
 211 140 211 140 165.5 161.5 c 128,-1,25
 120 183 120 183 88 221 c 128,-1,26
 56 259 56 259 56 312 c 0,27,28
 56 397 56 397 165 477 c 1,29,30
 138 514 138 514 138 562 c 0,31,32
 138 638 138 638 186 674 c 128,-1,33
 234 710 234 710 333 710 c 0,34,35
 402 710 402 710 465 690 c 1,36,-1
 485 683 l 1,37,-1
 468 581 l 1,38,39
 401 605 401 605 331 605 c 0,40,41
 313 605 313 605 298.5 593.5 c 128,-1,42
 284 582 284 582 284 555.5 c 128,-1,43
 284 529 284 529 310.5 503 c 128,-1,44
 337 477 337 477 375.5 456 c 128,-1,45
 414 435 414 435 452 411.5 c 128,-1,46
 490 388 490 388 517 350.5 c 128,-1,47
 544 313 544 313 544 266 c 128,-1,48
 544 219 544 219 525 187 c 128,-1,49
 506 155 506 155 458 117 c 1,50,51
 510 71 510 71 510 1 c 128,-1,52
 510 -69 510 -69 449 -113 c 128,-1,53
 388 -157 388 -157 280 -157 c 0,54,55
 239 -157 239 -157 189 -144 c 128,-1,56
 139 -131 139 -131 108 -114 c 1,57,-1
 137 -9 l 1,18,19
EndSplineSet
EndChar

StartChar: dieresis
Encoding: 168 168 107
Width: 513
GlyphClass: 2
Flags: W
LayerCount: 2
Fore
SplineSet
78 694 m 1,0,-1
 78 825 l 1,1,-1
 199 825 l 1,2,-1
 199 694 l 1,3,-1
 78 694 l 1,0,-1
297 694 m 1,4,-1
 297 825 l 1,5,-1
 418 825 l 1,6,-1
 418 694 l 1,7,-1
 297 694 l 1,4,-1
EndSplineSet
EndChar

StartChar: copyright
Encoding: 169 169 108
Width: 551
GlyphClass: 2
Flags: W
LayerCount: 2
Fore
SplineSet
351 192 m 1,0,-1
 366 123 l 1,1,2
 319 109 319 109 281 109 c 0,3,4
 216 109 216 109 183.5 148 c 128,-1,5
 151 187 151 187 151 255.5 c 128,-1,6
 151 324 151 324 184.5 360 c 128,-1,7
 218 396 218 396 284 396 c 0,8,9
 312 396 312 396 327 392 c 0,10,11
 357 382 357 382 369 378 c 1,12,-1
 343 313 l 1,13,14
 324 322 324 322 293.5 322 c 128,-1,15
 263 322 263 322 252.5 308 c 128,-1,16
 242 294 242 294 242 259 c 0,17,18
 242 182 242 182 290 182 c 0,19,20
 322 182 322 182 351 192 c 1,0,-1
270 459 m 128,-1,22
 200 459 200 459 165.5 402 c 128,-1,23
 131 345 131 345 131 254 c 128,-1,24
 131 163 131 163 169.5 107 c 128,-1,25
 208 51 208 51 275.5 51 c 128,-1,26
 343 51 343 51 381 104 c 128,-1,27
 419 157 419 157 419 250.5 c 128,-1,28
 419 344 419 344 379.5 401.5 c 128,-1,21
 340 459 340 459 270 459 c 128,-1,22
272 -19 m 128,-1,30
 162 -19 162 -19 104 54 c 128,-1,31
 46 127 46 127 46 255 c 128,-1,32
 46 383 46 383 102 456 c 128,-1,33
 158 529 158 529 268 529 c 128,-1,34
 378 529 378 529 441 455 c 128,-1,35
 504 381 504 381 504 254.5 c 128,-1,36
 504 128 504 128 443 54.5 c 128,-1,29
 382 -19 382 -19 272 -19 c 128,-1,30
EndSplineSet
EndChar

StartChar: ordfeminine
Encoding: 170 170 109
Width: 363
GlyphClass: 2
Flags: W
LayerCount: 2
Fore
SplineSet
180 560 m 1,0,-1
 206 559 l 1,1,2
 206 600 206 600 197.5 611 c 128,-1,3
 189 622 189 622 146.5 622 c 128,-1,4
 104 622 104 622 62 608 c 1,5,-1
 53 682 l 1,6,7
 110 700 110 700 172 700 c 0,8,9
 305 700 305 700 305 588 c 2,10,-1
 305 361 l 1,11,-1
 227 361 l 1,12,-1
 211 379 l 1,13,14
 177 358 177 358 134.5 358 c 128,-1,15
 92 358 92 358 64.5 384 c 128,-1,16
 37 410 37 410 37 453 c 0,17,18
 37 560 37 560 180 560 c 1,0,-1
203 485 m 1,19,-1
 170 485 l 2,20,21
 150 485 150 485 143 478.5 c 128,-1,22
 136 472 136 472 136 453.5 c 128,-1,23
 136 435 136 435 152 435 c 0,24,25
 177 435 177 435 203 450 c 1,26,-1
 203 485 l 1,19,-1
308 234 m 1,27,-1
 39 234 l 1,28,-1
 39 318 l 1,29,-1
 308 318 l 1,30,-1
 308 234 l 1,27,-1
EndSplineSet
EndChar

StartChar: guillemotleft
Encoding: 171 171 110
Width: 511
GlyphClass: 2
Flags: W
LayerCount: 2
Fore
SplineSet
273 115 m 1,0,-1
 177 72 l 1,1,-1
 39 296 l 1,2,-1
 178 522 l 1,3,-1
 273 479 l 1,4,-1
 175 298 l 1,5,-1
 273 115 l 1,0,-1
458 125 m 1,6,-1
 362 82 l 1,7,-1
 234 296 l 1,8,-1
 363 512 l 1,9,-1
 458 469 l 1,10,-1
 370 298 l 1,11,-1
 458 125 l 1,6,-1
EndSplineSet
EndChar

StartChar: logicalnot
Encoding: 172 172 111
Width: 518
GlyphClass: 2
Flags: W
LayerCount: 2
Fore
SplineSet
487 125 m 1,0,-1
 362 125 l 1,1,-1
 362 249 l 1,2,-1
 18 249 l 1,3,-1
 18 354 l 1,4,-1
 487 354 l 1,5,-1
 487 125 l 1,0,-1
EndSplineSet
EndChar

StartChar: uni00AD
Encoding: 173 173 112
Width: 400
GlyphClass: 2
Flags: W
LayerCount: 2
Fore
SplineSet
400 237 m 1,0,-1
 0 237 l 1,1,-1
 0 342 l 1,2,-1
 400 342 l 1,3,-1
 400 237 l 1,0,-1
EndSplineSet
EndChar

StartChar: registered
Encoding: 174 174 113
Width: 551
GlyphClass: 2
Flags: W
LayerCount: 2
Fore
SplineSet
375 584 m 128,-1,1
 336 642 336 642 270.5 642 c 128,-1,2
 205 642 205 642 173 585 c 128,-1,3
 141 528 141 528 141 437 c 128,-1,4
 141 346 141 346 177 290 c 128,-1,5
 213 234 213 234 276 234 c 128,-1,6
 339 234 339 234 376.5 287.5 c 128,-1,7
 414 341 414 341 414 433.5 c 128,-1,0
 414 526 414 526 375 584 c 128,-1,1
272 164 m 128,-1,9
 167 164 167 164 111.5 237 c 128,-1,10
 56 310 56 310 56 438 c 128,-1,11
 56 566 56 566 109.5 639 c 128,-1,12
 163 712 163 712 268.5 712 c 128,-1,13
 374 712 374 712 434 638 c 128,-1,14
 494 564 494 564 494 437.5 c 128,-1,15
 494 311 494 311 435.5 237.5 c 128,-1,8
 377 164 377 164 272 164 c 128,-1,9
273 426 m 2,16,-1
 261 426 l 1,17,-1
 261 305 l 1,18,-1
 186 305 l 1,19,-1
 186 584 l 1,20,-1
 272 584 l 2,21,22
 367 584 367 584 367 512 c 0,23,24
 367 489 367 489 355.5 469 c 128,-1,25
 344 449 344 449 329 447 c 1,26,27
 345 442 345 442 352 433.5 c 128,-1,28
 359 425 359 425 367 399 c 1,29,-1
 381 305 l 1,30,-1
 315 305 l 1,31,-1
 301 384 l 2,32,33
 294 426 294 426 273 426 c 2,16,-1
273 528 m 2,34,-1
 261 528 l 1,35,-1
 261 485 l 1,36,-1
 272 485 l 2,37,38
 297 485 297 485 297 512 c 0,39,40
 297 528 297 528 273 528 c 2,34,-1
EndSplineSet
EndChar

StartChar: macron
Encoding: 175 175 114
Width: 497
GlyphClass: 2
Flags: W
LayerCount: 2
Fore
SplineSet
68 594 m 1,0,-1
 68 699 l 1,1,-1
 425 699 l 1,2,-1
 425 594 l 1,3,-1
 68 594 l 1,0,-1
EndSplineSet
EndChar

StartChar: degree
Encoding: 176 176 115
Width: 452
GlyphClass: 2
Flags: W
LayerCount: 2
Fore
SplineSet
343.5 728 m 128,-1,1
 392 680 392 680 392 610.5 c 128,-1,2
 392 541 392 541 343 492.5 c 128,-1,3
 294 444 294 444 224.5 444 c 128,-1,4
 155 444 155 444 106.5 492 c 128,-1,5
 58 540 58 540 58 609.5 c 128,-1,6
 58 679 58 679 107 727.5 c 128,-1,7
 156 776 156 776 225.5 776 c 128,-1,0
 295 776 295 776 343.5 728 c 128,-1,1
278.5 554.5 m 128,-1,9
 301 578 301 578 301 611.5 c 128,-1,10
 301 645 301 645 278.5 668.5 c 128,-1,11
 256 692 256 692 224 692 c 128,-1,12
 192 692 192 692 169.5 668.5 c 128,-1,13
 147 645 147 645 147 611.5 c 128,-1,14
 147 578 147 578 169.5 554.5 c 128,-1,15
 192 531 192 531 224 531 c 128,-1,8
 256 531 256 531 278.5 554.5 c 128,-1,9
EndSplineSet
EndChar

StartChar: plusminus
Encoding: 177 177 116
Width: 503
GlyphClass: 2
Flags: W
LayerCount: 2
Fore
SplineSet
468 337 m 1,0,-1
 305 337 l 1,1,-1
 305 164 l 1,2,-1
 190 164 l 1,3,-1
 190 337 l 1,4,-1
 36 337 l 1,5,-1
 36 442 l 1,6,-1
 190 442 l 1,7,-1
 190 622 l 1,8,-1
 305 622 l 1,9,-1
 305 442 l 1,10,-1
 468 442 l 1,11,-1
 468 337 l 1,0,-1
468 -1 m 1,12,-1
 36 -1 l 1,13,-1
 36 104 l 1,14,-1
 468 104 l 1,15,-1
 468 -1 l 1,12,-1
EndSplineSet
EndChar

StartChar: twosuperior
Encoding: 178 178 117
Width: 436
GlyphClass: 2
Flags: W
LayerCount: 2
Fore
SplineSet
350 400 m 1,0,-1
 341 323 l 1,1,-1
 91 323 l 1,2,-1
 91 385 l 1,3,4
 147 436 147 436 172 460 c 0,5,6
 236 523 236 523 236 563 c 0,7,8
 236 589 236 589 195 589 c 0,9,10
 153 589 153 589 116 578 c 1,11,-1
 103 575 l 1,12,-1
 110 645 l 1,13,14
 164 662 164 662 219 662 c 128,-1,15
 274 662 274 662 304 640.5 c 128,-1,16
 334 619 334 619 334 579 c 128,-1,17
 334 539 334 539 310 498.5 c 128,-1,18
 286 458 286 458 226 400 c 1,19,-1
 350 400 l 1,0,-1
EndSplineSet
EndChar

StartChar: threesuperior
Encoding: 179 179 118
Width: 425
GlyphClass: 2
Flags: W
LayerCount: 2
Fore
SplineSet
131 525 m 1,0,-1
 182 525 l 2,1,2
 238 525 238 525 238 557 c 0,3,4
 238 573 238 573 227.5 578.5 c 128,-1,5
 217 584 217 584 192 584 c 0,6,7
 151 584 151 584 118 564 c 2,8,-1
 107 557 l 1,9,-1
 95 633 l 1,10,11
 141 662 141 662 201 662 c 128,-1,12
 261 662 261 662 293.5 637 c 128,-1,13
 326 612 326 612 326 569 c 0,14,15
 326 542 326 542 312 522.5 c 128,-1,16
 298 503 298 503 276 498 c 1,17,18
 303 494 303 494 320.5 473.5 c 128,-1,19
 338 453 338 453 338 424 c 0,20,21
 338 374 338 374 299 346 c 128,-1,22
 260 318 260 318 191 318 c 0,23,24
 163 318 163 318 136.5 325 c 128,-1,25
 110 332 110 332 98 340 c 2,26,-1
 86 347 l 1,27,-1
 101 420 l 1,28,29
 134 398 134 398 190.5 398 c 128,-1,30
 247 398 247 398 247 429 c 0,31,32
 247 452 247 452 180 452 c 2,33,-1
 131 452 l 1,34,-1
 131 525 l 1,0,-1
EndSplineSet
EndChar

StartChar: acute
Encoding: 180 180 119
Width: 404
GlyphClass: 2
Flags: W
LayerCount: 2
Fore
SplineSet
179 567 m 1,0,-1
 91 599 l 1,1,-1
 194 736 l 1,2,-1
 309 690 l 1,3,-1
 179 567 l 1,0,-1
EndSplineSet
EndChar

StartChar: mu
Encoding: 181 181 120
AltUni2: 0003bc.ffffffff.0
Width: 558
GlyphClass: 2
Flags: W
LayerCount: 2
Fore
SplineSet
82 500 m 1,0,-1
 214 500 l 1,1,-1
 214 194 l 2,2,3
 214 102 214 102 269 102 c 0,4,5
 306 102 306 102 355 148 c 1,6,-1
 355 500 l 1,7,-1
 486 500 l 1,8,-1
 486 0 l 1,9,-1
 376 0 l 1,10,-1
 355 48 l 1,11,12
 315 16 315 16 285 5 c 128,-1,13
 255 -6 255 -6 214 -6 c 1,14,-1
 214 -236 l 1,15,-1
 82 -236 l 1,16,-1
 82 500 l 1,0,-1
EndSplineSet
EndChar

StartChar: paragraph
Encoding: 182 182 121
Width: 599
GlyphClass: 2
Flags: W
LayerCount: 2
Fore
SplineSet
328 -203 m 1,0,-1
 223 -203 l 1,1,-1
 223 358 l 1,2,3
 145 358 145 358 97.5 408 c 128,-1,4
 50 458 50 458 50 531 c 128,-1,5
 50 604 50 604 103.5 657 c 128,-1,6
 157 710 157 710 269 710 c 2,7,-1
 554 710 l 1,8,-1
 554 600 l 1,9,-1
 489 600 l 1,10,-1
 489 -203 l 1,11,-1
 384 -203 l 1,12,-1
 384 600 l 1,13,-1
 328 600 l 1,14,-1
 328 -203 l 1,0,-1
EndSplineSet
EndChar

StartChar: periodcentered
Encoding: 183 183 122
Width: 181
GlyphClass: 2
Flags: W
LayerCount: 2
Fore
SplineSet
148 231 m 1,0,-1
 33 231 l 1,1,-1
 33 367 l 1,2,-1
 148 367 l 1,3,-1
 148 231 l 1,0,-1
EndSplineSet
EndChar

StartChar: cedilla
Encoding: 184 184 123
Width: 377
GlyphClass: 2
Flags: W
LayerCount: 2
Fore
SplineSet
292 0 m 1,0,1
 292 -48 292 -48 280.5 -80 c 128,-1,2
 269 -112 269 -112 229 -177 c 1,3,-1
 140 -146 l 1,4,5
 166 -93 166 -93 173.5 -68.5 c 128,-1,6
 181 -44 181 -44 181 0 c 1,7,-1
 292 0 l 1,0,1
EndSplineSet
EndChar

StartChar: onesuperior
Encoding: 185 185 124
Width: 378
GlyphClass: 2
Flags: W
LayerCount: 2
Fore
SplineSet
66 316 m 1,0,-1
 66 394 l 1,1,-1
 136 394 l 1,2,-1
 136 570 l 1,3,-1
 63 523 l 1,4,-1
 33 599 l 1,5,-1
 136 662 l 1,6,-1
 226 662 l 1,7,-1
 226 394 l 1,8,-1
 296 394 l 1,9,-1
 296 316 l 1,10,-1
 66 316 l 1,0,-1
EndSplineSet
EndChar

StartChar: ordmasculine
Encoding: 186 186 125
Width: 370
GlyphClass: 2
Flags: W
LayerCount: 2
Fore
SplineSet
311 234 m 1,0,-1
 52 234 l 1,1,-1
 52 318 l 1,2,-1
 311 318 l 1,3,-1
 311 234 l 1,0,-1
182 620 m 0,4,5
 162 620 162 620 151.5 594 c 128,-1,6
 141 568 141 568 141 528 c 0,7,8
 141 438 141 438 181 438 c 0,9,10
 224 438 224 438 224 529 c 128,-1,11
 224 620 224 620 182 620 c 0,4,5
181 700 m 0,12,13
 324 700 324 700 324 529 c 128,-1,14
 324 358 324 358 179 358 c 0,15,16
 109 358 109 358 75 403.5 c 128,-1,17
 41 449 41 449 41 524.5 c 128,-1,18
 41 600 41 600 75.5 650 c 128,-1,19
 110 700 110 700 181 700 c 0,12,13
EndSplineSet
EndChar

StartChar: guillemotright
Encoding: 187 187 126
Width: 511
GlyphClass: 2
Flags: W
LayerCount: 2
Fore
SplineSet
333 72 m 1,0,-1
 237 115 l 1,1,-1
 335 298 l 1,2,-1
 237 479 l 1,3,-1
 332 522 l 1,4,-1
 471 296 l 1,5,-1
 333 72 l 1,0,-1
148 82 m 1,6,-1
 52 125 l 1,7,-1
 140 298 l 1,8,-1
 52 469 l 1,9,-1
 147 512 l 1,10,-1
 276 296 l 1,11,-1
 148 82 l 1,6,-1
EndSplineSet
EndChar

StartChar: onequarter
Encoding: 188 188 127
Width: 884
GlyphClass: 2
Flags: W
LayerCount: 2
Fore
SplineSet
609 346 m 1,0,-1
 708 346 l 1,1,-1
 593 131 l 1,2,-1
 672 131 l 1,3,-1
 672 236 l 1,4,-1
 763 236 l 1,5,-1
 763 130 l 1,6,-1
 811 130 l 1,7,-1
 811 51 l 1,8,-1
 763 51 l 1,9,-1
 763 0 l 1,10,-1
 672 0 l 1,11,-1
 672 51 l 1,12,-1
 489 51 l 1,13,-1
 489 122 l 1,14,-1
 609 346 l 1,0,-1
66 316 m 1,15,-1
 66 394 l 1,16,-1
 136 394 l 1,17,-1
 136 570 l 1,18,-1
 63 523 l 1,19,-1
 33 599 l 1,20,-1
 136 662 l 1,21,-1
 226 662 l 1,22,-1
 226 394 l 1,23,-1
 296 394 l 1,24,-1
 296 316 l 1,25,-1
 66 316 l 1,15,-1
676 688 m 1,26,-1
 288 0 l 1,27,-1
 150 0 l 1,28,-1
 538 688 l 1,29,-1
 676 688 l 1,26,-1
EndSplineSet
EndChar

StartChar: onehalf
Encoding: 189 189 128
Width: 816
GlyphClass: 2
Flags: W
LayerCount: 2
Fore
SplineSet
66 316 m 1,0,-1
 66 394 l 1,1,-1
 136 394 l 1,2,-1
 136 570 l 1,3,-1
 63 523 l 1,4,-1
 33 599 l 1,5,-1
 136 662 l 1,6,-1
 226 662 l 1,7,-1
 226 394 l 1,8,-1
 296 394 l 1,9,-1
 296 316 l 1,10,-1
 66 316 l 1,0,-1
676 688 m 1,11,-1
 288 0 l 1,12,-1
 150 0 l 1,13,-1
 538 688 l 1,14,-1
 676 688 l 1,11,-1
772 77 m 1,15,-1
 763 0 l 1,16,-1
 513 0 l 1,17,-1
 513 62 l 1,18,19
 569 113 569 113 594 138 c 0,20,21
 658 200 658 200 658 240 c 0,22,23
 658 266 658 266 617 266 c 0,24,25
 575 266 575 266 538 256 c 1,26,-1
 525 252 l 1,27,-1
 532 322 l 1,28,29
 586 339 586 339 641 339 c 128,-1,30
 696 339 696 339 726 317.5 c 128,-1,31
 756 296 756 296 756 256 c 128,-1,32
 756 216 756 216 732 175.5 c 128,-1,33
 708 135 708 135 648 77 c 1,34,-1
 772 77 l 1,15,-1
EndSplineSet
EndChar

StartChar: threequarters
Encoding: 190 190 129
Width: 886
GlyphClass: 2
Flags: W
LayerCount: 2
Fore
SplineSet
609 346 m 1,0,-1
 708 346 l 1,1,-1
 593 131 l 1,2,-1
 672 131 l 1,3,-1
 672 236 l 1,4,-1
 763 236 l 1,5,-1
 763 130 l 1,6,-1
 811 130 l 1,7,-1
 811 51 l 1,8,-1
 763 51 l 1,9,-1
 763 0 l 1,10,-1
 672 0 l 1,11,-1
 672 51 l 1,12,-1
 489 51 l 1,13,-1
 489 122 l 1,14,-1
 609 346 l 1,0,-1
676 688 m 1,15,-1
 288 0 l 1,16,-1
 150 0 l 1,17,-1
 538 688 l 1,18,-1
 676 688 l 1,15,-1
117 525 m 1,19,-1
 168 525 l 2,20,21
 224 525 224 525 224 557 c 0,22,23
 224 573 224 573 213.5 578.5 c 128,-1,24
 203 584 203 584 178 584 c 0,25,26
 137 584 137 584 104 564 c 2,27,-1
 93 557 l 1,28,-1
 81 633 l 1,29,30
 127 662 127 662 187 662 c 128,-1,31
 247 662 247 662 279.5 637 c 128,-1,32
 312 612 312 612 312 569 c 0,33,34
 312 542 312 542 298 522.5 c 128,-1,35
 284 503 284 503 262 498 c 1,36,37
 289 494 289 494 306.5 473.5 c 128,-1,38
 324 453 324 453 324 424 c 0,39,40
 324 374 324 374 285 346 c 128,-1,41
 246 318 246 318 177 318 c 0,42,43
 149 318 149 318 122.5 325 c 128,-1,44
 96 332 96 332 84 340 c 2,45,-1
 72 347 l 1,46,-1
 87 420 l 1,47,48
 120 398 120 398 176.5 398 c 128,-1,49
 233 398 233 398 233 429 c 0,50,51
 233 452 233 452 166 452 c 2,52,-1
 117 452 l 1,53,-1
 117 525 l 1,19,-1
EndSplineSet
EndChar

StartChar: questiondown
Encoding: 191 191 130
Width: 463
GlyphClass: 2
Flags: W
LayerCount: 2
Fore
SplineSet
106 200 m 0,0,1
 128 222 128 222 150 242 c 1,2,3
 201 292 201 292 201 351 c 2,4,-1
 201 414 l 1,5,-1
 325 414 l 1,6,-1
 325 356 l 2,7,8
 325 270 325 270 274 215 c 0,9,10
 252 192 252 192 231 172 c 0,11,12
 180 122 180 122 180 68 c 128,-1,13
 180 14 180 14 248 14 c 128,-1,14
 316 14 316 14 372 33 c 1,15,-1
 393 -75 l 1,16,17
 307 -102 307 -102 230 -102 c 128,-1,18
 153 -102 153 -102 104 -58.5 c 128,-1,19
 55 -15 55 -15 55 65.5 c 128,-1,20
 55 146 55 146 106 200 c 0,0,1
202 608 m 1,21,-1
 327 608 l 1,22,-1
 327 470 l 1,23,-1
 202 470 l 1,24,-1
 202 608 l 1,21,-1
EndSplineSet
EndChar

StartChar: Agrave
Encoding: 192 192 131
Width: 579
GlyphClass: 2
Flags: W
LayerCount: 2
Fore
SplineSet
586 0 m 1,0,-1
 442 0 l 1,1,-1
 392 171 l 1,2,-1
 181 171 l 1,3,-1
 132 0 l 1,4,-1
 -7 0 l 1,5,-1
 203 700 l 1,6,-1
 374 700 l 1,7,-1
 586 0 l 1,0,-1
365 286 m 1,8,-1
 288 574 l 1,9,-1
 210 286 l 1,10,-1
 365 286 l 1,8,-1
338 753 m 1,11,-1
 227 753 l 1,12,-1
 129 877 l 1,13,-1
 263 877 l 1,14,-1
 338 753 l 1,11,-1
EndSplineSet
EndChar

StartChar: Aacute
Encoding: 193 193 132
Width: 579
GlyphClass: 2
Flags: W
LayerCount: 2
Fore
SplineSet
586 0 m 1,0,-1
 442 0 l 1,1,-1
 392 171 l 1,2,-1
 181 171 l 1,3,-1
 132 0 l 1,4,-1
 -7 0 l 1,5,-1
 203 700 l 1,6,-1
 374 700 l 1,7,-1
 586 0 l 1,0,-1
365 286 m 1,8,-1
 288 574 l 1,9,-1
 210 286 l 1,10,-1
 365 286 l 1,8,-1
229 752 m 1,11,-1
 304 876 l 1,12,-1
 438 876 l 1,13,-1
 340 752 l 1,14,-1
 229 752 l 1,11,-1
EndSplineSet
EndChar

StartChar: Aring
Encoding: 197 197 136
Width: 579
GlyphClass: 2
Flags: W
LayerCount: 2
Fore
SplineSet
586 0 m 1,0,-1
 442 0 l 1,1,-1
 392 171 l 1,2,-1
 181 171 l 1,3,-1
 132 0 l 1,4,-1
 -7 0 l 1,5,-1
 203 700 l 1,6,-1
 374 700 l 1,7,-1
 586 0 l 1,0,-1
365 286 m 1,8,-1
 288 574 l 1,9,-1
 210 286 l 1,10,-1
 365 286 l 1,8,-1
289 972 m 128,-1,12
 349 972 349 972 380.5 941.5 c 128,-1,13
 412 911 412 911 412 861 c 128,-1,14
 412 811 412 811 382 781.5 c 128,-1,15
 352 752 352 752 290 752 c 128,-1,16
 228 752 228 752 198 781.5 c 128,-1,17
 168 811 168 811 168 861 c 128,-1,18
 168 911 168 911 198.5 941.5 c 128,-1,11
 229 972 229 972 289 972 c 128,-1,12
290 903 m 0,19,20
 254 903 254 903 254 863 c 128,-1,21
 254 823 254 823 290 823 c 0,22,23
 328 823 328 823 328 863 c 128,-1,24
 328 903 328 903 290 903 c 0,19,20
EndSplineSet
EndChar

StartChar: AE
Encoding: 198 198 137
Width: 852
GlyphClass: 2
Flags: W
LayerCount: 2
Fore
SplineSet
797 0 m 1,0,-1
 390 0 l 1,1,-1
 390 171 l 1,2,-1
 205 171 l 1,3,-1
 132 0 l 1,4,-1
 -7 0 l 1,5,-1
 291 700 l 1,6,-1
 797 700 l 1,7,-1
 797 585 l 1,8,-1
 525 585 l 1,9,-1
 525 438 l 1,10,-1
 772 438 l 1,11,-1
 772 321 l 1,12,-1
 525 321 l 1,13,-1
 525 115 l 1,14,-1
 797 115 l 1,15,-1
 797 0 l 1,0,-1
380 584 m 1,16,-1
 250 286 l 1,17,-1
 390 286 l 1,18,-1
 390 584 l 1,19,-1
 380 584 l 1,16,-1
798 0 m 1,20,-1
 381 0 l 1,21,-1
 381 700 l 1,22,-1
 798 700 l 1,23,-1
 798 585 l 1,24,-1
 526 585 l 1,25,-1
 526 438 l 1,26,-1
 773 438 l 1,27,-1
 773 321 l 1,28,-1
 526 321 l 1,29,-1
 526 115 l 1,30,-1
 798 115 l 1,31,-1
 798 0 l 1,20,-1
EndSplineSet
EndChar

StartChar: Ccedilla
Encoding: 199 199 138
Width: 584
GlyphClass: 2
Flags: W
LayerCount: 2
Fore
SplineSet
96.5 109.5 m 128,-1,1
 30 203 30 203 30 360 c 128,-1,2
 30 517 30 517 116.5 613 c 128,-1,3
 203 709 203 709 357 709 c 0,4,5
 441 709 441 709 524 680 c 1,6,-1
 496 568 l 1,7,8
 435 594 435 594 352 594 c 128,-1,9
 269 594 269 594 222 531 c 128,-1,10
 175 468 175 468 175 357 c 128,-1,11
 175 246 175 246 219 177.5 c 128,-1,12
 263 109 263 109 343 109 c 0,13,14
 403 109 403 109 514 148 c 1,15,-1
 544 46 l 1,16,17
 476 7 476 7 399 -2 c 1,18,19
 398 -49 398 -49 386.5 -81 c 128,-1,20
 375 -113 375 -113 336 -177 c 1,21,-1
 247 -146 l 1,22,23
 273 -93 273 -93 280.5 -69 c 128,-1,24
 288 -45 288 -45 288 -2 c 1,25,0
 163 16 163 16 96.5 109.5 c 128,-1,1
EndSplineSet
EndChar

StartChar: Egrave
Encoding: 200 200 139
Width: 542
GlyphClass: 2
Flags: W
LayerCount: 2
Fore
SplineSet
488 0 m 1,0,-1
 71 0 l 1,1,-1
 71 700 l 1,2,-1
 488 700 l 1,3,-1
 488 585 l 1,4,-1
 216 585 l 1,5,-1
 216 438 l 1,6,-1
 463 438 l 1,7,-1
 463 321 l 1,8,-1
 216 321 l 1,9,-1
 216 115 l 1,10,-1
 488 115 l 1,11,-1
 488 0 l 1,0,-1
355 753 m 1,12,-1
 244 753 l 1,13,-1
 146 877 l 1,14,-1
 280 877 l 1,15,-1
 355 753 l 1,12,-1
EndSplineSet
EndChar

StartChar: Eacute
Encoding: 201 201 140
Width: 542
GlyphClass: 2
Flags: W
LayerCount: 2
Fore
SplineSet
488 0 m 1,0,-1
 71 0 l 1,1,-1
 71 700 l 1,2,-1
 488 700 l 1,3,-1
 488 585 l 1,4,-1
 216 585 l 1,5,-1
 216 438 l 1,6,-1
 463 438 l 1,7,-1
 463 321 l 1,8,-1
 216 321 l 1,9,-1
 216 115 l 1,10,-1
 488 115 l 1,11,-1
 488 0 l 1,0,-1
190 752 m 1,12,-1
 265 876 l 1,13,-1
 399 876 l 1,14,-1
 301 752 l 1,15,-1
 190 752 l 1,12,-1
EndSplineSet
EndChar

StartChar: Edieresis
Encoding: 203 203 142
Width: 542
GlyphClass: 2
Flags: W
LayerCount: 2
Fore
SplineSet
488 0 m 1,0,-1
 71 0 l 1,1,-1
 71 700 l 1,2,-1
 488 700 l 1,3,-1
 488 585 l 1,4,-1
 216 585 l 1,5,-1
 216 438 l 1,6,-1
 463 438 l 1,7,-1
 463 321 l 1,8,-1
 216 321 l 1,9,-1
 216 115 l 1,10,-1
 488 115 l 1,11,-1
 488 0 l 1,0,-1
106 740 m 1,12,-1
 106 871 l 1,13,-1
 227 871 l 1,14,-1
 227 740 l 1,15,-1
 106 740 l 1,12,-1
325 740 m 1,16,-1
 325 871 l 1,17,-1
 446 871 l 1,18,-1
 446 740 l 1,19,-1
 325 740 l 1,16,-1
EndSplineSet
EndChar

StartChar: Igrave
Encoding: 204 204 143
Width: 257
GlyphClass: 2
Flags: W
LayerCount: 2
Fore
SplineSet
201 0 m 1,0,-1
 56 0 l 1,1,-1
 56 700 l 1,2,-1
 201 700 l 1,3,-1
 201 0 l 1,0,-1
185 753 m 1,4,-1
 74 753 l 1,5,-1
 -24 877 l 1,6,-1
 110 877 l 1,7,-1
 185 753 l 1,4,-1
EndSplineSet
EndChar

StartChar: Iacute
Encoding: 205 205 144
Width: 257
GlyphClass: 2
Flags: W
LayerCount: 2
Fore
SplineSet
201 0 m 1,0,-1
 56 0 l 1,1,-1
 56 700 l 1,2,-1
 201 700 l 1,3,-1
 201 0 l 1,0,-1
73 753 m 1,4,-1
 148 877 l 1,5,-1
 282 877 l 1,6,-1
 184 753 l 1,7,-1
 73 753 l 1,4,-1
EndSplineSet
EndChar

StartChar: Eth
Encoding: 208 208 147
Width: 676
GlyphClass: 2
Flags: W
LayerCount: 2
Fore
SplineSet
646 375 m 0,0,1
 646 206 646 206 548 103 c 128,-1,2
 450 0 450 0 286 0 c 2,3,-1
 100 0 l 1,4,-1
 100 297 l 1,5,-1
 16 297 l 1,6,-1
 16 402 l 1,7,-1
 100 402 l 1,8,-1
 100 700 l 1,9,-1
 317 700 l 2,10,11
 466 700 466 700 556 609 c 128,-1,12
 646 518 646 518 646 375 c 0,0,1
495 383 m 0,13,14
 495 477 495 477 444 531 c 128,-1,15
 393 585 393 585 321 585 c 2,16,-1
 241 585 l 1,17,-1
 241 402 l 1,18,-1
 396 402 l 1,19,-1
 396 297 l 1,20,-1
 241 297 l 1,21,-1
 241 115 l 1,22,-1
 295 115 l 2,23,24
 379 115 379 115 437 186.5 c 128,-1,25
 495 258 495 258 495 383 c 0,13,14
EndSplineSet
EndChar

StartChar: Ntilde
Encoding: 209 209 148
Width: 679
GlyphClass: 2
Flags: W
LayerCount: 2
Fore
SplineSet
608 -1 m 1,0,-1
 456 -1 l 1,1,-1
 219 430 l 1,2,-1
 219 0 l 1,3,-1
 71 0 l 1,4,-1
 71 700 l 1,5,-1
 219 700 l 1,6,-1
 463 248 l 1,7,-1
 463 700 l 1,8,-1
 608 700 l 1,9,-1
 608 -1 l 1,0,-1
456 881 m 1,10,-1
 519 834 l 1,11,12
 518 829 518 829 498 807.5 c 128,-1,13
 478 786 478 786 447.5 764 c 128,-1,14
 417 742 417 742 393.5 742 c 128,-1,15
 370 742 370 742 318 767.5 c 128,-1,16
 266 793 266 793 256 793 c 128,-1,17
 246 793 246 793 230.5 782.5 c 128,-1,18
 215 772 215 772 205 761 c 2,19,-1
 195 750 l 1,20,-1
 138 806 l 1,21,22
 146 816 146 816 158.5 830 c 128,-1,23
 171 844 171 844 203 867.5 c 128,-1,24
 235 891 235 891 259 891 c 128,-1,25
 283 891 283 891 334 865.5 c 128,-1,26
 385 840 385 840 395.5 840 c 128,-1,27
 406 840 406 840 421 850 c 128,-1,28
 436 860 436 860 446 870 c 2,29,-1
 456 881 l 1,10,-1
EndSplineSet
EndChar

StartChar: Ograve
Encoding: 210 210 149
Width: 648
GlyphClass: 2
Flags: W
LayerCount: 2
Fore
SplineSet
323 -5 m 0,0,1
 422 -5 422 -5 491 45 c 0,2,3
 622 140 622 140 622 355 c 0,4,5
 622 512 622 512 546 611 c 128,-1,6
 470 710 470 710 323.5 710 c 128,-1,7
 177 710 177 710 101.5 611 c 128,-1,8
 26 512 26 512 26 355 c 128,-1,9
 26 198 26 198 101 96.5 c 128,-1,10
 176 -5 176 -5 323 -5 c 0,0,1
325 595 m 0,11,12
 396 595 396 595 436.5 525 c 128,-1,13
 477 455 477 455 477 353.5 c 128,-1,14
 477 252 477 252 439 181.5 c 128,-1,15
 401 111 401 111 325.5 111 c 128,-1,16
 250 111 250 111 211 180.5 c 128,-1,17
 172 250 172 250 172 355 c 0,18,19
 172 494 172 494 236 558 c 0,20,21
 272 595 272 595 325 595 c 0,11,12
361 753 m 1,22,-1
 250 753 l 1,23,-1
 152 877 l 1,24,-1
 286 877 l 1,25,-1
 361 753 l 1,22,-1
EndSplineSet
EndChar

StartChar: Oacute
Encoding: 211 211 150
Width: 648
GlyphClass: 2
Flags: W
LayerCount: 2
Fore
SplineSet
323 -5 m 0,0,1
 422 -5 422 -5 491 45 c 0,2,3
 622 140 622 140 622 355 c 0,4,5
 622 512 622 512 546 611 c 128,-1,6
 470 710 470 710 323.5 710 c 128,-1,7
 177 710 177 710 101.5 611 c 128,-1,8
 26 512 26 512 26 355 c 128,-1,9
 26 198 26 198 101 96.5 c 128,-1,10
 176 -5 176 -5 323 -5 c 0,0,1
325 595 m 0,11,12
 396 595 396 595 436.5 525 c 128,-1,13
 477 455 477 455 477 353.5 c 128,-1,14
 477 252 477 252 439 181.5 c 128,-1,15
 401 111 401 111 325.5 111 c 128,-1,16
 250 111 250 111 211 180.5 c 128,-1,17
 172 250 172 250 172 355 c 0,18,19
 172 494 172 494 236 558 c 0,20,21
 272 595 272 595 325 595 c 0,11,12
251 753 m 1,22,-1
 326 877 l 1,23,-1
 460 877 l 1,24,-1
 362 753 l 1,25,-1
 251 753 l 1,22,-1
EndSplineSet
EndChar

StartChar: Ocircumflex
Encoding: 212 212 151
Width: 648
GlyphClass: 2
Flags: W
LayerCount: 2
Fore
SplineSet
323 -5 m 0,0,1
 176 -5 176 -5 101 96.5 c 128,-1,2
 26 198 26 198 26 355 c 128,-1,3
 26 512 26 512 101.5 611 c 128,-1,4
 177 710 177 710 323.5 710 c 128,-1,5
 470 710 470 710 546 611 c 128,-1,6
 622 512 622 512 622 355 c 0,7,8
 622 140 622 140 491 45 c 0,9,10
 422 -5 422 -5 323 -5 c 0,0,1
325 595 m 0,11,12
 272 595 272 595 236 558 c 0,13,14
 172 494 172 494 172 355 c 0,15,16
 172 250 172 250 211 180.5 c 128,-1,17
 250 111 250 111 325.5 111 c 128,-1,18
 401 111 401 111 439 181.5 c 128,-1,19
 477 252 477 252 477 353.5 c 128,-1,20
 477 455 477 455 436.5 525 c 128,-1,21
 396 595 396 595 325 595 c 0,11,12
281 893 m 1,22,-1
 368 893 l 1,23,-1
 494 803 l 1,24,-1
 450 739 l 1,25,-1
 324 804 l 1,26,-1
 197 739 l 1,27,-1
 153 803 l 1,28,-1
 281 893 l 1,22,-1
EndSplineSet
EndChar

StartChar: Otilde
Encoding: 213 213 152
Width: 648
GlyphClass: 2
Flags: W
LayerCount: 2
Fore
SplineSet
323 -5 m 0,0,1
 422 -5 422 -5 491 45 c 0,2,3
 622 140 622 140 622 355 c 0,4,5
 622 512 622 512 546 611 c 128,-1,6
 470 710 470 710 323.5 710 c 128,-1,7
 177 710 177 710 101.5 611 c 128,-1,8
 26 512 26 512 26 355 c 128,-1,9
 26 198 26 198 101 96.5 c 128,-1,10
 176 -5 176 -5 323 -5 c 0,0,1
325 595 m 0,11,12
 396 595 396 595 436.5 525 c 128,-1,13
 477 455 477 455 477 353.5 c 128,-1,14
 477 252 477 252 439 181.5 c 128,-1,15
 401 111 401 111 325.5 111 c 128,-1,16
 250 111 250 111 211 180.5 c 128,-1,17
 172 250 172 250 172 355 c 0,18,19
 172 494 172 494 236 558 c 0,20,21
 272 595 272 595 325 595 c 0,11,12
460 875 m 1,22,-1
 523 828 l 1,23,24
 522 823 522 823 502 801.5 c 128,-1,25
 482 780 482 780 451.5 758 c 128,-1,26
 421 736 421 736 397.5 736 c 128,-1,27
 374 736 374 736 322 761.5 c 128,-1,28
 270 787 270 787 260 787 c 128,-1,29
 250 787 250 787 234.5 776.5 c 128,-1,30
 219 766 219 766 209 755 c 2,31,-1
 199 744 l 1,32,-1
 142 800 l 1,33,34
 150 810 150 810 162.5 824 c 128,-1,35
 175 838 175 838 207 861.5 c 128,-1,36
 239 885 239 885 263 885 c 128,-1,37
 287 885 287 885 338 859.5 c 128,-1,38
 389 834 389 834 399.5 834 c 128,-1,39
 410 834 410 834 425 844 c 128,-1,40
 440 854 440 854 450 864 c 2,41,-1
 460 875 l 1,22,-1
EndSplineSet
EndChar

StartChar: Odieresis
Encoding: 214 214 153
Width: 648
GlyphClass: 2
Flags: W
LayerCount: 2
Fore
SplineSet
323 -5 m 0,0,1
 422 -5 422 -5 491 45 c 0,2,3
 622 140 622 140 622 355 c 0,4,5
 622 512 622 512 546 611 c 128,-1,6
 470 710 470 710 323.5 710 c 128,-1,7
 177 710 177 710 101.5 611 c 128,-1,8
 26 512 26 512 26 355 c 128,-1,9
 26 198 26 198 101 96.5 c 128,-1,10
 176 -5 176 -5 323 -5 c 0,0,1
325 595 m 0,11,12
 396 595 396 595 436.5 525 c 128,-1,13
 477 455 477 455 477 353.5 c 128,-1,14
 477 252 477 252 439 181.5 c 128,-1,15
 401 111 401 111 325.5 111 c 128,-1,16
 250 111 250 111 211 180.5 c 128,-1,17
 172 250 172 250 172 355 c 0,18,19
 172 494 172 494 236 558 c 0,20,21
 272 595 272 595 325 595 c 0,11,12
154 739 m 1,22,-1
 154 870 l 1,23,-1
 275 870 l 1,24,-1
 275 739 l 1,25,-1
 154 739 l 1,22,-1
373 739 m 1,26,-1
 373 870 l 1,27,-1
 494 870 l 1,28,-1
 494 739 l 1,29,-1
 373 739 l 1,26,-1
EndSplineSet
EndChar

StartChar: multiply
Encoding: 215 215 154
Width: 608
GlyphClass: 2
Flags: W
LayerCount: 2
Fore
SplineSet
555 463 m 1,0,-1
 388 296 l 1,1,-1
 553 130 l 1,2,-1
 465 42 l 1,3,-1
 300 208 l 1,4,-1
 141 50 l 1,5,-1
 61 131 l 1,6,-1
 219 289 l 1,7,-1
 55 454 l 1,8,-1
 143 542 l 1,9,-1
 307 377 l 1,10,-1
 474 544 l 1,11,-1
 555 463 l 1,0,-1
EndSplineSet
EndChar

StartChar: Oslash
Encoding: 216 216 155
Width: 648
GlyphClass: 2
Flags: W
LayerCount: 2
Fore
SplineSet
323 -5 m 0,0,1
 290 -5 290 -5 251 2 c 1,2,-1
 210 -109 l 1,3,-1
 102 -109 l 1,4,-1
 157 42 l 1,5,6
 92 88 92 88 59 170 c 128,-1,7
 26 252 26 252 26 355 c 0,8,9
 26 512 26 512 101.5 611 c 128,-1,10
 177 710 177 710 323 710 c 0,11,12
 362 710 362 710 400 702 c 1,13,-1
 436 800 l 1,14,-1
 545 800 l 1,15,-1
 493 660 l 1,16,17
 557 615 557 615 589.5 535.5 c 128,-1,18
 622 456 622 456 622 355 c 128,-1,19
 622 254 622 254 591 174.5 c 128,-1,20
 560 95 560 95 491 45 c 128,-1,21
 422 -5 422 -5 323 -5 c 0,0,1
325 599 m 0,22,23
 270 599 270 599 234 562 c 0,24,25
 168 496 168 496 168 355 c 0,26,27
 168 241 168 241 210 174 c 1,28,-1
 363 593 l 1,29,30
 345 599 345 599 325 599 c 0,22,23
324 107 m 0,31,32
 377 107 377 107 414 143 c 0,33,34
 481 210 481 210 481 360 c 0,35,36
 481 459 481 459 440 527 c 1,37,-1
 287 112 l 1,38,39
 301 107 301 107 324 107 c 0,31,32
EndSplineSet
EndChar

StartChar: Ugrave
Encoding: 217 217 156
Width: 664
GlyphClass: 2
Flags: W
LayerCount: 2
Fore
SplineSet
332 -6 m 128,-1,1
 459 -6 459 -6 526 60.5 c 128,-1,2
 593 127 593 127 593 258 c 2,3,-1
 593 700 l 1,4,-1
 447 700 l 1,5,-1
 447 246 l 2,6,7
 447 180 447 180 416.5 144.5 c 128,-1,8
 386 109 386 109 331 109 c 128,-1,9
 276 109 276 109 246.5 144.5 c 128,-1,10
 217 180 217 180 217 246 c 2,11,-1
 217 700 l 1,12,-1
 71 700 l 1,13,-1
 71 258 l 2,14,15
 71 127 71 127 138 60.5 c 128,-1,0
 205 -6 205 -6 332 -6 c 128,-1,1
392 754 m 1,16,-1
 281 754 l 1,17,-1
 183 878 l 1,18,-1
 317 878 l 1,19,-1
 392 754 l 1,16,-1
EndSplineSet
EndChar

StartChar: Uacute
Encoding: 218 218 157
Width: 664
GlyphClass: 2
Flags: W
LayerCount: 2
Fore
SplineSet
332 -6 m 128,-1,1
 459 -6 459 -6 526 60.5 c 128,-1,2
 593 127 593 127 593 258 c 2,3,-1
 593 700 l 1,4,-1
 447 700 l 1,5,-1
 447 246 l 2,6,7
 447 180 447 180 416.5 144.5 c 128,-1,8
 386 109 386 109 331 109 c 128,-1,9
 276 109 276 109 246.5 144.5 c 128,-1,10
 217 180 217 180 217 246 c 2,11,-1
 217 700 l 1,12,-1
 71 700 l 1,13,-1
 71 258 l 2,14,15
 71 127 71 127 138 60.5 c 128,-1,0
 205 -6 205 -6 332 -6 c 128,-1,1
273 753 m 1,16,-1
 348 877 l 1,17,-1
 482 877 l 1,18,-1
 384 753 l 1,19,-1
 273 753 l 1,16,-1
EndSplineSet
EndChar

StartChar: Ucircumflex
Encoding: 219 219 158
Width: 664
GlyphClass: 2
Flags: W
LayerCount: 2
Fore
SplineSet
332 -6 m 128,-1,1
 205 -6 205 -6 138 60.5 c 128,-1,2
 71 127 71 127 71 258 c 2,3,-1
 71 700 l 1,4,-1
 217 700 l 1,5,-1
 217 246 l 2,6,7
 217 180 217 180 246.5 144.5 c 128,-1,8
 276 109 276 109 331 109 c 128,-1,9
 386 109 386 109 416.5 144.5 c 128,-1,10
 447 180 447 180 447 246 c 2,11,-1
 447 700 l 1,12,-1
 593 700 l 1,13,-1
 593 258 l 2,14,15
 593 127 593 127 526 60.5 c 128,-1,0
 459 -6 459 -6 332 -6 c 128,-1,1
290 893 m 1,16,-1
 377 893 l 1,17,-1
 503 803 l 1,18,-1
 459 739 l 1,19,-1
 333 804 l 1,20,-1
 206 739 l 1,21,-1
 162 803 l 1,22,-1
 290 893 l 1,16,-1
EndSplineSet
EndChar

StartChar: Yacute
Encoding: 221 221 160
Width: 552
GlyphClass: 2
Flags: W
LayerCount: 2
Fore
SplineSet
559 700 m 1,0,-1
 344 295 l 1,1,-1
 344 0 l 1,2,-1
 199 0 l 1,3,-1
 199 295 l 1,4,-1
 -7 700 l 1,5,-1
 146 700 l 1,6,-1
 273 426 l 1,7,-1
 408 700 l 1,8,-1
 559 700 l 1,0,-1
206 753 m 1,9,-1
 281 877 l 1,10,-1
 415 877 l 1,11,-1
 317 753 l 1,12,-1
 206 753 l 1,9,-1
EndSplineSet
EndChar

StartChar: Thorn
Encoding: 222 222 161
Width: 546
GlyphClass: 2
Flags: W
LayerCount: 2
Fore
SplineSet
214 700 m 1,0,-1
 214 590 l 1,1,-1
 289 590 l 1,2,3
 412 589 412 589 467 536.5 c 128,-1,4
 522 484 522 484 522 374.5 c 128,-1,5
 522 265 522 265 454.5 212 c 128,-1,6
 387 159 387 159 266 159 c 2,7,-1
 214 159 l 1,8,-1
 214 0 l 1,9,-1
 69 0 l 1,10,-1
 69 700 l 1,11,-1
 214 700 l 1,0,-1
255 476 m 2,12,-1
 214 476 l 1,13,-1
 214 273 l 1,14,-1
 250 273 l 2,15,16
 315 273 315 273 346 295.5 c 128,-1,17
 377 318 377 318 377 372.5 c 128,-1,18
 377 427 377 427 348 451.5 c 128,-1,19
 319 476 319 476 255 476 c 2,12,-1
EndSplineSet
EndChar

StartChar: germandbls
Encoding: 223 223 162
Width: 568
GlyphClass: 2
Flags: W
LayerCount: 2
Fore
SplineSet
534 198 m 0,0,1
 534 99 534 99 466.5 46.5 c 128,-1,2
 399 -6 399 -6 274 -6 c 0,3,4
 257 -6 257 -6 242 -1 c 1,5,-1
 242 102 l 1,6,7
 399 102 399 102 399 209 c 0,8,9
 399 251 399 251 368.5 284.5 c 128,-1,10
 338 318 338 318 282 318 c 2,11,-1
 254 318 l 1,12,-1
 254 432 l 1,13,-1
 281 432 l 2,14,15
 315 432 315 432 343 460 c 128,-1,16
 371 488 371 488 371 525 c 128,-1,17
 371 562 371 562 351 583.5 c 128,-1,18
 331 605 331 605 296 605 c 0,19,20
 234 605 234 605 215 579 c 128,-1,21
 196 553 196 553 196 498 c 2,22,-1
 196 0 l 1,23,-1
 71 0 l 1,24,-1
 71 532 l 2,25,26
 71 624 71 624 121.5 667 c 128,-1,27
 172 710 172 710 281.5 710 c 128,-1,28
 391 710 391 710 448.5 658 c 128,-1,29
 506 606 506 606 506 531 c 0,30,31
 506 398 506 398 403 382 c 1,32,33
 460 373 460 373 497 323.5 c 128,-1,34
 534 274 534 274 534 198 c 0,0,1
EndSplineSet
EndChar

StartChar: atilde
Encoding: 227 227 166
Width: 503
GlyphClass: 2
Flags: W
LayerCount: 2
Fore
SplineSet
346 0 m 1,0,-1
 326 50 l 1,1,2
 291 18 291 18 264 5.5 c 128,-1,3
 237 -7 237 -7 199 -7 c 0,4,5
 135 -7 135 -7 87.5 37.5 c 128,-1,6
 40 82 40 82 40 156 c 128,-1,7
 40 230 40 230 98 272.5 c 128,-1,8
 156 315 156 315 273 315 c 2,9,-1
 314 315 l 1,10,11
 314 358 314 358 293.5 384 c 128,-1,12
 273 410 273 410 231 410 c 0,13,14
 158 410 158 410 83 390 c 1,15,-1
 61 478 l 1,16,17
 160 510 160 510 260 510 c 0,18,19
 442 510 442 510 442 340 c 2,20,-1
 442 0 l 1,21,-1
 346 0 l 1,0,-1
312 219 m 1,22,-1
 269 219 l 2,23,24
 213 219 213 219 193 204 c 128,-1,25
 173 189 173 189 173 160.5 c 128,-1,26
 173 132 173 132 188 114 c 128,-1,27
 203 96 203 96 227 96 c 0,28,29
 261 96 261 96 312 150 c 1,30,-1
 312 219 l 1,22,-1
392 708 m 1,31,-1
 455 661 l 1,32,33
 454 656 454 656 434 634.5 c 128,-1,34
 414 613 414 613 383.5 591 c 128,-1,35
 353 569 353 569 329.5 569 c 128,-1,36
 306 569 306 569 254 594.5 c 128,-1,37
 202 620 202 620 192 620 c 128,-1,38
 182 620 182 620 166.5 609 c 128,-1,39
 151 598 151 598 141 588 c 2,40,-1
 131 577 l 1,41,-1
 74 633 l 1,42,43
 82 643 82 643 94.5 657 c 128,-1,44
 107 671 107 671 139 694.5 c 128,-1,45
 171 718 171 718 195 718 c 128,-1,46
 219 718 219 718 270 692.5 c 128,-1,47
 321 667 321 667 332 667 c 0,48,49
 351 667 351 667 382 698 c 2,50,-1
 392 708 l 1,31,-1
EndSplineSet
EndChar

StartChar: ae
Encoding: 230 230 169
Width: 778
GlyphClass: 2
Flags: W
LayerCount: 2
Fore
SplineSet
444 131 m 1,0,1
 349 -7 349 -7 199 -7 c 0,2,3
 135 -7 135 -7 87.5 37.5 c 128,-1,4
 40 82 40 82 40 156 c 128,-1,5
 40 230 40 230 103.5 272.5 c 128,-1,6
 167 315 167 315 295 315 c 2,7,-1
 326 315 l 1,8,9
 326 410 326 410 261 410 c 0,10,11
 173 410 173 410 83 380 c 1,12,-1
 61 468 l 1,13,14
 157 510 157 510 258.5 510 c 128,-1,15
 360 510 360 510 402 466.5 c 128,-1,16
 444 423 444 423 444 340 c 2,17,-1
 444 131 l 1,0,1
324 219 m 1,18,-1
 291 219 l 2,19,20
 223 219 223 219 198 204 c 128,-1,21
 173 189 173 189 173 160.5 c 128,-1,22
 173 132 173 132 188 114 c 128,-1,23
 203 96 203 96 227 96 c 0,24,25
 267 96 267 96 324 150 c 1,26,-1
 324 219 l 1,18,-1
718 31 m 1,27,28
 628 -6 628 -6 552 -6 c 0,29,30
 327 -6 327 -6 327 248 c 0,31,32
 327 377 327 377 381.5 443.5 c 128,-1,33
 436 510 436 510 540 510 c 0,34,35
 625 510 625 510 676.5 454 c 128,-1,36
 728 398 728 398 728 288 c 0,37,38
 728 244 728 244 724 211 c 1,39,-1
 455 211 l 1,40,41
 455 152 455 152 484.5 124 c 128,-1,42
 514 96 514 96 564 96 c 128,-1,43
 614 96 614 96 696 120 c 1,44,-1
 718 31 l 1,27,28
603 303 m 1,45,-1
 603 310 l 2,46,47
 603 412 603 412 530 412 c 0,48,49
 492 412 492 412 473.5 381 c 128,-1,50
 455 350 455 350 454 303 c 1,51,-1
 603 303 l 1,45,-1
EndSplineSet
EndChar

StartChar: ccedilla
Encoding: 231 231 170
Width: 433
GlyphClass: 2
Flags: W
LayerCount: 2
Fore
SplineSet
391 109 m 1,0,-1
 407 19 l 1,1,2
 344 0 344 0 312 -3 c 1,3,4
 311 -50 311 -50 299.5 -81.5 c 128,-1,5
 288 -113 288 -113 249 -177 c 1,6,-1
 160 -146 l 1,7,8
 186 -93 186 -93 193.5 -68.5 c 128,-1,9
 201 -44 201 -44 201 0 c 1,10,11
 113 17 113 17 74 79.5 c 128,-1,12
 35 142 35 142 35 257.5 c 128,-1,13
 35 373 35 373 92 441.5 c 128,-1,14
 149 510 149 510 258 510 c 0,15,16
 322 510 322 510 404 486 c 1,17,-1
 357 395 l 1,18,19
 302 412 302 412 266 412 c 128,-1,20
 230 412 230 412 209.5 398 c 128,-1,21
 189 384 189 384 180 358 c 0,22,23
 165 315 165 315 165 240.5 c 128,-1,24
 165 166 165 166 196 131 c 128,-1,25
 227 96 227 96 286 96 c 128,-1,26
 345 96 345 96 391 109 c 1,0,-1
EndSplineSet
EndChar

StartChar: egrave
Encoding: 232 232 171
Width: 495
GlyphClass: 2
Flags: W
LayerCount: 2
Fore
SplineSet
445 31 m 1,0,1
 350 -6 350 -6 269 -6 c 0,2,3
 34 -6 34 -6 34 248 c 0,4,5
 34 377 34 377 91 443.5 c 128,-1,6
 148 510 148 510 257 510 c 0,7,8
 347 510 347 510 401 454 c 128,-1,9
 455 398 455 398 455 288 c 0,10,11
 455 244 455 244 451 211 c 1,12,-1
 162 211 l 1,13,14
 162 152 162 152 194 124 c 128,-1,15
 226 96 226 96 280 96 c 128,-1,16
 334 96 334 96 423 120 c 1,17,-1
 445 31 l 1,0,1
330 303 m 1,18,-1
 330 310 l 2,19,20
 330 356 330 356 310 384 c 128,-1,21
 290 412 290 412 247 412 c 128,-1,22
 204 412 204 412 183 381 c 128,-1,23
 162 350 162 350 161 303 c 1,24,-1
 330 303 l 1,18,-1
326 599 m 1,25,-1
 238 567 l 1,26,-1
 108 690 l 1,27,-1
 223 736 l 1,28,-1
 326 599 l 1,25,-1
EndSplineSet
EndChar

StartChar: eacute
Encoding: 233 233 172
Width: 495
GlyphClass: 2
Flags: W
LayerCount: 2
Fore
SplineSet
445 31 m 1,0,1
 350 -6 350 -6 269 -6 c 0,2,3
 34 -6 34 -6 34 248 c 0,4,5
 34 377 34 377 91 443.5 c 128,-1,6
 148 510 148 510 257 510 c 0,7,8
 347 510 347 510 401 454 c 128,-1,9
 455 398 455 398 455 288 c 0,10,11
 455 244 455 244 451 211 c 1,12,-1
 162 211 l 1,13,14
 162 152 162 152 194 124 c 128,-1,15
 226 96 226 96 280 96 c 128,-1,16
 334 96 334 96 423 120 c 1,17,-1
 445 31 l 1,0,1
330 303 m 1,18,-1
 330 310 l 2,19,20
 330 356 330 356 310 384 c 128,-1,21
 290 412 290 412 247 412 c 128,-1,22
 204 412 204 412 183 381 c 128,-1,23
 162 350 162 350 161 303 c 1,24,-1
 330 303 l 1,18,-1
286 567 m 1,25,-1
 198 599 l 1,26,-1
 301 736 l 1,27,-1
 416 690 l 1,28,-1
 286 567 l 1,25,-1
EndSplineSet
EndChar

StartChar: ecircumflex
Encoding: 234 234 173
Width: 495
GlyphClass: 2
Flags: W
LayerCount: 2
Fore
SplineSet
445 31 m 1,0,1
 350 -6 350 -6 269 -6 c 0,2,3
 34 -6 34 -6 34 248 c 0,4,5
 34 377 34 377 91 443.5 c 128,-1,6
 148 510 148 510 257 510 c 0,7,8
 347 510 347 510 401 454 c 128,-1,9
 455 398 455 398 455 288 c 0,10,11
 455 244 455 244 451 211 c 1,12,-1
 162 211 l 1,13,14
 162 152 162 152 194 124 c 128,-1,15
 226 96 226 96 280 96 c 128,-1,16
 334 96 334 96 423 120 c 1,17,-1
 445 31 l 1,0,1
330 303 m 1,18,-1
 330 310 l 2,19,20
 330 356 330 356 310 384 c 128,-1,21
 290 412 290 412 247 412 c 128,-1,22
 204 412 204 412 183 381 c 128,-1,23
 162 350 162 350 161 303 c 1,24,-1
 330 303 l 1,18,-1
212 722 m 1,25,-1
 299 722 l 1,26,-1
 425 632 l 1,27,-1
 381 568 l 1,28,-1
 255 633 l 1,29,-1
 128 568 l 1,30,-1
 84 632 l 1,31,-1
 212 722 l 1,25,-1
EndSplineSet
EndChar

StartChar: edieresis
Encoding: 235 235 174
Width: 495
GlyphClass: 2
Flags: W
LayerCount: 2
Fore
SplineSet
445 31 m 1,0,1
 350 -6 350 -6 269 -6 c 0,2,3
 34 -6 34 -6 34 248 c 0,4,5
 34 377 34 377 91 443.5 c 128,-1,6
 148 510 148 510 257 510 c 0,7,8
 347 510 347 510 401 454 c 128,-1,9
 455 398 455 398 455 288 c 0,10,11
 455 244 455 244 451 211 c 1,12,-1
 162 211 l 1,13,14
 162 152 162 152 194 124 c 128,-1,15
 226 96 226 96 280 96 c 128,-1,16
 334 96 334 96 423 120 c 1,17,-1
 445 31 l 1,0,1
330 303 m 1,18,-1
 330 310 l 2,19,20
 330 356 330 356 310 384 c 128,-1,21
 290 412 290 412 247 412 c 128,-1,22
 204 412 204 412 183 381 c 128,-1,23
 162 350 162 350 161 303 c 1,24,-1
 330 303 l 1,18,-1
91 580 m 1,25,-1
 91 711 l 1,26,-1
 212 711 l 1,27,-1
 212 580 l 1,28,-1
 91 580 l 1,25,-1
310 580 m 1,29,-1
 310 711 l 1,30,-1
 431 711 l 1,31,-1
 431 580 l 1,32,-1
 310 580 l 1,29,-1
EndSplineSet
EndChar

StartChar: igrave
Encoding: 236 236 175
Width: 284
GlyphClass: 2
Flags: W
LayerCount: 2
Fore
SplineSet
189 599 m 1,0,-1
 101 567 l 1,1,-1
 -29 690 l 1,2,-1
 86 736 l 1,3,-1
 189 599 l 1,0,-1
77 0 m 1,4,-1
 77 500 l 1,5,-1
 207 500 l 1,6,-1
 207 0 l 1,7,-1
 77 0 l 1,4,-1
EndSplineSet
EndChar

StartChar: iacute
Encoding: 237 237 176
Width: 284
GlyphClass: 2
Flags: W
LayerCount: 2
Fore
SplineSet
186 567 m 1,0,-1
 98 599 l 1,1,-1
 201 736 l 1,2,-1
 316 690 l 1,3,-1
 186 567 l 1,0,-1
77 0 m 1,4,-1
 77 500 l 1,5,-1
 207 500 l 1,6,-1
 207 0 l 1,7,-1
 77 0 l 1,4,-1
EndSplineSet
EndChar

StartChar: icircumflex
Encoding: 238 238 177
Width: 284
GlyphClass: 2
Flags: W
LayerCount: 2
Fore
SplineSet
99 722 m 1,0,-1
 186 722 l 1,1,-1
 312 632 l 1,2,-1
 268 568 l 1,3,-1
 142 633 l 1,4,-1
 15 568 l 1,5,-1
 -29 632 l 1,6,-1
 99 722 l 1,0,-1
77 0 m 1,7,-1
 77 500 l 1,8,-1
 207 500 l 1,9,-1
 207 0 l 1,10,-1
 77 0 l 1,7,-1
EndSplineSet
EndChar

StartChar: idieresis
Encoding: 239 239 178
Width: 284
GlyphClass: 2
Flags: W
LayerCount: 2
Fore
SplineSet
-28 579 m 1,0,-1
 -28 710 l 1,1,-1
 93 710 l 1,2,-1
 93 579 l 1,3,-1
 -28 579 l 1,0,-1
191 579 m 1,4,-1
 191 710 l 1,5,-1
 312 710 l 1,6,-1
 312 579 l 1,7,-1
 191 579 l 1,4,-1
77 0 m 1,8,-1
 77 500 l 1,9,-1
 207 500 l 1,10,-1
 207 0 l 1,11,-1
 77 0 l 1,8,-1
EndSplineSet
EndChar

StartChar: eth
Encoding: 240 240 179
Width: 573
GlyphClass: 2
Flags: W
LayerCount: 2
Fore
SplineSet
376 365.5 m 128,-1,1
 351 403 351 403 296.5 403 c 128,-1,2
 242 403 242 403 221 366.5 c 128,-1,3
 200 330 200 330 200 252 c 0,4,5
 200 99 200 99 297 99 c 0,6,7
 401 99 401 99 401 252 c 0,8,0
 401 328 401 328 376 365.5 c 128,-1,1
414 686 m 1,9,-1
 322 638 l 1,10,11
 426 530 426 530 469 469 c 0,12,13
 536 373 536 373 536 253 c 128,-1,14
 536 133 536 133 473.5 63.5 c 128,-1,15
 411 -6 411 -6 297.5 -6 c 128,-1,16
 184 -6 184 -6 123.5 63.5 c 128,-1,17
 63 133 63 133 63 254 c 128,-1,18
 63 375 63 375 122 442.5 c 128,-1,19
 181 510 181 510 298 511 c 1,20,-1
 226 583 l 1,21,-1
 137 533 l 1,22,-1
 73 598 l 1,23,-1
 166 651 l 1,24,25
 119 693 119 693 106 703 c 1,26,-1
 198 758 l 1,27,-1
 259 701 l 1,28,-1
 351 749 l 1,29,-1
 414 686 l 1,9,-1
EndSplineSet
EndChar

StartChar: ograve
Encoding: 242 242 181
Width: 527
GlyphClass: 2
Flags: W
LayerCount: 2
Fore
SplineSet
90 61 m 128,-1,1
 148 -7 148 -7 260 -7 c 128,-1,2
 372 -7 372 -7 433 61 c 128,-1,3
 494 129 494 129 494 249 c 128,-1,4
 494 369 494 369 430 439.5 c 128,-1,5
 366 510 366 510 257 510 c 128,-1,6
 148 510 148 510 90 440.5 c 128,-1,7
 32 371 32 371 32 250 c 128,-1,0
 32 129 32 129 90 61 c 128,-1,1
361 251 m 0,8,9
 361 177 361 177 339.5 138.5 c 128,-1,10
 318 100 318 100 264 100 c 0,11,12
 163 100 163 100 163 252 c 128,-1,13
 163 404 163 404 263 404 c 0,14,15
 361 404 361 404 361 251 c 0,8,9
336 599 m 1,16,-1
 248 567 l 1,17,-1
 118 690 l 1,18,-1
 233 736 l 1,19,-1
 336 599 l 1,16,-1
EndSplineSet
EndChar

StartChar: otilde
Encoding: 245 245 184
Width: 527
GlyphClass: 2
Flags: W
LayerCount: 2
Fore
SplineSet
90 61 m 128,-1,1
 148 -7 148 -7 260 -7 c 128,-1,2
 372 -7 372 -7 433 61 c 128,-1,3
 494 129 494 129 494 249 c 128,-1,4
 494 369 494 369 430 439.5 c 128,-1,5
 366 510 366 510 257 510 c 128,-1,6
 148 510 148 510 90 440.5 c 128,-1,7
 32 371 32 371 32 250 c 128,-1,0
 32 129 32 129 90 61 c 128,-1,1
361 251 m 0,8,9
 361 177 361 177 339.5 138.5 c 128,-1,10
 318 100 318 100 264 100 c 0,11,12
 163 100 163 100 163 252 c 128,-1,13
 163 404 163 404 263 404 c 0,14,15
 361 404 361 404 361 251 c 0,8,9
395 708 m 1,16,-1
 458 661 l 1,17,18
 457 656 457 656 437 634.5 c 128,-1,19
 417 613 417 613 386.5 591 c 128,-1,20
 356 569 356 569 332.5 569 c 128,-1,21
 309 569 309 569 257 594.5 c 128,-1,22
 205 620 205 620 195 620 c 128,-1,23
 185 620 185 620 169.5 609 c 128,-1,24
 154 598 154 598 144 588 c 2,25,-1
 134 577 l 1,26,-1
 77 633 l 1,27,28
 85 643 85 643 97.5 657 c 128,-1,29
 110 671 110 671 142 694.5 c 128,-1,30
 174 718 174 718 198 718 c 128,-1,31
 222 718 222 718 273 692.5 c 128,-1,32
 324 667 324 667 334 667 c 0,33,34
 354 667 354 667 385 698 c 2,35,-1
 395 708 l 1,16,-1
EndSplineSet
EndChar

StartChar: divide
Encoding: 247 247 186
Width: 524
GlyphClass: 2
Flags: W
LayerCount: 2
Fore
SplineSet
325 0 m 1,0,-1
 210 0 l 1,1,-1
 210 136 l 1,2,-1
 325 136 l 1,3,-1
 325 0 l 1,0,-1
325 364 m 1,4,-1
 210 364 l 1,5,-1
 210 500 l 1,6,-1
 325 500 l 1,7,-1
 325 364 l 1,4,-1
478 208 m 1,8,-1
 46 208 l 1,9,-1
 46 313 l 1,10,-1
 478 313 l 1,11,-1
 478 208 l 1,8,-1
EndSplineSet
EndChar

StartChar: oslash
Encoding: 248 248 187
Width: 527
GlyphClass: 2
Flags: W
LayerCount: 2
Fore
SplineSet
257 -7 m 0,0,1
 190 -7 190 -7 144 18 c 1,2,-1
 94 -43 l 1,3,-1
 22 21 l 1,4,-1
 73 83 l 1,5,6
 32 147 32 147 32 259 c 128,-1,7
 32 371 32 371 90 440.5 c 128,-1,8
 148 510 148 510 257 510 c 0,9,10
 335 510 335 510 393 471 c 1,11,-1
 453 545 l 1,12,-1
 530 487 l 1,13,-1
 458 400 l 1,14,15
 494 336 494 336 494 250 c 0,16,17
 494 129 494 129 433 61 c 128,-1,18
 372 -7 372 -7 257 -7 c 0,0,1
263 408 m 0,19,20
 159 408 159 408 159 251 c 0,21,22
 159 212 159 212 164 189 c 1,23,-1
 326 386 l 1,24,25
 301 408 301 408 263 408 c 0,19,20
365 251 m 0,26,27
 365 264 365 264 363 288 c 1,28,-1
 215 107 l 1,29,30
 235 96 235 96 264 96 c 0,31,32
 320 96 320 96 342.5 135.5 c 128,-1,33
 365 175 365 175 365 251 c 0,26,27
EndSplineSet
EndChar

StartChar: uacute
Encoding: 250 250 189
Width: 576
GlyphClass: 2
Flags: W
LayerCount: 2
Fore
SplineSet
71 500 m 1,0,-1
 203 500 l 1,1,-1
 203 194 l 2,2,3
 203 153 203 153 219 127.5 c 128,-1,4
 235 102 235 102 272 102 c 128,-1,5
 309 102 309 102 364 148 c 1,6,-1
 364 500 l 1,7,-1
 495 500 l 1,8,-1
 495 0 l 1,9,-1
 385 0 l 1,10,-1
 364 48 l 1,11,12
 321 16 321 16 289.5 5 c 128,-1,13
 258 -6 258 -6 216 -6 c 0,14,15
 149 -6 149 -6 110 38 c 128,-1,16
 71 82 71 82 71 169 c 2,17,-1
 71 500 l 1,0,-1
314 567 m 1,18,-1
 226 599 l 1,19,-1
 329 736 l 1,20,-1
 444 690 l 1,21,-1
 314 567 l 1,18,-1
EndSplineSet
EndChar

StartChar: ucircumflex
Encoding: 251 251 190
Width: 576
GlyphClass: 2
Flags: W
LayerCount: 2
Fore
SplineSet
71 500 m 1,0,-1
 203 500 l 1,1,-1
 203 194 l 2,2,3
 203 153 203 153 219 127.5 c 128,-1,4
 235 102 235 102 272 102 c 128,-1,5
 309 102 309 102 364 148 c 1,6,-1
 364 500 l 1,7,-1
 495 500 l 1,8,-1
 495 0 l 1,9,-1
 385 0 l 1,10,-1
 364 48 l 1,11,12
 321 16 321 16 289.5 5 c 128,-1,13
 258 -6 258 -6 216 -6 c 0,14,15
 149 -6 149 -6 110 38 c 128,-1,16
 71 82 71 82 71 169 c 2,17,-1
 71 500 l 1,0,-1
244 722 m 1,18,-1
 331 722 l 1,19,-1
 457 632 l 1,20,-1
 413 568 l 1,21,-1
 287 633 l 1,22,-1
 160 568 l 1,23,-1
 116 632 l 1,24,-1
 244 722 l 1,18,-1
EndSplineSet
EndChar

StartChar: udieresis
Encoding: 252 252 191
Width: 576
GlyphClass: 2
Flags: W
LayerCount: 2
Fore
SplineSet
71 500 m 1,0,-1
 203 500 l 1,1,-1
 203 194 l 2,2,3
 203 153 203 153 219 127.5 c 128,-1,4
 235 102 235 102 272 102 c 128,-1,5
 309 102 309 102 364 148 c 1,6,-1
 364 500 l 1,7,-1
 495 500 l 1,8,-1
 495 0 l 1,9,-1
 385 0 l 1,10,-1
 364 48 l 1,11,12
 321 16 321 16 289.5 5 c 128,-1,13
 258 -6 258 -6 216 -6 c 0,14,15
 149 -6 149 -6 110 38 c 128,-1,16
 71 82 71 82 71 169 c 2,17,-1
 71 500 l 1,0,-1
116 579 m 1,18,-1
 116 710 l 1,19,-1
 237 710 l 1,20,-1
 237 579 l 1,21,-1
 116 579 l 1,18,-1
335 579 m 1,22,-1
 335 710 l 1,23,-1
 456 710 l 1,24,-1
 456 579 l 1,25,-1
 335 579 l 1,22,-1
EndSplineSet
EndChar

StartChar: thorn
Encoding: 254 254 193
Width: 530
GlyphClass: 2
Flags: W
LayerCount: 2
Fore
SplineSet
71 700 m 1,0,-1
 201 700 l 1,1,-1
 201 464 l 1,2,3
 278 510 278 510 334 510 c 0,4,5
 407 510 407 510 450.5 444.5 c 128,-1,6
 494 379 494 379 494 255.5 c 128,-1,7
 494 132 494 132 444 66 c 128,-1,8
 394 0 394 0 315 0 c 0,9,10
 254 0 254 0 201 34 c 1,11,-1
 201 -236 l 1,12,-1
 71 -236 l 1,13,-1
 71 700 l 1,0,-1
288 111 m 0,14,15
 366 111 366 111 366 252.5 c 128,-1,16
 366 394 366 394 292 394 c 0,17,18
 254 394 254 394 201 359 c 1,19,-1
 201 156 l 1,20,21
 254 111 254 111 288 111 c 0,14,15
EndSplineSet
EndChar

StartChar: ydieresis
Encoding: 255 255 194
Width: 455
GlyphClass: 2
Flags: W
LayerCount: 2
Fore
SplineSet
60 581 m 1,0,-1
 60 712 l 1,1,-1
 181 712 l 1,2,-1
 181 581 l 1,3,-1
 60 581 l 1,0,-1
279 581 m 1,4,-1
 279 712 l 1,5,-1
 400 712 l 1,6,-1
 400 581 l 1,7,-1
 279 581 l 1,4,-1
1 500 m 1,8,-1
 165 -10 l 1,9,10
 153 -58 153 -58 118 -92.5 c 128,-1,11
 83 -127 83 -127 43 -144 c 1,12,-1
 91 -236 l 1,13,14
 162 -202 162 -202 209 -147 c 128,-1,15
 256 -92 256 -92 287 0 c 2,16,-1
 454 500 l 1,17,-1
 326 500 l 1,18,-1
 228 155 l 1,19,-1
 131 500 l 1,20,-1
 1 500 l 1,8,-1
EndSplineSet
EndChar

StartChar: hbar
Encoding: 295 295 195
Width: 556
GlyphClass: 2
Flags: W
LayerCount: 2
Fore
SplineSet
-14 568 m 1,0,-1
 -14 657 l 1,1,-1
 81 657 l 1,2,-1
 81 700 l 1,3,-1
 211 700 l 1,4,-1
 211 657 l 1,5,-1
 343 657 l 1,6,-1
 343 568 l 1,7,-1
 211 568 l 1,8,-1
 211 455 l 1,9,10
 254 487 254 487 285.5 498.5 c 128,-1,11
 317 510 317 510 359 510 c 0,12,13
 426 510 426 510 465 465.5 c 128,-1,14
 504 421 504 421 504 334 c 2,15,-1
 504 0 l 1,16,-1
 374 0 l 1,17,-1
 374 299 l 2,18,19
 374 340 374 340 358 365.5 c 128,-1,20
 342 391 342 391 304 391 c 128,-1,21
 266 391 266 391 211 345 c 1,22,-1
 211 0 l 1,23,-1
 81 0 l 1,24,-1
 81 568 l 1,25,-1
 -14 568 l 1,0,-1
EndSplineSet
EndChar

StartChar: itilde
Encoding: 297 297 197
Width: 228
GlyphClass: 2
Flags: W
LayerCount: 2
Fore
SplineSet
50 0 m 1,0,-1
 50 500 l 1,1,-1
 180 500 l 1,2,-1
 180 0 l 1,3,-1
 50 0 l 1,0,-1
244 715 m 1,4,-1
 307 668 l 1,5,6
 306 663 306 663 286 641.5 c 128,-1,7
 266 620 266 620 235.5 598 c 128,-1,8
 205 576 205 576 181.5 576 c 128,-1,9
 158 576 158 576 106 601.5 c 128,-1,10
 54 627 54 627 44 627 c 128,-1,11
 34 627 34 627 18.5 616.5 c 128,-1,12
 3 606 3 606 -7 595 c 2,13,-1
 -17 584 l 1,14,-1
 -74 640 l 1,15,16
 -66 650 -66 650 -53.5 664 c 128,-1,17
 -41 678 -41 678 -9 701.5 c 128,-1,18
 23 725 23 725 47 725 c 128,-1,19
 71 725 71 725 122 699.5 c 128,-1,20
 173 674 173 674 183.5 674 c 128,-1,21
 194 674 194 674 209 684 c 128,-1,22
 224 694 224 694 234 704 c 2,23,-1
 244 715 l 1,4,-1
EndSplineSet
EndChar

StartChar: dotlessi
Encoding: 305 305 198
Width: 284
GlyphClass: 2
Flags: W
LayerCount: 2
Fore
SplineSet
77 0 m 1,0,-1
 77 500 l 1,1,-1
 207 500 l 1,2,-1
 207 0 l 1,3,-1
 77 0 l 1,0,-1
EndSplineSet
EndChar

StartChar: ij
Encoding: 307 307 199
Width: 560
GlyphClass: 2
Flags: W
LayerCount: 2
Fore
SplineSet
207 575 m 1,0,-1
 77 575 l 1,1,-1
 77 700 l 1,2,-1
 207 700 l 1,3,-1
 207 575 l 1,0,-1
207 0 m 1,4,-1
 77 0 l 1,5,-1
 77 500 l 1,6,-1
 207 500 l 1,7,-1
 207 0 l 1,4,-1
314 -176 m 1,8,9
 355 -123 355 -123 355 -6 c 2,10,-1
 355 500 l 1,11,-1
 483 500 l 1,12,-1
 483 18 l 2,13,14
 483 -138 483 -138 391 -236 c 1,15,-1
 314 -176 l 1,8,9
484 575 m 1,16,-1
 354 575 l 1,17,-1
 354 700 l 1,18,-1
 484 700 l 1,19,-1
 484 575 l 1,16,-1
EndSplineSet
EndChar

StartChar: jcircumflex
Encoding: 309 309 201
Width: 276
GlyphClass: 2
Flags: W
LayerCount: 2
Fore
SplineSet
30 -204 m 1,0,1
 71 -151 71 -151 71 -34 c 2,2,-1
 71 500 l 1,3,-1
 199 500 l 1,4,-1
 199 -10 l 2,5,6
 199 -166 199 -166 107 -264 c 1,7,-1
 30 -204 l 1,0,1
94 722 m 1,8,-1
 181 722 l 1,9,-1
 307 632 l 1,10,-1
 263 568 l 1,11,-1
 137 633 l 1,12,-1
 10 568 l 1,13,-1
 -34 632 l 1,14,-1
 94 722 l 1,8,-1
EndSplineSet
EndChar

StartChar: kgreenlandic
Encoding: 312 312 203
Width: 570
GlyphClass: 2
Flags: W
LayerCount: 2
Fore
SplineSet
81 500 m 1,0,-1
 211 500 l 1,1,-1
 211 319 l 1,2,-1
 381 500 l 1,3,-1
 528 500 l 1,4,-1
 351 311 l 1,5,-1
 561 0 l 1,6,-1
 420 0 l 1,7,-1
 274 231 l 1,8,-1
 211 166 l 1,9,-1
 211 0 l 1,10,-1
 81 0 l 1,11,-1
 81 500 l 1,0,-1
EndSplineSet
EndChar

StartChar: ldot
Encoding: 320 320 204
Width: 431
GlyphClass: 2
Flags: W
LayerCount: 2
Fore
SplineSet
211 0 m 1,0,-1
 81 0 l 1,1,-1
 81 700 l 1,2,-1
 211 700 l 1,3,-1
 211 0 l 1,0,-1
401 231 m 1,4,-1
 286 231 l 1,5,-1
 286 367 l 1,6,-1
 401 367 l 1,7,-1
 401 231 l 1,4,-1
EndSplineSet
EndChar

StartChar: Lslash
Encoding: 321 321 205
Width: 473
GlyphClass: 2
Flags: W
LayerCount: 2
Fore
SplineSet
486 0 m 1,0,-1
 71 0 l 1,1,-1
 71 304 l 1,2,-1
 23 275 l 1,3,-1
 23 387 l 1,4,-1
 71 415 l 1,5,-1
 71 700 l 1,6,-1
 216 700 l 1,7,-1
 216 489 l 1,8,-1
 326 555 l 1,9,-1
 326 443 l 1,10,-1
 216 379 l 1,11,-1
 216 115 l 1,12,-1
 486 115 l 1,13,-1
 486 0 l 1,0,-1
EndSplineSet
EndChar

StartChar: lslash
Encoding: 322 322 206
Width: 312
GlyphClass: 2
Flags: W
LayerCount: 2
Fore
SplineSet
221 0 m 1,0,-1
 91 0 l 1,1,-1
 91 388 l 1,2,-1
 20 345 l 1,3,-1
 20 457 l 1,4,-1
 91 499 l 1,5,-1
 91 700 l 1,6,-1
 221 700 l 1,7,-1
 221 543 l 1,8,-1
 323 604 l 1,9,-1
 323 492 l 1,10,-1
 221 432 l 1,11,-1
 221 0 l 1,0,-1
EndSplineSet
EndChar

StartChar: Nacute
Encoding: 323 323 207
Width: 679
GlyphClass: 2
Flags: W
LayerCount: 2
Fore
SplineSet
608 -1 m 1,0,-1
 456 -1 l 1,1,-1
 219 430 l 1,2,-1
 219 0 l 1,3,-1
 71 0 l 1,4,-1
 71 700 l 1,5,-1
 219 700 l 1,6,-1
 463 248 l 1,7,-1
 463 700 l 1,8,-1
 608 700 l 1,9,-1
 608 -1 l 1,0,-1
293 752 m 1,10,-1
 368 876 l 1,11,-1
 502 876 l 1,12,-1
 404 752 l 1,13,-1
 293 752 l 1,10,-1
EndSplineSet
EndChar

StartChar: OE
Encoding: 338 338 209
Width: 873
GlyphClass: 2
Flags: W
LayerCount: 2
Fore
SplineSet
819 0 m 1,0,-1
 323 1 l 2,1,2
 176 1 176 1 101 100 c 128,-1,3
 26 199 26 199 26 355 c 128,-1,4
 26 511 26 511 101 605.5 c 128,-1,5
 176 700 176 700 323 700 c 2,6,-1
 819 700 l 1,7,-1
 819 584 l 1,8,-1
 547 584 l 1,9,-1
 547 438 l 1,10,-1
 794 438 l 1,11,-1
 794 321 l 1,12,-1
 547 321 l 1,13,-1
 547 121 l 1,14,-1
 819 121 l 1,15,-1
 819 0 l 1,0,-1
324 120 m 2,16,-1
 401 120 l 1,17,-1
 401 584 l 1,18,-1
 325 584 l 2,19,20
 247 584 247 584 209.5 518.5 c 128,-1,21
 172 453 172 453 172 352.5 c 128,-1,22
 172 252 172 252 211 186 c 128,-1,23
 250 120 250 120 324 120 c 2,16,-1
EndSplineSet
EndChar

StartChar: oe
Encoding: 339 339 210
Width: 861
GlyphClass: 2
Flags: W
LayerCount: 2
Fore
SplineSet
409 49 m 1,0,1
 351 -7 351 -7 249.5 -7 c 128,-1,2
 148 -7 148 -7 92.5 61 c 128,-1,3
 37 129 37 129 37 250 c 128,-1,4
 37 371 37 371 93 440.5 c 128,-1,5
 149 510 149 510 248.5 510 c 128,-1,6
 348 510 348 510 407 451 c 1,7,8
 461 510 461 510 552.5 510 c 128,-1,9
 644 510 644 510 695.5 454 c 128,-1,10
 747 398 747 398 747 288 c 0,11,12
 747 244 747 244 743 211 c 1,13,-1
 474 211 l 1,14,15
 474 152 474 152 503.5 124 c 128,-1,16
 533 96 533 96 582.5 96 c 128,-1,17
 632 96 632 96 715 120 c 1,18,-1
 737 31 l 1,19,20
 647 -6 647 -6 571 -6 c 0,21,22
 465 -6 465 -6 409 49 c 1,0,1
346 251 m 0,23,24
 346 404 346 404 258 404 c 0,25,26
 168 404 168 404 168 252 c 128,-1,27
 168 100 168 100 259 100 c 0,28,29
 307 100 307 100 326.5 138.5 c 128,-1,30
 346 177 346 177 346 251 c 0,23,24
622 303 m 1,31,-1
 622 310 l 2,32,33
 622 412 622 412 549 412 c 0,34,35
 511 412 511 412 492.5 381 c 128,-1,36
 474 350 474 350 473 303 c 1,37,-1
 622 303 l 1,31,-1
EndSplineSet
EndChar

StartChar: Racute
Encoding: 340 340 211
Width: 603
GlyphClass: 2
Flags: W
LayerCount: 2
Fore
SplineSet
216 304 m 1,0,-1
 228 304 l 2,1,2
 277 304 277 304 300.5 288.5 c 128,-1,3
 324 273 324 273 345 225 c 2,4,-1
 442 1 l 1,5,-1
 591 1 l 1,6,-1
 492 235 l 2,7,8
 468 292 468 292 446 317.5 c 128,-1,9
 424 343 424 343 384 354 c 1,10,11
 440 361 440 361 479 407.5 c 128,-1,12
 518 454 518 454 518 510 c 0,13,14
 518 602 518 602 462 651.5 c 128,-1,15
 406 701 406 701 293 701 c 2,16,-1
 71 701 l 1,17,-1
 71 1 l 1,18,-1
 216 1 l 1,19,-1
 216 304 l 1,0,-1
216 587 m 1,20,-1
 289 587 l 2,21,22
 364 587 364 587 364 508 c 0,23,24
 364 470 364 470 341.5 444 c 128,-1,25
 319 418 319 418 279 418 c 2,26,-1
 216 418 l 1,27,-1
 216 587 l 1,20,-1
229 752 m 1,28,-1
 304 876 l 1,29,-1
 438 876 l 1,30,-1
 340 752 l 1,31,-1
 229 752 l 1,28,-1
EndSplineSet
EndChar

StartChar: Rcommaaccent
Encoding: 342 342 212
Width: 603
GlyphClass: 2
Flags: W
LayerCount: 2
Fore
SplineSet
228 304 m 2,0,-1
 216 304 l 1,1,-1
 216 1 l 1,2,-1
 71 1 l 1,3,-1
 71 701 l 1,4,-1
 293 701 l 2,5,6
 406 701 406 701 462 651.5 c 128,-1,7
 518 602 518 602 518 510 c 0,8,9
 518 454 518 454 479 407.5 c 128,-1,10
 440 361 440 361 384 354 c 1,11,12
 424 343 424 343 446 317.5 c 128,-1,13
 468 292 468 292 492 235 c 2,14,-1
 591 1 l 1,15,-1
 442 1 l 1,16,-1
 345 225 l 2,17,18
 324 273 324 273 300.5 288.5 c 128,-1,19
 277 304 277 304 228 304 c 2,0,-1
289 587 m 2,20,-1
 216 587 l 1,21,-1
 216 418 l 1,22,-1
 279 418 l 2,23,24
 319 418 319 418 341.5 444 c 128,-1,25
 364 470 364 470 364 508 c 0,26,27
 364 587 364 587 289 587 c 2,20,-1
370 -40 m 1,28,29
 370 -88 370 -88 358.5 -120 c 128,-1,30
 347 -152 347 -152 307 -217 c 1,31,-1
 218 -186 l 1,32,33
 244 -133 244 -133 251.5 -108.5 c 128,-1,34
 259 -84 259 -84 259 -40 c 1,35,-1
 370 -40 l 1,28,29
EndSplineSet
EndChar

StartChar: rcommaaccent
Encoding: 343 343 213
Width: 371
GlyphClass: 2
Flags: W
LayerCount: 2
Fore
SplineSet
212 332 m 1,0,-1
 212 0 l 1,1,-1
 81 0 l 1,2,-1
 81 500 l 1,3,-1
 185 500 l 1,4,-1
 197 451 l 1,5,6
 237 483 237 483 264 496.5 c 128,-1,7
 291 510 291 510 311.5 510 c 128,-1,8
 332 510 332 510 339 509.5 c 128,-1,9
 346 509 346 509 351 508 c 128,-1,10
 356 507 356 507 368 504 c 1,11,-1
 356 385 l 1,12,13
 338 391 338 391 307 391 c 0,14,15
 265 391 265 391 212 332 c 1,0,-1
184 -40 m 1,16,17
 184 -88 184 -88 172.5 -120 c 128,-1,18
 161 -152 161 -152 121 -217 c 1,19,-1
 32 -186 l 1,20,21
 58 -133 58 -133 65.5 -108.5 c 128,-1,22
 73 -84 73 -84 73 -40 c 1,23,-1
 184 -40 l 1,16,17
EndSplineSet
EndChar

StartChar: Rcaron
Encoding: 344 344 214
Width: 603
GlyphClass: 2
Flags: W
LayerCount: 2
Fore
SplineSet
228 303 m 2,0,-1
 216 303 l 1,1,-1
 216 0 l 1,2,-1
 71 0 l 1,3,-1
 71 700 l 1,4,-1
 293 700 l 2,5,6
 406 700 406 700 462 650.5 c 128,-1,7
 518 601 518 601 518 509 c 0,8,9
 518 453 518 453 479 406.5 c 128,-1,10
 440 360 440 360 384 353 c 1,11,12
 424 342 424 342 446 316.5 c 128,-1,13
 468 291 468 291 492 234 c 2,14,-1
 591 0 l 1,15,-1
 442 0 l 1,16,-1
 345 224 l 2,17,18
 324 272 324 272 300.5 287.5 c 128,-1,19
 277 303 277 303 228 303 c 2,0,-1
289 586 m 2,20,-1
 216 586 l 1,21,-1
 216 417 l 1,22,-1
 279 417 l 2,23,24
 319 417 319 417 341.5 443 c 128,-1,25
 364 469 364 469 364 507 c 0,26,27
 364 586 364 586 289 586 c 2,20,-1
331 773 m 1,28,-1
 244 773 l 1,29,-1
 118 863 l 1,30,-1
 162 927 l 1,31,-1
 288 862 l 1,32,-1
 415 927 l 1,33,-1
 459 863 l 1,34,-1
 331 773 l 1,28,-1
EndSplineSet
EndChar

StartChar: rcaron
Encoding: 345 345 215
Width: 371
GlyphClass: 2
Flags: W
LayerCount: 2
Fore
SplineSet
212 332 m 1,0,-1
 212 0 l 1,1,-1
 81 0 l 1,2,-1
 81 500 l 1,3,-1
 185 500 l 1,4,-1
 197 451 l 1,5,6
 237 483 237 483 264 496.5 c 128,-1,7
 291 510 291 510 311.5 510 c 128,-1,8
 332 510 332 510 339 509.5 c 128,-1,9
 346 509 346 509 351 508 c 128,-1,10
 356 507 356 507 368 504 c 1,11,-1
 356 385 l 1,12,13
 338 391 338 391 307 391 c 0,14,15
 265 391 265 391 212 332 c 1,0,-1
256 589 m 1,16,-1
 169 589 l 1,17,-1
 43 679 l 1,18,-1
 87 743 l 1,19,-1
 213 678 l 1,20,-1
 340 743 l 1,21,-1
 384 679 l 1,22,-1
 256 589 l 1,16,-1
EndSplineSet
EndChar

StartChar: scaron
Encoding: 353 353 217
Width: 445
GlyphClass: 2
Flags: W
LayerCount: 2
Fore
SplineSet
68 133 m 1,0,1
 135 99 135 99 205.5 99 c 128,-1,2
 276 99 276 99 276 151 c 0,3,4
 276 199 276 199 196 222 c 0,5,6
 162 231 162 231 128.5 243.5 c 128,-1,7
 95 256 95 256 71.5 284.5 c 128,-1,8
 48 313 48 313 48 358 c 0,9,10
 48 431 48 431 93 470.5 c 128,-1,11
 138 510 138 510 218.5 510 c 128,-1,12
 299 510 299 510 371 482 c 1,13,-1
 350 378 l 1,14,15
 284 405 284 405 221 405 c 0,16,17
 177 405 177 405 177 375 c 0,18,19
 177 344 177 344 236 328 c 0,20,21
 298 312 298 312 346 282 c 0,22,23
 371 267 371 267 388 237 c 128,-1,24
 405 207 405 207 405 165 c 0,25,26
 405 86 405 86 352 40 c 128,-1,27
 299 -6 299 -6 206 -6 c 128,-1,28
 113 -6 113 -6 40 37 c 1,29,-1
 68 133 l 1,0,1
264 589 m 1,30,-1
 177 589 l 1,31,-1
 51 679 l 1,32,-1
 95 743 l 1,33,-1
 221 678 l 1,34,-1
 348 743 l 1,35,-1
 392 679 l 1,36,-1
 264 589 l 1,30,-1
EndSplineSet
EndChar

StartChar: zcaron
Encoding: 382 382 220
Width: 412
GlyphClass: 2
Flags: W
LayerCount: 2
Fore
SplineSet
39 500 m 1,0,-1
 366 500 l 1,1,-1
 366 400 l 1,2,-1
 173 105 l 1,3,-1
 378 105 l 1,4,-1
 378 0 l 1,5,-1
 39 0 l 1,6,-1
 39 100 l 1,7,-1
 231 395 l 1,8,-1
 39 395 l 1,9,-1
 39 500 l 1,0,-1
244 589 m 1,10,-1
 157 589 l 1,11,-1
 31 679 l 1,12,-1
 75 743 l 1,13,-1
 201 678 l 1,14,-1
 328 743 l 1,15,-1
 372 679 l 1,16,-1
 244 589 l 1,10,-1
EndSplineSet
EndChar

StartChar: florin
Encoding: 402 402 221
Width: 310
GlyphClass: 2
Flags: W
LayerCount: 2
Fore
SplineSet
15 442 m 1,0,-1
 35 598 l 2,1,2
 43 659 43 659 89 685.5 c 128,-1,3
 135 712 135 712 199 712 c 128,-1,4
 263 712 263 712 308 700 c 1,5,-1
 282 596 l 1,6,7
 247 601 247 601 221 601 c 0,8,9
 169 601 169 601 167 564 c 1,10,-1
 149 442 l 1,11,-1
 261 442 l 1,12,-1
 249 342 l 1,13,-1
 137 342 l 1,14,-1
 78 -143 l 1,15,-1
 -60 -153 l 1,16,-1
 2 342 l 1,17,-1
 -75 342 l 1,18,-1
 -63 442 l 1,19,-1
 15 442 l 1,0,-1
EndSplineSet
EndChar

StartChar: circumflex
Encoding: 710 710 222
Width: 491
GlyphClass: 2
Flags: W
LayerCount: 2
Fore
SplineSet
203 830 m 1,0,-1
 290 830 l 1,1,-1
 416 740 l 1,2,-1
 372 676 l 1,3,-1
 246 741 l 1,4,-1
 119 676 l 1,5,-1
 75 740 l 1,6,-1
 203 830 l 1,0,-1
EndSplineSet
EndChar

StartChar: caron
Encoding: 711 711 223
Width: 491
GlyphClass: 2
Flags: W
LayerCount: 2
Fore
SplineSet
288 676 m 1,0,-1
 201 676 l 1,1,-1
 75 766 l 1,2,-1
 119 830 l 1,3,-1
 245 765 l 1,4,-1
 372 830 l 1,5,-1
 416 766 l 1,6,-1
 288 676 l 1,0,-1
EndSplineSet
EndChar

StartChar: breve
Encoding: 728 728 224
Width: 400
GlyphClass: 2
Flags: W
LayerCount: 2
Fore
SplineSet
200 63 m 0,0,1
 250 63 250 63 250 115 c 1,2,-1
 334 115 l 1,3,-1
 334 102 l 2,4,5
 334 42 334 42 300 8.5 c 128,-1,6
 266 -25 266 -25 200 -25 c 128,-1,7
 134 -25 134 -25 100 8.5 c 128,-1,8
 66 42 66 42 66 102 c 2,9,-1
 66 115 l 1,10,-1
 150 115 l 1,11,12
 150 87 150 87 162 75 c 128,-1,13
 174 63 174 63 200 63 c 0,0,1
EndSplineSet
EndChar

StartChar: dotaccent
Encoding: 729 729 225
Width: 245
GlyphClass: 2
Flags: W
LayerCount: 2
Fore
SplineSet
175 705 m 1,0,-1
 70 705 l 1,1,-1
 70 821 l 1,2,-1
 175 821 l 1,3,-1
 175 705 l 1,0,-1
EndSplineSet
EndChar

StartChar: ring
Encoding: 730 730 226
Width: 398
GlyphClass: 2
Flags: W
LayerCount: 2
Fore
SplineSet
198 772 m 128,-1,1
 258 772 258 772 289.5 741.5 c 128,-1,2
 321 711 321 711 321 661 c 128,-1,3
 321 611 321 611 291 581.5 c 128,-1,4
 261 552 261 552 199 552 c 128,-1,5
 137 552 137 552 107 581.5 c 128,-1,6
 77 611 77 611 77 661 c 128,-1,7
 77 711 77 711 107.5 741.5 c 128,-1,0
 138 772 138 772 198 772 c 128,-1,1
199 703 m 0,8,9
 163 703 163 703 163 663 c 128,-1,10
 163 623 163 623 199 623 c 0,11,12
 237 623 237 623 237 663 c 128,-1,13
 237 703 237 703 199 703 c 0,8,9
EndSplineSet
EndChar

StartChar: ogonek
Encoding: 731 731 227
Width: 301
GlyphClass: 2
Flags: W
LayerCount: 2
Fore
SplineSet
40 -118 m 0,0,1
 40 -48 40 -48 116 0 c 1,2,-1
 239 0 l 1,3,4
 151 -43 151 -43 151 -91 c 0,5,6
 151 -121 151 -121 181 -121 c 0,7,8
 200 -121 200 -121 256 -105 c 1,9,-1
 274 -169 l 1,10,11
 218 -194 218 -194 158 -194 c 0,12,13
 40 -194 40 -194 40 -118 c 0,0,1
EndSplineSet
EndChar

StartChar: tilde
Encoding: 732 732 228
Width: 516
GlyphClass: 2
Flags: W
LayerCount: 2
Fore
SplineSet
396 811 m 1,0,-1
 459 764 l 1,1,2
 458 759 458 759 438 737.5 c 128,-1,3
 418 716 418 716 387.5 694 c 128,-1,4
 357 672 357 672 333.5 672 c 128,-1,5
 310 672 310 672 258 697.5 c 128,-1,6
 206 723 206 723 196 723 c 128,-1,7
 186 723 186 723 170.5 712.5 c 128,-1,8
 155 702 155 702 145 691 c 2,9,-1
 135 680 l 1,10,-1
 78 736 l 1,11,12
 86 746 86 746 98.5 760 c 128,-1,13
 111 774 111 774 143 797.5 c 128,-1,14
 175 821 175 821 199 821 c 128,-1,15
 223 821 223 821 274 795.5 c 128,-1,16
 325 770 325 770 335.5 770 c 128,-1,17
 346 770 346 770 361 780 c 128,-1,18
 376 790 376 790 386 800 c 2,19,-1
 396 811 l 1,0,-1
EndSplineSet
EndChar

StartChar: hungarumlaut
Encoding: 733 733 229
Width: 499
GlyphClass: 2
Flags: W
LayerCount: 2
Fore
SplineSet
159 566 m 1,0,-1
 61 592 l 1,1,-1
 174 733 l 1,2,-1
 289 698 l 1,3,-1
 159 566 l 1,0,-1
324 566 m 1,4,-1
 226 592 l 1,5,-1
 339 733 l 1,6,-1
 454 698 l 1,7,-1
 324 566 l 1,4,-1
EndSplineSet
EndChar

StartChar: Delta
Encoding: 916 916 230
AltUni2: 002206.ffffffff.0
Width: 613
GlyphClass: 2
Flags: W
LayerCount: 2
Fore
SplineSet
593 0 m 1,0,-1
 20 0 l 1,1,-1
 230 700 l 1,2,-1
 381 700 l 1,3,-1
 593 0 l 1,0,-1
426 107 m 1,4,-1
 305 554 l 1,5,-1
 175 107 l 1,6,-1
 426 107 l 1,4,-1
EndSplineSet
EndChar

StartChar: Omega
Encoding: 937 937 231
AltUni2: 002126.ffffffff.0
Width: 738
GlyphClass: 2
Flags: W
LayerCount: 2
Fore
SplineSet
578 115 m 1,0,-1
 686 115 l 1,1,-1
 686 0 l 1,2,-1
 401 0 l 1,3,-1
 401 115 l 1,4,5
 472 141 472 141 495 214 c 0,6,7
 514 276 514 276 514 365.5 c 128,-1,8
 514 455 514 455 473.5 525 c 128,-1,9
 433 595 433 595 362 595 c 0,10,11
 309 595 309 595 273 558 c 0,12,13
 209 494 209 494 209 355 c 0,14,15
 209 265 209 265 239 194.5 c 128,-1,16
 269 124 269 124 332 115 c 1,17,-1
 332 0 l 1,18,-1
 47 0 l 1,19,-1
 47 115 l 1,20,-1
 140 115 l 1,21,22
 63 198 63 198 63 355 c 128,-1,23
 63 512 63 512 138.5 611 c 128,-1,24
 214 710 214 710 360.5 710 c 128,-1,25
 507 710 507 710 583 611 c 128,-1,26
 659 512 659 512 659 354.5 c 128,-1,27
 659 197 659 197 578 115 c 1,0,-1
EndSplineSet
EndChar

StartChar: pi
Encoding: 960 960 232
Width: 583
GlyphClass: 2
Flags: W
LayerCount: 2
Fore
SplineSet
539 544 m 1,0,-1
 539 439 l 1,1,-1
 453 439 l 1,2,-1
 453 0 l 1,3,-1
 339 0 l 1,4,-1
 339 439 l 1,5,-1
 227 439 l 1,6,-1
 227 0 l 1,7,-1
 112 0 l 1,8,-1
 112 439 l 1,9,-1
 30 439 l 1,10,-1
 30 544 l 1,11,-1
 539 544 l 1,0,-1
EndSplineSet
EndChar

StartChar: endash
Encoding: 8211 8211 233
Width: 500
GlyphClass: 2
Flags: W
LayerCount: 2
Fore
SplineSet
500 237 m 1,0,-1
 0 237 l 1,1,-1
 0 342 l 1,2,-1
 500 342 l 1,3,-1
 500 237 l 1,0,-1
EndSplineSet
EndChar

StartChar: emdash
Encoding: 8212 8212 234
Width: 800
GlyphClass: 2
Flags: W
LayerCount: 2
Fore
SplineSet
800 237 m 1,0,-1
 0 237 l 1,1,-1
 0 342 l 1,2,-1
 800 342 l 1,3,-1
 800 237 l 1,0,-1
EndSplineSet
EndChar

StartChar: quoteleft
Encoding: 8216 8216 235
Width: 268
GlyphClass: 2
Flags: W
LayerCount: 2
Fore
SplineSet
37 512 m 1,0,-1
 151 769 l 1,1,-1
 242 741 l 1,2,-1
 159 475 l 1,3,-1
 37 512 l 1,0,-1
EndSplineSet
EndChar

StartChar: quoteright
Encoding: 8217 8217 236
Width: 267
GlyphClass: 2
Flags: W
LayerCount: 2
Fore
SplineSet
228 732 m 1,0,-1
 114 475 l 1,1,-1
 23 503 l 1,2,-1
 106 769 l 1,3,-1
 228 732 l 1,0,-1
EndSplineSet
EndChar

StartChar: quotesinglbase
Encoding: 8218 8218 237
Width: 268
GlyphClass: 2
Flags: W
LayerCount: 2
Fore
SplineSet
230 86 m 1,0,-1
 117 -162 l 1,1,-1
 21 -132 l 1,2,-1
 109 122 l 1,3,-1
 230 86 l 1,0,-1
EndSplineSet
EndChar

StartChar: quotedblleft
Encoding: 8220 8220 238
Width: 466
GlyphClass: 2
Flags: W
LayerCount: 2
Fore
SplineSet
37 512 m 1,0,-1
 151 769 l 1,1,-1
 242 741 l 1,2,-1
 159 475 l 1,3,-1
 37 512 l 1,0,-1
237 512 m 1,4,-1
 351 769 l 1,5,-1
 442 741 l 1,6,-1
 359 475 l 1,7,-1
 237 512 l 1,4,-1
EndSplineSet
EndChar

StartChar: quotedblright
Encoding: 8221 8221 239
Width: 465
GlyphClass: 2
Flags: W
LayerCount: 2
Fore
SplineSet
228 732 m 1,0,-1
 114 475 l 1,1,-1
 23 503 l 1,2,-1
 106 769 l 1,3,-1
 228 732 l 1,0,-1
428 732 m 1,4,-1
 314 475 l 1,5,-1
 223 503 l 1,6,-1
 306 769 l 1,7,-1
 428 732 l 1,4,-1
EndSplineSet
EndChar

StartChar: quotedblbase
Encoding: 8222 8222 240
Width: 465
GlyphClass: 2
Flags: W
LayerCount: 2
Fore
SplineSet
230 86 m 1,0,-1
 117 -162 l 1,1,-1
 21 -132 l 1,2,-1
 109 122 l 1,3,-1
 230 86 l 1,0,-1
430 86 m 1,4,-1
 317 -162 l 1,5,-1
 221 -132 l 1,6,-1
 309 122 l 1,7,-1
 430 86 l 1,4,-1
EndSplineSet
EndChar

StartChar: dagger
Encoding: 8224 8224 241
Width: 502
GlyphClass: 2
Flags: W
LayerCount: 2
Fore
SplineSet
317 470 m 1,0,-1
 317 0 l 1,1,-1
 192 0 l 1,2,-1
 192 470 l 1,3,-1
 45 470 l 1,4,-1
 45 575 l 1,5,-1
 192 575 l 1,6,-1
 192 750 l 1,7,-1
 317 750 l 1,8,-1
 317 575 l 1,9,-1
 475 575 l 1,10,-1
 475 470 l 1,11,-1
 317 470 l 1,0,-1
EndSplineSet
EndChar

StartChar: daggerdbl
Encoding: 8225 8225 242
Width: 520
GlyphClass: 2
Flags: W
LayerCount: 2
Fore
SplineSet
317 183 m 1,0,-1
 317 0 l 1,1,-1
 192 0 l 1,2,-1
 192 183 l 1,3,-1
 45 183 l 1,4,-1
 45 288 l 1,5,-1
 192 288 l 1,6,-1
 192 470 l 1,7,-1
 45 470 l 1,8,-1
 45 575 l 1,9,-1
 192 575 l 1,10,-1
 192 750 l 1,11,-1
 317 750 l 1,12,-1
 317 575 l 1,13,-1
 475 575 l 1,14,-1
 475 470 l 1,15,-1
 317 470 l 1,16,-1
 317 288 l 1,17,-1
 475 288 l 1,18,-1
 475 183 l 1,19,-1
 317 183 l 1,0,-1
EndSplineSet
EndChar

StartChar: bullet
Encoding: 8226 8226 243
Width: 470
GlyphClass: 2
Flags: W
LayerCount: 2
Fore
SplineSet
333.5 370.5 m 128,-1,1
 377 327 377 327 377 264.5 c 128,-1,2
 377 202 377 202 333.5 159 c 128,-1,3
 290 116 290 116 228 116 c 128,-1,4
 166 116 166 116 122.5 159 c 128,-1,5
 79 202 79 202 79 264.5 c 128,-1,6
 79 327 79 327 122.5 370.5 c 128,-1,7
 166 414 166 414 228 414 c 128,-1,0
 290 414 290 414 333.5 370.5 c 128,-1,1
EndSplineSet
EndChar

StartChar: ellipsis
Encoding: 8230 8230 244
Width: 687
GlyphClass: 2
Flags: W
LayerCount: 2
Fore
SplineSet
401 0 m 1,0,-1
 286 0 l 1,1,-1
 286 136 l 1,2,-1
 401 136 l 1,3,-1
 401 0 l 1,0,-1
149 0 m 1,4,-1
 34 0 l 1,5,-1
 34 136 l 1,6,-1
 149 136 l 1,7,-1
 149 0 l 1,4,-1
149 0 m 1,8,-1
 34 0 l 1,9,-1
 34 136 l 1,10,-1
 149 136 l 1,11,-1
 149 0 l 1,8,-1
653 0 m 1,12,-1
 538 0 l 1,13,-1
 538 136 l 1,14,-1
 653 136 l 1,15,-1
 653 0 l 1,12,-1
EndSplineSet
EndChar

StartChar: perthousand
Encoding: 8240 8240 245
Width: 1059
GlyphClass: 2
Flags: W
LayerCount: 2
Fore
SplineSet
577.5 223 m 128,-1,1
 567 246 567 246 547 246 c 128,-1,2
 527 246 527 246 516 222.5 c 128,-1,3
 505 199 505 199 505 164 c 0,4,5
 505 84 505 84 545 84 c 0,6,7
 588 84 588 84 588 164 c 0,8,0
 588 200 588 200 577.5 223 c 128,-1,1
545 336 m 0,9,10
 693 336 693 336 693 165 c 128,-1,11
 693 -6 693 -6 543 -6 c 0,12,13
 470 -6 470 -6 435 39.5 c 128,-1,14
 400 85 400 85 400 160.5 c 128,-1,15
 400 236 400 236 435.5 286 c 128,-1,16
 471 336 471 336 545 336 c 0,9,10
207.5 583 m 128,-1,18
 197 606 197 606 177 606 c 128,-1,19
 157 606 157 606 146 582.5 c 128,-1,20
 135 559 135 559 135 524 c 0,21,22
 135 444 135 444 175 444 c 0,23,24
 218 444 218 444 218 524 c 0,25,17
 218 560 218 560 207.5 583 c 128,-1,18
175 696 m 0,26,27
 323 696 323 696 323 525 c 128,-1,28
 323 354 323 354 173 354 c 0,29,30
 100 354 100 354 65 399.5 c 128,-1,31
 30 445 30 445 30 520.5 c 128,-1,32
 30 596 30 596 65.5 646 c 128,-1,33
 101 696 101 696 175 696 c 0,26,27
899.5 223 m 128,-1,35
 889 246 889 246 869 246 c 128,-1,36
 849 246 849 246 838 222.5 c 128,-1,37
 827 199 827 199 827 164 c 0,38,39
 827 84 827 84 867 84 c 0,40,41
 910 84 910 84 910 164 c 0,42,34
 910 200 910 200 899.5 223 c 128,-1,35
867 336 m 0,43,44
 1015 336 1015 336 1015 165 c 128,-1,45
 1015 -6 1015 -6 865 -6 c 0,46,47
 792 -6 792 -6 757 39.5 c 128,-1,48
 722 85 722 85 722 160.5 c 128,-1,49
 722 236 722 236 757.5 286 c 128,-1,50
 793 336 793 336 867 336 c 0,43,44
616 688 m 1,51,-1
 228 0 l 1,52,-1
 90 0 l 1,53,-1
 478 688 l 1,54,-1
 616 688 l 1,51,-1
EndSplineSet
EndChar

StartChar: guilsinglleft
Encoding: 8249 8249 246
Width: 330
GlyphClass: 2
Flags: W
LayerCount: 2
Fore
SplineSet
273 115 m 1,0,-1
 177 72 l 1,1,-1
 39 296 l 1,2,-1
 178 522 l 1,3,-1
 273 479 l 1,4,-1
 175 298 l 1,5,-1
 273 115 l 1,0,-1
EndSplineSet
EndChar

StartChar: guilsinglright
Encoding: 8250 8250 247
Width: 330
GlyphClass: 2
Flags: W
LayerCount: 2
Fore
SplineSet
69 479 m 1,0,-1
 165 522 l 1,1,-1
 303 298 l 1,2,-1
 164 72 l 1,3,-1
 69 115 l 1,4,-1
 167 296 l 1,5,-1
 69 479 l 1,0,-1
EndSplineSet
EndChar

StartChar: fraction
Encoding: 8260 8260 248
Width: 406
GlyphClass: 2
Flags: W
LayerCount: 2
Fore
SplineSet
496 688 m 1,0,-1
 108 0 l 1,1,-1
 -30 0 l 1,2,-1
 358 688 l 1,3,-1
 496 688 l 1,0,-1
EndSplineSet
EndChar

StartChar: Euro
Encoding: 8364 8364 249
Width: 630
GlyphClass: 2
Flags: W
LayerCount: 2
Fore
SplineSet
78 330 m 1,0,-1
 77 362 l 2,1,2
 77 366 77 366 79 376 c 1,3,-1
 21 376 l 1,4,-1
 21 481 l 1,5,-1
 89 481 l 1,6,7
 116 588 116 588 198.5 649 c 128,-1,8
 281 710 281 710 406 710 c 0,9,10
 491 710 491 710 582 680 c 1,11,-1
 544 568 l 1,12,13
 480 595 480 595 408 595 c 0,14,15
 273 595 273 595 235 481 c 1,16,-1
 441 481 l 1,17,-1
 441 375 l 1,18,-1
 225 375 l 1,19,20
 223 359 223 359 223 349.5 c 128,-1,21
 223 340 223 340 224 330 c 1,22,-1
 441 330 l 1,23,-1
 441 225 l 1,24,-1
 231 225 l 1,25,26
 264 109 264 109 391 109 c 0,27,28
 463 109 463 109 562 148 c 1,29,-1
 602 46 l 1,30,31
 506 -6 506 -6 386.5 -6 c 128,-1,32
 267 -6 267 -6 187 56 c 128,-1,33
 107 118 107 118 84 225 c 1,34,-1
 21 225 l 1,35,-1
 21 330 l 1,36,-1
 78 330 l 1,0,-1
EndSplineSet
EndChar

StartChar: trademark
Encoding: 8482 8482 250
Width: 686
GlyphClass: 2
Flags: W
LayerCount: 2
Fore
SplineSet
549 546 m 1,0,-1
 493 473 l 1,1,-1
 465 473 l 1,2,-1
 418 541 l 1,3,-1
 418 418 l 1,4,-1
 332 418 l 1,5,-1
 332 700 l 1,6,-1
 413 700 l 1,7,-1
 484 594 l 1,8,-1
 558 700 l 1,9,-1
 636 700 l 1,10,-1
 636 418 l 1,11,-1
 549 418 l 1,12,-1
 549 546 l 1,0,-1
110 418 m 1,13,-1
 110 622 l 1,14,-1
 38 622 l 1,15,-1
 38 700 l 1,16,-1
 281 700 l 1,17,-1
 281 622 l 1,18,-1
 205 622 l 1,19,-1
 205 418 l 1,20,-1
 110 418 l 1,13,-1
EndSplineSet
EndChar

StartChar: arrowleft
Encoding: 8592 8592 251
Width: 745
GlyphClass: 2
Flags: W
LayerCount: 2
Fore
SplineSet
305 44 m 1,0,-1
 27 319 l 1,1,-1
 302 578 l 1,2,-1
 385 495 l 1,3,-1
 253 372 l 1,4,-1
 718 372 l 1,5,-1
 718 257 l 1,6,-1
 253 257 l 1,7,-1
 389 126 l 1,8,-1
 305 44 l 1,0,-1
EndSplineSet
EndChar

StartChar: arrowup
Encoding: 8593 8593 252
Width: 704
GlyphClass: 2
Flags: W
LayerCount: 2
Fore
SplineSet
85 345 m 1,0,-1
 360 623 l 1,1,-1
 619 348 l 1,2,-1
 536 265 l 1,3,-1
 413 397 l 1,4,-1
 413 -28 l 1,5,-1
 298 -28 l 1,6,-1
 298 397 l 1,7,-1
 167 261 l 1,8,-1
 85 345 l 1,0,-1
EndSplineSet
EndChar

StartChar: arrowright
Encoding: 8594 8594 253
Width: 745
GlyphClass: 2
Flags: W
LayerCount: 2
Fore
SplineSet
718 319 m 1,0,-1
 440 44 l 1,1,-1
 356 126 l 1,2,-1
 492 257 l 1,3,-1
 27 257 l 1,4,-1
 27 372 l 1,5,-1
 492 372 l 1,6,-1
 360 495 l 1,7,-1
 443 578 l 1,8,-1
 718 319 l 1,0,-1
EndSplineSet
EndChar

StartChar: arrowdown
Encoding: 8595 8595 254
Width: 704
GlyphClass: 2
Flags: W
LayerCount: 2
Fore
SplineSet
619 224 m 1,0,-1
 344 -54 l 1,1,-1
 85 221 l 1,2,-1
 168 304 l 1,3,-1
 291 172 l 1,4,-1
 291 597 l 1,5,-1
 406 597 l 1,6,-1
 406 172 l 1,7,-1
 537 308 l 1,8,-1
 619 224 l 1,0,-1
EndSplineSet
EndChar

StartChar: partialdiff
Encoding: 8706 8706 255
Width: 508
GlyphClass: 2
Flags: W
LayerCount: 2
Fore
SplineSet
320 441 m 1,0,1
 310 501 310 501 241.5 557 c 128,-1,2
 173 613 173 613 109 620 c 1,3,-1
 145 738 l 1,4,5
 300 707 300 707 391.5 592.5 c 128,-1,6
 483 478 483 478 483 320 c 0,7,8
 483 -6 483 -6 225 -6 c 0,9,10
 118 -6 118 -6 52.5 53 c 128,-1,11
 -13 112 -13 112 -13 218 c 128,-1,12
 -13 324 -13 324 55 386 c 128,-1,13
 123 448 123 448 235 448 c 0,14,15
 268 448 268 448 320 441 c 1,0,1
338 259 m 0,16,17
 338 295 338 295 334 323 c 1,18,19
 274 333 274 333 231.5 333 c 128,-1,20
 189 333 189 333 155.5 303.5 c 128,-1,21
 122 274 122 274 122 224.5 c 128,-1,22
 122 175 122 175 149 145 c 128,-1,23
 176 115 176 115 225.5 115 c 128,-1,24
 275 115 275 115 306.5 150 c 128,-1,25
 338 185 338 185 338 259 c 0,16,17
EndSplineSet
EndChar

StartChar: product
Encoding: 8719 8719 256
Width: 521
GlyphClass: 2
Flags: W
LayerCount: 2
Fore
SplineSet
132 0 m 1,0,-1
 -13 0 l 1,1,-1
 -13 700 l 1,2,-1
 450 700 l 1,3,-1
 450 0 l 1,4,-1
 305 0 l 1,5,-1
 305 585 l 1,6,-1
 132 585 l 1,7,-1
 132 0 l 1,0,-1
EndSplineSet
EndChar

StartChar: summation
Encoding: 8721 8721 257
Width: 460
GlyphClass: 2
Flags: W
LayerCount: 2
Fore
SplineSet
389 0 m 1,0,-1
 -13 0 l 1,1,-1
 -13 111 l 1,2,-1
 181 339 l 1,3,-1
 -3 590 l 1,4,-1
 -3 700 l 1,5,-1
 378 700 l 1,6,-1
 378 585 l 1,7,-1
 166 585 l 1,8,-1
 335 343 l 1,9,-1
 152 115 l 1,10,-1
 389 115 l 1,11,-1
 389 0 l 1,0,-1
EndSplineSet
EndChar

StartChar: minus
Encoding: 8722 8722 258
Width: 570
GlyphClass: 2
Flags: W
LayerCount: 2
Fore
SplineSet
501 255 m 1,0,-1
 69 255 l 1,1,-1
 69 360 l 1,2,-1
 501 360 l 1,3,-1
 501 255 l 1,0,-1
EndSplineSet
EndChar

StartChar: radical
Encoding: 8730 8730 259
Width: 615
GlyphClass: 2
Flags: W
LayerCount: 2
Fore
SplineSet
196 0 m 1,0,-1
 107 385 l 1,1,-1
 1 385 l 1,2,-1
 1 500 l 1,3,-1
 206 500 l 1,4,-1
 282 125 l 1,5,-1
 457 800 l 1,6,-1
 599 800 l 1,7,-1
 361 0 l 1,8,-1
 196 0 l 1,0,-1
EndSplineSet
EndChar

StartChar: infinity
Encoding: 8734 8734 260
Width: 892
GlyphClass: 2
Flags: W
LayerCount: 2
Fore
SplineSet
450 368 m 1,0,1
 560 457 560 457 657 457 c 0,2,3
 738 457 738 457 788.5 414.5 c 128,-1,4
 839 372 839 372 839 298 c 128,-1,5
 839 224 839 224 786 178.5 c 128,-1,6
 733 133 733 133 652 133 c 0,7,8
 555 133 555 133 442 224 c 1,9,10
 334 133 334 133 235 133 c 0,11,12
 154 133 154 133 103.5 175 c 128,-1,13
 53 217 53 217 53 291.5 c 128,-1,14
 53 366 53 366 106.5 411.5 c 128,-1,15
 160 457 160 457 245.5 457 c 128,-1,16
 331 457 331 457 450 368 c 1,0,1
359 294 m 1,17,18
 321 330 321 330 292.5 348.5 c 128,-1,19
 264 367 264 367 231.5 367 c 128,-1,20
 199 367 199 367 178.5 347.5 c 128,-1,21
 158 328 158 328 158 297 c 0,22,23
 158 226 158 226 238 226 c 0,24,25
 287 226 287 226 359 294 c 1,17,18
527 294 m 1,26,27
 599 226 599 226 648 226 c 0,28,29
 718 226 718 226 718 297 c 0,30,31
 718 328 718 328 700 347.5 c 128,-1,32
 682 367 682 367 652 367 c 128,-1,33
 622 367 622 367 593.5 348.5 c 128,-1,34
 565 330 565 330 527 294 c 1,26,27
EndSplineSet
EndChar

StartChar: integral
Encoding: 8747 8747 261
Width: 352
GlyphClass: 2
Flags: W
LayerCount: 2
Fore
SplineSet
96 -43 m 2,0,-1
 97 650 l 2,1,2
 97 726 97 726 146 765 c 128,-1,3
 195 804 195 804 261 804 c 0,4,5
 305 804 305 804 350 793 c 1,6,-1
 338 694 l 1,7,-1
 275 694 l 2,8,9
 241 694 241 694 241 646 c 2,10,-1
 241 -47 l 2,11,12
 241 -123 241 -123 191.5 -162 c 128,-1,13
 142 -201 142 -201 76 -201 c 0,14,15
 32 -201 32 -201 -13 -190 c 1,16,-1
 -1 -91 l 1,17,-1
 62 -91 l 2,18,19
 96 -91 96 -91 96 -43 c 2,0,-1
EndSplineSet
EndChar

StartChar: approxequal
Encoding: 8776 8776 262
Width: 569
GlyphClass: 2
Flags: W
LayerCount: 2
Fore
SplineSet
513 403 m 1,0,1
 494 359 494 359 460 335 c 128,-1,2
 426 311 426 311 381.5 311 c 128,-1,3
 337 311 337 311 280.5 340.5 c 128,-1,4
 224 370 224 370 184.5 370 c 128,-1,5
 145 370 145 370 99 331 c 1,6,-1
 54 413 l 1,7,8
 76 444 76 444 113 465 c 128,-1,9
 150 486 150 486 195 486 c 128,-1,10
 240 486 240 486 296.5 456 c 128,-1,11
 353 426 353 426 390 426 c 128,-1,12
 427 426 427 426 468 462 c 1,13,-1
 513 403 l 1,0,1
513 193 m 1,14,15
 494 149 494 149 460 125 c 128,-1,16
 426 101 426 101 381.5 101 c 128,-1,17
 337 101 337 101 280.5 130.5 c 128,-1,18
 224 160 224 160 184.5 160 c 128,-1,19
 145 160 145 160 99 121 c 1,20,-1
 54 203 l 1,21,22
 76 234 76 234 113 255 c 128,-1,23
 150 276 150 276 195 276 c 128,-1,24
 240 276 240 276 296.5 246 c 128,-1,25
 353 216 353 216 390 216 c 128,-1,26
 427 216 427 216 468 252 c 1,27,-1
 513 193 l 1,14,15
EndSplineSet
EndChar

StartChar: notequal
Encoding: 8800 8800 263
Width: 580
GlyphClass: 2
Flags: W
LayerCount: 2
Fore
SplineSet
515 153 m 1,0,-1
 285 153 l 1,1,-1
 232 0 l 1,2,-1
 122 0 l 1,3,-1
 175 153 l 1,4,-1
 65 153 l 1,5,-1
 65 258 l 1,6,-1
 212 258 l 1,7,-1
 237 331 l 1,8,-1
 65 331 l 1,9,-1
 65 436 l 1,10,-1
 274 436 l 1,11,-1
 328 589 l 1,12,-1
 437 589 l 1,13,-1
 384 436 l 1,14,-1
 515 436 l 1,15,-1
 515 331 l 1,16,-1
 347 331 l 1,17,-1
 322 258 l 1,18,-1
 515 258 l 1,19,-1
 515 153 l 1,0,-1
EndSplineSet
EndChar

StartChar: lessequal
Encoding: 8804 8804 264
Width: 522
GlyphClass: 2
Flags: W
LayerCount: 2
Fore
SplineSet
442 -1 m 1,0,-1
 30 -1 l 1,1,-1
 30 104 l 1,2,-1
 442 104 l 1,3,-1
 442 -1 l 1,0,-1
442 118 m 1,4,-1
 30 322 l 1,5,-1
 30 419 l 1,6,-1
 442 624 l 1,7,-1
 442 504 l 1,8,-1
 163 371 l 1,9,-1
 442 236 l 1,10,-1
 442 118 l 1,4,-1
EndSplineSet
EndChar

StartChar: greaterequal
Encoding: 8805 8805 265
Width: 522
GlyphClass: 2
Flags: W
LayerCount: 2
Fore
SplineSet
492 -1 m 1,0,-1
 80 -1 l 1,1,-1
 80 104 l 1,2,-1
 492 104 l 1,3,-1
 492 -1 l 1,0,-1
80 627 m 1,4,-1
 492 423 l 1,5,-1
 492 326 l 1,6,-1
 80 121 l 1,7,-1
 80 241 l 1,8,-1
 359 374 l 1,9,-1
 80 509 l 1,10,-1
 80 627 l 1,4,-1
EndSplineSet
EndChar

StartChar: flecha01
Encoding: 9655 9655 266
Width: 665
GlyphClass: 2
Flags: W
LayerCount: 2
Fore
SplineSet
80 -79 m 1,0,-1
 80 653 l 1,1,-1
 665 287 l 1,2,-1
 80 -79 l 1,0,-1
195 136 m 1,3,-1
 457 287 l 1,4,-1
 195 438 l 1,5,-1
 195 136 l 1,3,-1
EndSplineSet
EndChar

StartChar: lozenge
Encoding: 9674 9674 267
Width: 543
GlyphClass: 2
Flags: W
LayerCount: 2
Fore
SplineSet
523 353 m 1,0,-1
 321 0 l 1,1,-1
 220 0 l 1,2,-1
 20 351 l 1,3,-1
 222 700 l 1,4,-1
 323 700 l 1,5,-1
 523 353 l 1,0,-1
381 351 m 1,6,-1
 271 557 l 1,7,-1
 162 353 l 1,8,-1
 272 136 l 1,9,-1
 381 351 l 1,6,-1
EndSplineSet
EndChar

StartChar: fi
Encoding: 64257 64257 268
Width: 556
GlyphClass: 2
Flags: W
LayerCount: 2
Fore
SplineSet
479 0 m 1,0,-1
 349 0 l 1,1,-1
 349 393 l 1,2,-1
 221 393 l 1,3,-1
 221 0 l 1,4,-1
 92 0 l 1,5,-1
 92 393 l 1,6,-1
 35 393 l 1,7,-1
 35 500 l 1,8,-1
 93 500 l 1,9,-1
 93 576 l 2,10,11
 93 640 93 640 129.5 675 c 128,-1,12
 166 710 166 710 222 710 c 0,13,14
 301 710 301 710 340 701 c 1,15,-1
 323 608 l 1,16,17
 298 613 298 613 274 613 c 128,-1,18
 250 613 250 613 235.5 600 c 128,-1,19
 221 587 221 587 221 552 c 2,20,-1
 221 500 l 1,21,-1
 479 500 l 1,22,-1
 479 0 l 1,0,-1
EndSplineSet
EndChar

StartChar: fl
Encoding: 64258 64258 269
Width: 570
GlyphClass: 2
Flags: W
LayerCount: 2
Fore
SplineSet
350 700 m 1,0,-1
 479 711 l 1,1,-1
 479 0 l 1,2,-1
 349 0 l 1,3,-1
 349 607 l 1,4,5
 306 613 306 613 280 613 c 0,6,7
 221 613 221 613 221 552 c 2,8,-1
 221 500 l 1,9,-1
 303 500 l 1,10,-1
 303 393 l 1,11,-1
 221 393 l 1,12,-1
 221 0 l 1,13,-1
 92 0 l 1,14,-1
 92 393 l 1,15,-1
 35 393 l 1,16,-1
 35 500 l 1,17,-1
 93 500 l 1,18,-1
 93 576 l 2,19,20
 93 640 93 640 129.5 675 c 128,-1,21
 166 710 166 710 230 710 c 128,-1,22
 294 710 294 710 350 700 c 1,0,-1
EndSplineSet
EndChar

StartChar: graveMAY
Encoding: 65543 -1 274
Width: 438
GlyphClass: 2
Flags: W
LayerCount: 2
Fore
SplineSet
280 701 m 1,0,-1
 169 701 l 1,1,-1
 71 825 l 1,2,-1
 205 825 l 1,3,-1
 280 701 l 1,0,-1
EndSplineSet
EndChar

StartChar: acuteMAY
Encoding: 65544 -1 275
Width: 438
GlyphClass: 2
Flags: W
LayerCount: 2
Fore
SplineSet
158 701 m 1,0,-1
 233 825 l 1,1,-1
 367 825 l 1,2,-1
 269 701 l 1,3,-1
 158 701 l 1,0,-1
EndSplineSet
EndChar

StartChar: flecha02
Encoding: 65545 -1 276
Width: 1016
GlyphClass: 2
Flags: W
LayerCount: 2
Fore
SplineSet
80 -79 m 1,0,-1
 80 653 l 1,1,-1
 1016 287 l 1,2,-1
 80 -79 l 1,0,-1
195 94 m 1,3,-1
 719 287 l 1,4,-1
 195 480 l 1,5,-1
 195 94 l 1,3,-1
EndSplineSet
EndChar

StartChar: "C+AJIA-rculo0" 
Encoding: 65546 -1 277
Width: 630
GlyphClass: 2
Flags: W
LayerCount: 2
Fore
SplineSet
247 159 m 1,0,-1
 247 436 l 1,1,-1
 378 436 l 1,2,-1
 378 159 l 1,3,-1
 247 159 l 1,0,-1
534.5 96.5 m 128,-1,5
 458 -5 458 -5 311.5 -5 c 128,-1,6
 165 -5 165 -5 90 96.5 c 128,-1,7
 15 198 15 198 15 355 c 128,-1,8
 15 512 15 512 90.5 611 c 128,-1,9
 166 710 166 710 312.5 710 c 128,-1,10
 459 710 459 710 535 611 c 128,-1,11
 611 512 611 512 611 355 c 128,-1,4
 611 198 611 198 534.5 96.5 c 128,-1,5
314 605 m 0,12,13
 151 605 151 605 151 353 c 128,-1,14
 151 101 151 101 313 101 c 0,15,16
 398 101 398 101 437 166 c 128,-1,17
 476 231 476 231 476 353.5 c 128,-1,18
 476 476 476 476 434.5 540.5 c 128,-1,19
 393 605 393 605 314 605 c 0,12,13
380 565 m 1,20,-1
 380 461 l 1,21,-1
 245 461 l 1,22,-1
 245 565 l 1,23,-1
 380 565 l 1,20,-1
EndSplineSet
EndChar
